M48
; DRILL file {KiCad (5.1.9)-1} date 09/13/21 16:04:37
; FORMAT={-:-/ absolute / inch / decimal}
; #@! TF.CreationDate,2021-09-13T16:04:37+07:00
; #@! TF.GenerationSoftware,Kicad,Pcbnew,(5.1.9)-1
; #@! TF.FileFunction,Plated,1,2,PTH
FMAT,2
INCH
T1C0.0118
T2C0.0394
T3C0.0469
%
G90
G05
T1
X4.2933Y-4.8067
X4.325Y-4.175
X4.325Y-4.4
X4.4Y-4.175
X4.425Y-4.95
X4.475Y-5.05
X4.5Y-4.775
X4.575Y-4.375
X4.575Y-4.5
X4.575Y-5.05
X4.6Y-4.35
X4.6Y-5.35
X4.675Y-4.35
X4.675Y-4.575
X4.7Y-5.05
X4.7Y-5.35
X4.775Y-4.35
X4.8Y-5.35
X4.825Y-4.8
X4.875Y-4.275
X4.875Y-4.625
X4.9Y-4.425
X4.9Y-5.025
X4.9Y-5.5
X4.95Y-5.175
X5.0Y-5.375
X5.1Y-4.425
X5.1669Y-4.7081
X5.175Y-5.225
X5.175Y-5.35
X5.225Y-4.425
X5.225Y-4.95
X5.225Y-5.0
X5.225Y-5.325
X5.25Y-5.5
X5.275Y-4.925
X5.3Y-4.15
X5.3Y-4.875
X5.302Y-4.223
X5.325Y-4.7
X5.35Y-5.1
X5.375Y-5.025
X5.425Y-5.15
X5.4252Y-4.875
X5.45Y-5.2
X5.4657Y-4.8343
X5.4972Y-4.8028
X5.55Y-5.0
X5.6Y-4.05
X5.6Y-4.15
X5.625Y-5.55
X5.675Y-5.275
X5.7Y-5.35
X5.725Y-4.7
X5.725Y-5.55
X5.725Y-5.75
X5.725Y-5.8
X5.75Y-4.225
X5.75Y-4.925
X5.75Y-5.175
X5.8Y-5.025
X5.825Y-4.7
X5.825Y-5.55
X5.825Y-5.7
X5.825Y-5.75
X5.85Y-3.725
X5.85Y-4.3
X5.9Y-5.025
X5.925Y-4.7
X5.925Y-5.55
X5.925Y-5.7
X5.9701Y-5.6951
X6.0Y-4.35
X6.025Y-4.7
X6.025Y-5.55
X6.05Y-5.85
X6.0994Y-4.4094
X6.15Y-4.3
X6.15Y-5.0
X6.2Y-3.85
X6.325Y-4.3
X6.425Y-5.7
X6.475Y-5.525
X6.525Y-5.55
X6.525Y-5.7
X7.15Y-4.85
T2
X6.225Y-4.0094
X6.225Y-4.1094
X6.225Y-4.2094
X6.225Y-4.3094
X6.225Y-4.4094
X6.225Y-4.5094
X7.0715Y-4.1
X7.0715Y-4.2
X7.0715Y-4.3
X7.0715Y-4.4
X7.0715Y-4.5
X7.0715Y-4.6
T3
X4.325Y-4.05
X4.3406Y-5.15
X4.425Y-4.05
X4.4406Y-5.15
X4.525Y-4.05
X4.5406Y-5.15
X4.625Y-4.05
X4.6406Y-5.15
X4.725Y-4.05
X4.7406Y-5.15
X4.825Y-4.05
X4.8406Y-5.15
X4.9Y-3.625
X5.0Y-3.625
X5.0669Y-4.625
X5.0701Y-5.625
X5.1669Y-4.625
X5.1701Y-5.625
X5.2Y-3.625
X5.2669Y-4.625
X5.2701Y-5.625
X5.3Y-3.625
X5.3669Y-4.625
X5.3701Y-5.625
X5.4Y-3.625
X5.4669Y-4.625
X5.4701Y-5.625
X5.5669Y-4.625
X5.5701Y-5.625
X5.6Y-3.625
X5.6669Y-4.625
X5.6701Y-5.625
X5.7Y-3.625
X5.7669Y-4.625
X5.7701Y-5.625
X5.8Y-3.625
X5.8669Y-4.625
X5.8701Y-5.625
X5.9Y-3.625
X5.9669Y-4.625
X5.9701Y-5.625
X6.0Y-3.625
X6.0669Y-4.625
X6.0701Y-5.625
X6.1Y-3.625
X6.275Y-5.625
X6.3Y-3.625
X6.375Y-5.625
X6.4Y-3.625
X6.475Y-5.625
X6.575Y-5.625
X6.675Y-5.625
X6.775Y-5.625
X7.1Y-4.925
X7.1Y-5.025
X7.1Y-5.125
X7.1Y-5.225
T0
M30
