%TF.GenerationSoftware,KiCad,Pcbnew,(5.1.9)-1*%
%TF.CreationDate,2021-09-13T16:04:34+07:00*%
%TF.ProjectId,Nano X ESP V3,4e616e6f-2058-4204-9553-502056332e6b,rev?*%
%TF.SameCoordinates,Original*%
%TF.FileFunction,Paste,Bot*%
%TF.FilePolarity,Positive*%
%FSLAX46Y46*%
G04 Gerber Fmt 4.6, Leading zero omitted, Abs format (unit mm)*
G04 Created by KiCad (PCBNEW (5.1.9)-1) date 2021-09-13 16:04:34*
%MOMM*%
%LPD*%
G01*
G04 APERTURE LIST*
%ADD10R,0.900000X0.800000*%
G04 APERTURE END LIST*
%TO.C,R8*%
G36*
G01*
X115065000Y-112845001D02*
X115065000Y-111944999D01*
G75*
G02*
X115314999Y-111695000I249999J0D01*
G01*
X116015001Y-111695000D01*
G75*
G02*
X116265000Y-111944999I0J-249999D01*
G01*
X116265000Y-112845001D01*
G75*
G02*
X116015001Y-113095000I-249999J0D01*
G01*
X115314999Y-113095000D01*
G75*
G02*
X115065000Y-112845001I0J249999D01*
G01*
G37*
G36*
G01*
X113065000Y-112845001D02*
X113065000Y-111944999D01*
G75*
G02*
X113314999Y-111695000I249999J0D01*
G01*
X114015001Y-111695000D01*
G75*
G02*
X114265000Y-111944999I0J-249999D01*
G01*
X114265000Y-112845001D01*
G75*
G02*
X114015001Y-113095000I-249999J0D01*
G01*
X113314999Y-113095000D01*
G75*
G02*
X113065000Y-112845001I0J249999D01*
G01*
G37*
%TD*%
%TO.C,C9*%
G36*
G01*
X109637500Y-125255000D02*
X109637500Y-126205000D01*
G75*
G02*
X109387500Y-126455000I-250000J0D01*
G01*
X108712500Y-126455000D01*
G75*
G02*
X108462500Y-126205000I0J250000D01*
G01*
X108462500Y-125255000D01*
G75*
G02*
X108712500Y-125005000I250000J0D01*
G01*
X109387500Y-125005000D01*
G75*
G02*
X109637500Y-125255000I0J-250000D01*
G01*
G37*
G36*
G01*
X111712500Y-125255000D02*
X111712500Y-126205000D01*
G75*
G02*
X111462500Y-126455000I-250000J0D01*
G01*
X110787500Y-126455000D01*
G75*
G02*
X110537500Y-126205000I0J250000D01*
G01*
X110537500Y-125255000D01*
G75*
G02*
X110787500Y-125005000I250000J0D01*
G01*
X111462500Y-125005000D01*
G75*
G02*
X111712500Y-125255000I0J-250000D01*
G01*
G37*
%TD*%
%TO.C,C11*%
G36*
G01*
X122972500Y-125890000D02*
X122972500Y-126840000D01*
G75*
G02*
X122722500Y-127090000I-250000J0D01*
G01*
X122047500Y-127090000D01*
G75*
G02*
X121797500Y-126840000I0J250000D01*
G01*
X121797500Y-125890000D01*
G75*
G02*
X122047500Y-125640000I250000J0D01*
G01*
X122722500Y-125640000D01*
G75*
G02*
X122972500Y-125890000I0J-250000D01*
G01*
G37*
G36*
G01*
X125047500Y-125890000D02*
X125047500Y-126840000D01*
G75*
G02*
X124797500Y-127090000I-250000J0D01*
G01*
X124122500Y-127090000D01*
G75*
G02*
X123872500Y-126840000I0J250000D01*
G01*
X123872500Y-125890000D01*
G75*
G02*
X124122500Y-125640000I250000J0D01*
G01*
X124797500Y-125640000D01*
G75*
G02*
X125047500Y-125890000I0J-250000D01*
G01*
G37*
%TD*%
%TO.C,R2*%
G36*
G01*
X110305001Y-119345000D02*
X109404999Y-119345000D01*
G75*
G02*
X109155000Y-119095001I0J249999D01*
G01*
X109155000Y-118394999D01*
G75*
G02*
X109404999Y-118145000I249999J0D01*
G01*
X110305001Y-118145000D01*
G75*
G02*
X110555000Y-118394999I0J-249999D01*
G01*
X110555000Y-119095001D01*
G75*
G02*
X110305001Y-119345000I-249999J0D01*
G01*
G37*
G36*
G01*
X110305001Y-121345000D02*
X109404999Y-121345000D01*
G75*
G02*
X109155000Y-121095001I0J249999D01*
G01*
X109155000Y-120394999D01*
G75*
G02*
X109404999Y-120145000I249999J0D01*
G01*
X110305001Y-120145000D01*
G75*
G02*
X110555000Y-120394999I0J-249999D01*
G01*
X110555000Y-121095001D01*
G75*
G02*
X110305001Y-121345000I-249999J0D01*
G01*
G37*
%TD*%
%TO.C,R3*%
G36*
G01*
X116020001Y-121345000D02*
X115119999Y-121345000D01*
G75*
G02*
X114870000Y-121095001I0J249999D01*
G01*
X114870000Y-120394999D01*
G75*
G02*
X115119999Y-120145000I249999J0D01*
G01*
X116020001Y-120145000D01*
G75*
G02*
X116270000Y-120394999I0J-249999D01*
G01*
X116270000Y-121095001D01*
G75*
G02*
X116020001Y-121345000I-249999J0D01*
G01*
G37*
G36*
G01*
X116020001Y-119345000D02*
X115119999Y-119345000D01*
G75*
G02*
X114870000Y-119095001I0J249999D01*
G01*
X114870000Y-118394999D01*
G75*
G02*
X115119999Y-118145000I249999J0D01*
G01*
X116020001Y-118145000D01*
G75*
G02*
X116270000Y-118394999I0J-249999D01*
G01*
X116270000Y-119095001D01*
G75*
G02*
X116020001Y-119345000I-249999J0D01*
G01*
G37*
%TD*%
%TO.C,R4*%
G36*
G01*
X111944999Y-118145000D02*
X112845001Y-118145000D01*
G75*
G02*
X113095000Y-118394999I0J-249999D01*
G01*
X113095000Y-119095001D01*
G75*
G02*
X112845001Y-119345000I-249999J0D01*
G01*
X111944999Y-119345000D01*
G75*
G02*
X111695000Y-119095001I0J249999D01*
G01*
X111695000Y-118394999D01*
G75*
G02*
X111944999Y-118145000I249999J0D01*
G01*
G37*
G36*
G01*
X111944999Y-120145000D02*
X112845001Y-120145000D01*
G75*
G02*
X113095000Y-120394999I0J-249999D01*
G01*
X113095000Y-121095001D01*
G75*
G02*
X112845001Y-121345000I-249999J0D01*
G01*
X111944999Y-121345000D01*
G75*
G02*
X111695000Y-121095001I0J249999D01*
G01*
X111695000Y-120394999D01*
G75*
G02*
X111944999Y-120145000I249999J0D01*
G01*
G37*
%TD*%
%TO.C,R5*%
G36*
G01*
X117659999Y-120145000D02*
X118560001Y-120145000D01*
G75*
G02*
X118810000Y-120394999I0J-249999D01*
G01*
X118810000Y-121095001D01*
G75*
G02*
X118560001Y-121345000I-249999J0D01*
G01*
X117659999Y-121345000D01*
G75*
G02*
X117410000Y-121095001I0J249999D01*
G01*
X117410000Y-120394999D01*
G75*
G02*
X117659999Y-120145000I249999J0D01*
G01*
G37*
G36*
G01*
X117659999Y-118145000D02*
X118560001Y-118145000D01*
G75*
G02*
X118810000Y-118394999I0J-249999D01*
G01*
X118810000Y-119095001D01*
G75*
G02*
X118560001Y-119345000I-249999J0D01*
G01*
X117659999Y-119345000D01*
G75*
G02*
X117410000Y-119095001I0J249999D01*
G01*
X117410000Y-118394999D01*
G75*
G02*
X117659999Y-118145000I249999J0D01*
G01*
G37*
%TD*%
%TO.C,R10*%
G36*
G01*
X114970000Y-126815001D02*
X114970000Y-125914999D01*
G75*
G02*
X115219999Y-125665000I249999J0D01*
G01*
X115920001Y-125665000D01*
G75*
G02*
X116170000Y-125914999I0J-249999D01*
G01*
X116170000Y-126815001D01*
G75*
G02*
X115920001Y-127065000I-249999J0D01*
G01*
X115219999Y-127065000D01*
G75*
G02*
X114970000Y-126815001I0J249999D01*
G01*
G37*
G36*
G01*
X112970000Y-126815001D02*
X112970000Y-125914999D01*
G75*
G02*
X113219999Y-125665000I249999J0D01*
G01*
X113920001Y-125665000D01*
G75*
G02*
X114170000Y-125914999I0J-249999D01*
G01*
X114170000Y-126815001D01*
G75*
G02*
X113920001Y-127065000I-249999J0D01*
G01*
X113219999Y-127065000D01*
G75*
G02*
X112970000Y-126815001I0J249999D01*
G01*
G37*
%TD*%
%TO.C,R11*%
G36*
G01*
X120590000Y-112210001D02*
X120590000Y-111309999D01*
G75*
G02*
X120839999Y-111060000I249999J0D01*
G01*
X121540001Y-111060000D01*
G75*
G02*
X121790000Y-111309999I0J-249999D01*
G01*
X121790000Y-112210001D01*
G75*
G02*
X121540001Y-112460000I-249999J0D01*
G01*
X120839999Y-112460000D01*
G75*
G02*
X120590000Y-112210001I0J249999D01*
G01*
G37*
G36*
G01*
X122590000Y-112210001D02*
X122590000Y-111309999D01*
G75*
G02*
X122839999Y-111060000I249999J0D01*
G01*
X123540001Y-111060000D01*
G75*
G02*
X123790000Y-111309999I0J-249999D01*
G01*
X123790000Y-112210001D01*
G75*
G02*
X123540001Y-112460000I-249999J0D01*
G01*
X122839999Y-112460000D01*
G75*
G02*
X122590000Y-112210001I0J249999D01*
G01*
G37*
%TD*%
%TO.C,R12*%
G36*
G01*
X110525000Y-128720001D02*
X110525000Y-127819999D01*
G75*
G02*
X110774999Y-127570000I249999J0D01*
G01*
X111475001Y-127570000D01*
G75*
G02*
X111725000Y-127819999I0J-249999D01*
G01*
X111725000Y-128720001D01*
G75*
G02*
X111475001Y-128970000I-249999J0D01*
G01*
X110774999Y-128970000D01*
G75*
G02*
X110525000Y-128720001I0J249999D01*
G01*
G37*
G36*
G01*
X108525000Y-128720001D02*
X108525000Y-127819999D01*
G75*
G02*
X108774999Y-127570000I249999J0D01*
G01*
X109475001Y-127570000D01*
G75*
G02*
X109725000Y-127819999I0J-249999D01*
G01*
X109725000Y-128720001D01*
G75*
G02*
X109475001Y-128970000I-249999J0D01*
G01*
X108774999Y-128970000D01*
G75*
G02*
X108525000Y-128720001I0J249999D01*
G01*
G37*
%TD*%
D10*
%TO.C,Q1*%
X115665000Y-115255000D03*
X113665000Y-114305000D03*
X113665000Y-116205000D03*
%TD*%
%TO.C,Q2*%
X111760000Y-112400000D03*
X111760000Y-114300000D03*
X109760000Y-113350000D03*
%TD*%
%TO.C,R9*%
G36*
G01*
X109255000Y-116655001D02*
X109255000Y-115754999D01*
G75*
G02*
X109504999Y-115505000I249999J0D01*
G01*
X110205001Y-115505000D01*
G75*
G02*
X110455000Y-115754999I0J-249999D01*
G01*
X110455000Y-116655001D01*
G75*
G02*
X110205001Y-116905000I-249999J0D01*
G01*
X109504999Y-116905000D01*
G75*
G02*
X109255000Y-116655001I0J249999D01*
G01*
G37*
G36*
G01*
X111255000Y-116655001D02*
X111255000Y-115754999D01*
G75*
G02*
X111504999Y-115505000I249999J0D01*
G01*
X112205001Y-115505000D01*
G75*
G02*
X112455000Y-115754999I0J-249999D01*
G01*
X112455000Y-116655001D01*
G75*
G02*
X112205001Y-116905000I-249999J0D01*
G01*
X111504999Y-116905000D01*
G75*
G02*
X111255000Y-116655001I0J249999D01*
G01*
G37*
%TD*%
%TO.C,C10*%
G36*
G01*
X118527500Y-125890000D02*
X118527500Y-126840000D01*
G75*
G02*
X118277500Y-127090000I-250000J0D01*
G01*
X117602500Y-127090000D01*
G75*
G02*
X117352500Y-126840000I0J250000D01*
G01*
X117352500Y-125890000D01*
G75*
G02*
X117602500Y-125640000I250000J0D01*
G01*
X118277500Y-125640000D01*
G75*
G02*
X118527500Y-125890000I0J-250000D01*
G01*
G37*
G36*
G01*
X120602500Y-125890000D02*
X120602500Y-126840000D01*
G75*
G02*
X120352500Y-127090000I-250000J0D01*
G01*
X119677500Y-127090000D01*
G75*
G02*
X119427500Y-126840000I0J250000D01*
G01*
X119427500Y-125890000D01*
G75*
G02*
X119677500Y-125640000I250000J0D01*
G01*
X120352500Y-125640000D01*
G75*
G02*
X120602500Y-125890000I0J-250000D01*
G01*
G37*
%TD*%
M02*
