%TF.GenerationSoftware,KiCad,Pcbnew,(5.1.9)-1*%
%TF.CreationDate,2021-09-13T16:04:34+07:00*%
%TF.ProjectId,Nano X ESP V3,4e616e6f-2058-4204-9553-502056332e6b,rev?*%
%TF.SameCoordinates,Original*%
%TF.FileFunction,Soldermask,Top*%
%TF.FilePolarity,Negative*%
%FSLAX46Y46*%
G04 Gerber Fmt 4.6, Leading zero omitted, Abs format (unit mm)*
G04 Created by KiCad (PCBNEW (5.1.9)-1) date 2021-09-13 16:04:34*
%MOMM*%
%LPD*%
G01*
G04 APERTURE LIST*
%ADD10R,1.000000X2.500000*%
%ADD11R,3.800000X2.000000*%
%ADD12R,1.500000X2.000000*%
%ADD13R,1.000000X2.000000*%
%ADD14R,1.600000X0.550000*%
%ADD15R,0.550000X1.600000*%
%ADD16R,1.600000X2.180000*%
%ADD17R,2.180000X1.600000*%
%ADD18R,1.050000X2.200000*%
%ADD19R,1.000000X1.000000*%
%ADD20R,2.000000X4.500000*%
%ADD21O,2.000000X2.000000*%
%ADD22O,1.740000X2.190000*%
%ADD23O,2.190000X1.740000*%
%ADD24C,4.300000*%
G04 APERTURE END LIST*
D10*
%TO.C,U3*%
X108765000Y-108605000D03*
X110765000Y-108605000D03*
X112765000Y-108605000D03*
X114765000Y-108605000D03*
X116765000Y-108605000D03*
X118765000Y-108605000D03*
X120765000Y-108605000D03*
X122765000Y-108605000D03*
X122765000Y-123805000D03*
X120765000Y-123805000D03*
X118765000Y-123805000D03*
X116765000Y-123805000D03*
X114765000Y-123805000D03*
X112765000Y-123805000D03*
X110765000Y-123805000D03*
X108765000Y-123805000D03*
%TD*%
%TO.C,C4*%
G36*
G01*
X144620000Y-107902500D02*
X143670000Y-107902500D01*
G75*
G02*
X143420000Y-107652500I0J250000D01*
G01*
X143420000Y-106977500D01*
G75*
G02*
X143670000Y-106727500I250000J0D01*
G01*
X144620000Y-106727500D01*
G75*
G02*
X144870000Y-106977500I0J-250000D01*
G01*
X144870000Y-107652500D01*
G75*
G02*
X144620000Y-107902500I-250000J0D01*
G01*
G37*
G36*
G01*
X144620000Y-105827500D02*
X143670000Y-105827500D01*
G75*
G02*
X143420000Y-105577500I0J250000D01*
G01*
X143420000Y-104902500D01*
G75*
G02*
X143670000Y-104652500I250000J0D01*
G01*
X144620000Y-104652500D01*
G75*
G02*
X144870000Y-104902500I0J-250000D01*
G01*
X144870000Y-105577500D01*
G75*
G02*
X144620000Y-105827500I-250000J0D01*
G01*
G37*
%TD*%
D11*
%TO.C,U1*%
X138430000Y-100965000D03*
D12*
X138430000Y-107265000D03*
X140730000Y-107265000D03*
X136130000Y-107265000D03*
%TD*%
%TO.C,R1*%
G36*
G01*
X146650000Y-125914999D02*
X146650000Y-126815001D01*
G75*
G02*
X146400001Y-127065000I-249999J0D01*
G01*
X145699999Y-127065000D01*
G75*
G02*
X145450000Y-126815001I0J249999D01*
G01*
X145450000Y-125914999D01*
G75*
G02*
X145699999Y-125665000I249999J0D01*
G01*
X146400001Y-125665000D01*
G75*
G02*
X146650000Y-125914999I0J-249999D01*
G01*
G37*
G36*
G01*
X148650000Y-125914999D02*
X148650000Y-126815001D01*
G75*
G02*
X148400001Y-127065000I-249999J0D01*
G01*
X147699999Y-127065000D01*
G75*
G02*
X147450000Y-126815001I0J249999D01*
G01*
X147450000Y-125914999D01*
G75*
G02*
X147699999Y-125665000I249999J0D01*
G01*
X148400001Y-125665000D01*
G75*
G02*
X148650000Y-125914999I0J-249999D01*
G01*
G37*
%TD*%
D13*
%TO.C,U4*%
X159370000Y-121540000D03*
X161370000Y-121540000D03*
X163370000Y-121540000D03*
X165370000Y-121540000D03*
X167370000Y-121540000D03*
X169370000Y-121540000D03*
X171370000Y-121540000D03*
X173370000Y-121540000D03*
X173370000Y-137540000D03*
X171370000Y-137540000D03*
X169370000Y-137540000D03*
X167370000Y-137540000D03*
X165370000Y-137540000D03*
X163370000Y-137540000D03*
X161370000Y-137540000D03*
X159370000Y-137540000D03*
%TD*%
%TO.C,C2*%
G36*
G01*
X128147500Y-138905000D02*
X128147500Y-137955000D01*
G75*
G02*
X128397500Y-137705000I250000J0D01*
G01*
X129072500Y-137705000D01*
G75*
G02*
X129322500Y-137955000I0J-250000D01*
G01*
X129322500Y-138905000D01*
G75*
G02*
X129072500Y-139155000I-250000J0D01*
G01*
X128397500Y-139155000D01*
G75*
G02*
X128147500Y-138905000I0J250000D01*
G01*
G37*
G36*
G01*
X130222500Y-138905000D02*
X130222500Y-137955000D01*
G75*
G02*
X130472500Y-137705000I250000J0D01*
G01*
X131147500Y-137705000D01*
G75*
G02*
X131397500Y-137955000I0J-250000D01*
G01*
X131397500Y-138905000D01*
G75*
G02*
X131147500Y-139155000I-250000J0D01*
G01*
X130472500Y-139155000D01*
G75*
G02*
X130222500Y-138905000I0J250000D01*
G01*
G37*
%TD*%
%TO.C,C1*%
G36*
G01*
X148712500Y-123350000D02*
X148712500Y-124300000D01*
G75*
G02*
X148462500Y-124550000I-250000J0D01*
G01*
X147787500Y-124550000D01*
G75*
G02*
X147537500Y-124300000I0J250000D01*
G01*
X147537500Y-123350000D01*
G75*
G02*
X147787500Y-123100000I250000J0D01*
G01*
X148462500Y-123100000D01*
G75*
G02*
X148712500Y-123350000I0J-250000D01*
G01*
G37*
G36*
G01*
X146637500Y-123350000D02*
X146637500Y-124300000D01*
G75*
G02*
X146387500Y-124550000I-250000J0D01*
G01*
X145712500Y-124550000D01*
G75*
G02*
X145462500Y-124300000I0J250000D01*
G01*
X145462500Y-123350000D01*
G75*
G02*
X145712500Y-123100000I250000J0D01*
G01*
X146387500Y-123100000D01*
G75*
G02*
X146637500Y-123350000I0J-250000D01*
G01*
G37*
%TD*%
%TO.C,C3*%
G36*
G01*
X128857500Y-121445000D02*
X128857500Y-122395000D01*
G75*
G02*
X128607500Y-122645000I-250000J0D01*
G01*
X127932500Y-122645000D01*
G75*
G02*
X127682500Y-122395000I0J250000D01*
G01*
X127682500Y-121445000D01*
G75*
G02*
X127932500Y-121195000I250000J0D01*
G01*
X128607500Y-121195000D01*
G75*
G02*
X128857500Y-121445000I0J-250000D01*
G01*
G37*
G36*
G01*
X130932500Y-121445000D02*
X130932500Y-122395000D01*
G75*
G02*
X130682500Y-122645000I-250000J0D01*
G01*
X130007500Y-122645000D01*
G75*
G02*
X129757500Y-122395000I0J250000D01*
G01*
X129757500Y-121445000D01*
G75*
G02*
X130007500Y-121195000I250000J0D01*
G01*
X130682500Y-121195000D01*
G75*
G02*
X130932500Y-121445000I0J-250000D01*
G01*
G37*
%TD*%
%TO.C,C5*%
G36*
G01*
X147537500Y-130015000D02*
X147537500Y-129065000D01*
G75*
G02*
X147787500Y-128815000I250000J0D01*
G01*
X148462500Y-128815000D01*
G75*
G02*
X148712500Y-129065000I0J-250000D01*
G01*
X148712500Y-130015000D01*
G75*
G02*
X148462500Y-130265000I-250000J0D01*
G01*
X147787500Y-130265000D01*
G75*
G02*
X147537500Y-130015000I0J250000D01*
G01*
G37*
G36*
G01*
X145462500Y-130015000D02*
X145462500Y-129065000D01*
G75*
G02*
X145712500Y-128815000I250000J0D01*
G01*
X146387500Y-128815000D01*
G75*
G02*
X146637500Y-129065000I0J-250000D01*
G01*
X146637500Y-130015000D01*
G75*
G02*
X146387500Y-130265000I-250000J0D01*
G01*
X145712500Y-130265000D01*
G75*
G02*
X145462500Y-130015000I0J250000D01*
G01*
G37*
%TD*%
D14*
%TO.C,U2*%
X134180000Y-126740000D03*
X134180000Y-127540000D03*
X134180000Y-128340000D03*
X134180000Y-129140000D03*
X134180000Y-129940000D03*
X134180000Y-130740000D03*
X134180000Y-131540000D03*
X134180000Y-132340000D03*
D15*
X135630000Y-133790000D03*
X136430000Y-133790000D03*
X137230000Y-133790000D03*
X138030000Y-133790000D03*
X138830000Y-133790000D03*
X139630000Y-133790000D03*
X140430000Y-133790000D03*
X141230000Y-133790000D03*
D14*
X142680000Y-132340000D03*
X142680000Y-131540000D03*
X142680000Y-130740000D03*
X142680000Y-129940000D03*
X142680000Y-129140000D03*
X142680000Y-128340000D03*
X142680000Y-127540000D03*
X142680000Y-126740000D03*
D15*
X141230000Y-125290000D03*
X140430000Y-125290000D03*
X139630000Y-125290000D03*
X138830000Y-125290000D03*
X138030000Y-125290000D03*
X137230000Y-125290000D03*
X136430000Y-125290000D03*
X135630000Y-125290000D03*
%TD*%
D16*
%TO.C,SW1*%
X154305000Y-125440000D03*
X154305000Y-134620000D03*
%TD*%
D17*
%TO.C,SW2*%
X120650000Y-139700000D03*
X111470000Y-139700000D03*
%TD*%
D18*
%TO.C,AE1*%
X191340000Y-125525000D03*
X188390000Y-125525000D03*
D19*
X189865000Y-127025000D03*
X189865000Y-124025000D03*
%TD*%
%TO.C,C7*%
G36*
G01*
X145462500Y-136365000D02*
X145462500Y-135415000D01*
G75*
G02*
X145712500Y-135165000I250000J0D01*
G01*
X146387500Y-135165000D01*
G75*
G02*
X146637500Y-135415000I0J-250000D01*
G01*
X146637500Y-136365000D01*
G75*
G02*
X146387500Y-136615000I-250000J0D01*
G01*
X145712500Y-136615000D01*
G75*
G02*
X145462500Y-136365000I0J250000D01*
G01*
G37*
G36*
G01*
X147537500Y-136365000D02*
X147537500Y-135415000D01*
G75*
G02*
X147787500Y-135165000I250000J0D01*
G01*
X148462500Y-135165000D01*
G75*
G02*
X148712500Y-135415000I0J-250000D01*
G01*
X148712500Y-136365000D01*
G75*
G02*
X148462500Y-136615000I-250000J0D01*
G01*
X147787500Y-136615000D01*
G75*
G02*
X147537500Y-136365000I0J250000D01*
G01*
G37*
%TD*%
%TO.C,C8*%
G36*
G01*
X145462500Y-133825000D02*
X145462500Y-132875000D01*
G75*
G02*
X145712500Y-132625000I250000J0D01*
G01*
X146387500Y-132625000D01*
G75*
G02*
X146637500Y-132875000I0J-250000D01*
G01*
X146637500Y-133825000D01*
G75*
G02*
X146387500Y-134075000I-250000J0D01*
G01*
X145712500Y-134075000D01*
G75*
G02*
X145462500Y-133825000I0J250000D01*
G01*
G37*
G36*
G01*
X147537500Y-133825000D02*
X147537500Y-132875000D01*
G75*
G02*
X147787500Y-132625000I250000J0D01*
G01*
X148462500Y-132625000D01*
G75*
G02*
X148712500Y-132875000I0J-250000D01*
G01*
X148712500Y-133825000D01*
G75*
G02*
X148462500Y-134075000I-250000J0D01*
G01*
X147787500Y-134075000D01*
G75*
G02*
X147537500Y-133825000I0J250000D01*
G01*
G37*
%TD*%
D20*
%TO.C,Y1*%
X128905000Y-134230000D03*
X128905000Y-125730000D03*
%TD*%
D21*
%TO.C,U5*%
X158115000Y-114540000D03*
X158115000Y-112000000D03*
X158115000Y-109460000D03*
X158115000Y-106920000D03*
X158115000Y-104380000D03*
X158115000Y-101840000D03*
X179615000Y-116840000D03*
X179615000Y-114300000D03*
X179615000Y-111760000D03*
X179615000Y-109220000D03*
X179615000Y-106680000D03*
X179615000Y-104140000D03*
%TD*%
D22*
%TO.C,J1*%
X122950000Y-130810000D03*
X120410000Y-130810000D03*
X117870000Y-130810000D03*
X115330000Y-130810000D03*
X112790000Y-130810000D03*
G36*
G01*
X109380000Y-131655001D02*
X109380000Y-129964999D01*
G75*
G02*
X109629999Y-129715000I249999J0D01*
G01*
X110870001Y-129715000D01*
G75*
G02*
X111120000Y-129964999I0J-249999D01*
G01*
X111120000Y-131655001D01*
G75*
G02*
X110870001Y-131905000I-249999J0D01*
G01*
X109629999Y-131905000D01*
G75*
G02*
X109380000Y-131655001I0J249999D01*
G01*
G37*
%TD*%
%TO.C,J3*%
G36*
G01*
X154970000Y-116629999D02*
X154970000Y-118320001D01*
G75*
G02*
X154720001Y-118570000I-249999J0D01*
G01*
X153479999Y-118570000D01*
G75*
G02*
X153230000Y-118320001I0J249999D01*
G01*
X153230000Y-116629999D01*
G75*
G02*
X153479999Y-116380000I249999J0D01*
G01*
X154720001Y-116380000D01*
G75*
G02*
X154970000Y-116629999I0J-249999D01*
G01*
G37*
X151560000Y-117475000D03*
X149020000Y-117475000D03*
X146480000Y-117475000D03*
X143940000Y-117475000D03*
X141400000Y-117475000D03*
X138860000Y-117475000D03*
X136320000Y-117475000D03*
X133780000Y-117475000D03*
X131240000Y-117475000D03*
X128700000Y-117475000D03*
%TD*%
%TO.C,J2*%
G36*
G01*
X123425000Y-102024999D02*
X123425000Y-103715001D01*
G75*
G02*
X123175001Y-103965000I-249999J0D01*
G01*
X121934999Y-103965000D01*
G75*
G02*
X121685000Y-103715001I0J249999D01*
G01*
X121685000Y-102024999D01*
G75*
G02*
X121934999Y-101775000I249999J0D01*
G01*
X123175001Y-101775000D01*
G75*
G02*
X123425000Y-102024999I0J-249999D01*
G01*
G37*
X120015000Y-102870000D03*
X117475000Y-102870000D03*
X114935000Y-102870000D03*
X112395000Y-102870000D03*
X109855000Y-102870000D03*
%TD*%
%TO.C,J4*%
X154180000Y-142875000D03*
X151640000Y-142875000D03*
X149100000Y-142875000D03*
X146560000Y-142875000D03*
X144020000Y-142875000D03*
X141480000Y-142875000D03*
X138940000Y-142875000D03*
X136400000Y-142875000D03*
X133860000Y-142875000D03*
X131320000Y-142875000D03*
G36*
G01*
X127910000Y-143720001D02*
X127910000Y-142029999D01*
G75*
G02*
X128159999Y-141780000I249999J0D01*
G01*
X129400001Y-141780000D01*
G75*
G02*
X129650000Y-142029999I0J-249999D01*
G01*
X129650000Y-143720001D01*
G75*
G02*
X129400001Y-143970000I-249999J0D01*
G01*
X128159999Y-143970000D01*
G75*
G02*
X127910000Y-143720001I0J249999D01*
G01*
G37*
%TD*%
%TO.C,J5*%
X142240000Y-92075000D03*
X144780000Y-92075000D03*
X147320000Y-92075000D03*
X149860000Y-92075000D03*
X152400000Y-92075000D03*
G36*
G01*
X155810000Y-91229999D02*
X155810000Y-92920001D01*
G75*
G02*
X155560001Y-93170000I-249999J0D01*
G01*
X154319999Y-93170000D01*
G75*
G02*
X154070000Y-92920001I0J249999D01*
G01*
X154070000Y-91229999D01*
G75*
G02*
X154319999Y-90980000I249999J0D01*
G01*
X155560001Y-90980000D01*
G75*
G02*
X155810000Y-91229999I0J-249999D01*
G01*
G37*
%TD*%
%TO.C,J6*%
G36*
G01*
X163430000Y-91229999D02*
X163430000Y-92920001D01*
G75*
G02*
X163180001Y-93170000I-249999J0D01*
G01*
X161939999Y-93170000D01*
G75*
G02*
X161690000Y-92920001I0J249999D01*
G01*
X161690000Y-91229999D01*
G75*
G02*
X161939999Y-90980000I249999J0D01*
G01*
X163180001Y-90980000D01*
G75*
G02*
X163430000Y-91229999I0J-249999D01*
G01*
G37*
X160020000Y-92075000D03*
%TD*%
%TO.C,J7*%
X124460000Y-92075000D03*
G36*
G01*
X127870000Y-91229999D02*
X127870000Y-92920001D01*
G75*
G02*
X127620001Y-93170000I-249999J0D01*
G01*
X126379999Y-93170000D01*
G75*
G02*
X126130000Y-92920001I0J249999D01*
G01*
X126130000Y-91229999D01*
G75*
G02*
X126379999Y-90980000I249999J0D01*
G01*
X127620001Y-90980000D01*
G75*
G02*
X127870000Y-91229999I0J-249999D01*
G01*
G37*
%TD*%
%TO.C,J8*%
G36*
G01*
X158515000Y-143720001D02*
X158515000Y-142029999D01*
G75*
G02*
X158764999Y-141780000I249999J0D01*
G01*
X160005001Y-141780000D01*
G75*
G02*
X160255000Y-142029999I0J-249999D01*
G01*
X160255000Y-143720001D01*
G75*
G02*
X160005001Y-143970000I-249999J0D01*
G01*
X158764999Y-143970000D01*
G75*
G02*
X158515000Y-143720001I0J249999D01*
G01*
G37*
X161925000Y-142875000D03*
X164465000Y-142875000D03*
X167005000Y-142875000D03*
X169545000Y-142875000D03*
X172085000Y-142875000D03*
%TD*%
D23*
%TO.C,J9*%
X180340000Y-125095000D03*
X180340000Y-127635000D03*
X180340000Y-130175000D03*
G36*
G01*
X181185001Y-133585000D02*
X179494999Y-133585000D01*
G75*
G02*
X179245000Y-133335001I0J249999D01*
G01*
X179245000Y-132094999D01*
G75*
G02*
X179494999Y-131845000I249999J0D01*
G01*
X181185001Y-131845000D01*
G75*
G02*
X181435000Y-132094999I0J-249999D01*
G01*
X181435000Y-133335001D01*
G75*
G02*
X181185001Y-133585000I-249999J0D01*
G01*
G37*
%TD*%
%TO.C,J10*%
G36*
G01*
X138030000Y-91229999D02*
X138030000Y-92920001D01*
G75*
G02*
X137780001Y-93170000I-249999J0D01*
G01*
X136539999Y-93170000D01*
G75*
G02*
X136290000Y-92920001I0J249999D01*
G01*
X136290000Y-91229999D01*
G75*
G02*
X136539999Y-90980000I249999J0D01*
G01*
X137780001Y-90980000D01*
G75*
G02*
X138030000Y-91229999I0J-249999D01*
G01*
G37*
D22*
X134620000Y-92075000D03*
X132080000Y-92075000D03*
%TD*%
%TO.C,C6*%
G36*
G01*
X132289999Y-104227500D02*
X133140001Y-104227500D01*
G75*
G02*
X133390000Y-104477499I0J-249999D01*
G01*
X133390000Y-105377501D01*
G75*
G02*
X133140001Y-105627500I-249999J0D01*
G01*
X132289999Y-105627500D01*
G75*
G02*
X132040000Y-105377501I0J249999D01*
G01*
X132040000Y-104477499D01*
G75*
G02*
X132289999Y-104227500I249999J0D01*
G01*
G37*
G36*
G01*
X132289999Y-106927500D02*
X133140001Y-106927500D01*
G75*
G02*
X133390000Y-107177499I0J-249999D01*
G01*
X133390000Y-108077501D01*
G75*
G02*
X133140001Y-108327500I-249999J0D01*
G01*
X132289999Y-108327500D01*
G75*
G02*
X132040000Y-108077501I0J249999D01*
G01*
X132040000Y-107177499D01*
G75*
G02*
X132289999Y-106927500I249999J0D01*
G01*
G37*
%TD*%
D24*
%TO.C,H1*%
X184725000Y-117750000D03*
%TD*%
%TO.C,H2*%
X104775000Y-117750000D03*
%TD*%
M02*
