%TF.GenerationSoftware,KiCad,Pcbnew,(5.1.9)-1*%
%TF.CreationDate,2021-09-13T16:04:34+07:00*%
%TF.ProjectId,Nano X ESP V3,4e616e6f-2058-4204-9553-502056332e6b,rev?*%
%TF.SameCoordinates,Original*%
%TF.FileFunction,Profile,NP*%
%FSLAX46Y46*%
G04 Gerber Fmt 4.6, Leading zero omitted, Abs format (unit mm)*
G04 Created by KiCad (PCBNEW (5.1.9)-1) date 2021-09-13 16:04:34*
%MOMM*%
%LPD*%
G01*
G04 APERTURE LIST*
%TA.AperFunction,Profile*%
%ADD10C,0.200000*%
%TD*%
G04 APERTURE END LIST*
D10*
X110785000Y-88745000D02*
G75*
G02*
X100785000Y-98745000I-10000000J0D01*
G01*
X110785000Y-85745000D02*
G75*
G02*
X112785000Y-83745000I2000000J0D01*
G01*
X95785000Y-100745000D02*
G75*
G02*
X97785000Y-98745000I2000000J0D01*
G01*
X110785000Y-85745000D02*
X110785000Y-88745000D01*
X176785000Y-83745000D02*
X112785000Y-83745000D01*
X176785000Y-83745000D02*
G75*
G02*
X178785000Y-85745000I0J-2000000D01*
G01*
X191785000Y-98745000D02*
G75*
G02*
X193785000Y-100745000I0J-2000000D01*
G01*
X178785000Y-146745000D02*
G75*
G02*
X188785000Y-136745000I10000000J0D01*
G01*
X112785000Y-151745000D02*
G75*
G02*
X110785000Y-149745000I0J2000000D01*
G01*
X97785000Y-136745000D02*
X100785000Y-136745000D01*
X100785000Y-98745000D02*
X97785000Y-98745000D01*
X178785000Y-149745000D02*
G75*
G02*
X176785000Y-151745000I-2000000J0D01*
G01*
X178785000Y-88745000D02*
X178785000Y-85745000D01*
X193785000Y-134745000D02*
G75*
G02*
X191785000Y-136745000I-2000000J0D01*
G01*
X188785000Y-98745000D02*
G75*
G02*
X178785000Y-88745000I0J10000000D01*
G01*
X191785000Y-98745000D02*
X188785000Y-98745000D01*
X193785000Y-134745000D02*
X193785000Y-100745000D01*
X188785000Y-136745000D02*
X191785000Y-136745000D01*
X110785000Y-146745000D02*
X110785000Y-149745000D01*
X100785000Y-136745000D02*
G75*
G02*
X110785000Y-146745000I0J-10000000D01*
G01*
X178785000Y-149745000D02*
X178785000Y-146745000D01*
X112785000Y-151745000D02*
X176785000Y-151745000D01*
X97785000Y-136745000D02*
G75*
G02*
X95785000Y-134745000I0J2000000D01*
G01*
X95785000Y-100745000D02*
X95785000Y-134745000D01*
M02*
