%TF.GenerationSoftware,KiCad,Pcbnew,(5.1.9)-1*%
%TF.CreationDate,2021-09-13T16:04:34+07:00*%
%TF.ProjectId,Nano X ESP V3,4e616e6f-2058-4204-9553-502056332e6b,rev?*%
%TF.SameCoordinates,Original*%
%TF.FileFunction,Legend,Bot*%
%TF.FilePolarity,Positive*%
%FSLAX46Y46*%
G04 Gerber Fmt 4.6, Leading zero omitted, Abs format (unit mm)*
G04 Created by KiCad (PCBNEW (5.1.9)-1) date 2021-09-13 16:04:34*
%MOMM*%
%LPD*%
G01*
G04 APERTURE LIST*
%ADD10C,0.125000*%
%ADD11C,0.120000*%
%ADD12C,0.010000*%
%ADD13C,0.150000*%
%ADD14C,0.075000*%
%ADD15C,0.100000*%
G04 APERTURE END LIST*
D10*
X99256904Y-100732142D02*
X99256904Y-101189285D01*
X100056904Y-100960714D02*
X99256904Y-100960714D01*
X100056904Y-101455952D02*
X99256904Y-101455952D01*
X100056904Y-101798809D02*
X99637857Y-101798809D01*
X99561666Y-101760714D01*
X99523571Y-101684523D01*
X99523571Y-101570238D01*
X99561666Y-101494047D01*
X99599761Y-101455952D01*
X100056904Y-102179761D02*
X99523571Y-102179761D01*
X99256904Y-102179761D02*
X99295000Y-102141666D01*
X99333095Y-102179761D01*
X99295000Y-102217857D01*
X99256904Y-102179761D01*
X99333095Y-102179761D01*
X100018809Y-102522619D02*
X100056904Y-102598809D01*
X100056904Y-102751190D01*
X100018809Y-102827380D01*
X99942619Y-102865476D01*
X99904523Y-102865476D01*
X99828333Y-102827380D01*
X99790238Y-102751190D01*
X99790238Y-102636904D01*
X99752142Y-102560714D01*
X99675952Y-102522619D01*
X99637857Y-102522619D01*
X99561666Y-102560714D01*
X99523571Y-102636904D01*
X99523571Y-102751190D01*
X99561666Y-102827380D01*
X100056904Y-103817857D02*
X99256904Y-103817857D01*
X99561666Y-103817857D02*
X99523571Y-103894047D01*
X99523571Y-104046428D01*
X99561666Y-104122619D01*
X99599761Y-104160714D01*
X99675952Y-104198809D01*
X99904523Y-104198809D01*
X99980714Y-104160714D01*
X100018809Y-104122619D01*
X100056904Y-104046428D01*
X100056904Y-103894047D01*
X100018809Y-103817857D01*
X100056904Y-104655952D02*
X100018809Y-104579761D01*
X99980714Y-104541666D01*
X99904523Y-104503571D01*
X99675952Y-104503571D01*
X99599761Y-104541666D01*
X99561666Y-104579761D01*
X99523571Y-104655952D01*
X99523571Y-104770238D01*
X99561666Y-104846428D01*
X99599761Y-104884523D01*
X99675952Y-104922619D01*
X99904523Y-104922619D01*
X99980714Y-104884523D01*
X100018809Y-104846428D01*
X100056904Y-104770238D01*
X100056904Y-104655952D01*
X100056904Y-105608333D02*
X99637857Y-105608333D01*
X99561666Y-105570238D01*
X99523571Y-105494047D01*
X99523571Y-105341666D01*
X99561666Y-105265476D01*
X100018809Y-105608333D02*
X100056904Y-105532142D01*
X100056904Y-105341666D01*
X100018809Y-105265476D01*
X99942619Y-105227380D01*
X99866428Y-105227380D01*
X99790238Y-105265476D01*
X99752142Y-105341666D01*
X99752142Y-105532142D01*
X99714047Y-105608333D01*
X100056904Y-105989285D02*
X99523571Y-105989285D01*
X99675952Y-105989285D02*
X99599761Y-106027380D01*
X99561666Y-106065476D01*
X99523571Y-106141666D01*
X99523571Y-106217857D01*
X100056904Y-106827380D02*
X99256904Y-106827380D01*
X100018809Y-106827380D02*
X100056904Y-106751190D01*
X100056904Y-106598809D01*
X100018809Y-106522619D01*
X99980714Y-106484523D01*
X99904523Y-106446428D01*
X99675952Y-106446428D01*
X99599761Y-106484523D01*
X99561666Y-106522619D01*
X99523571Y-106598809D01*
X99523571Y-106751190D01*
X99561666Y-106827380D01*
X99523571Y-107741666D02*
X100056904Y-107932142D01*
X99523571Y-108122619D01*
X100018809Y-108732142D02*
X100056904Y-108655952D01*
X100056904Y-108503571D01*
X100018809Y-108427380D01*
X99942619Y-108389285D01*
X99637857Y-108389285D01*
X99561666Y-108427380D01*
X99523571Y-108503571D01*
X99523571Y-108655952D01*
X99561666Y-108732142D01*
X99637857Y-108770238D01*
X99714047Y-108770238D01*
X99790238Y-108389285D01*
X100056904Y-109113095D02*
X99523571Y-109113095D01*
X99675952Y-109113095D02*
X99599761Y-109151190D01*
X99561666Y-109189285D01*
X99523571Y-109265476D01*
X99523571Y-109341666D01*
X100018809Y-109570238D02*
X100056904Y-109646428D01*
X100056904Y-109798809D01*
X100018809Y-109875000D01*
X99942619Y-109913095D01*
X99904523Y-109913095D01*
X99828333Y-109875000D01*
X99790238Y-109798809D01*
X99790238Y-109684523D01*
X99752142Y-109608333D01*
X99675952Y-109570238D01*
X99637857Y-109570238D01*
X99561666Y-109608333D01*
X99523571Y-109684523D01*
X99523571Y-109798809D01*
X99561666Y-109875000D01*
X100056904Y-110255952D02*
X99523571Y-110255952D01*
X99256904Y-110255952D02*
X99295000Y-110217857D01*
X99333095Y-110255952D01*
X99295000Y-110294047D01*
X99256904Y-110255952D01*
X99333095Y-110255952D01*
X100056904Y-110751190D02*
X100018809Y-110675000D01*
X99980714Y-110636904D01*
X99904523Y-110598809D01*
X99675952Y-110598809D01*
X99599761Y-110636904D01*
X99561666Y-110675000D01*
X99523571Y-110751190D01*
X99523571Y-110865476D01*
X99561666Y-110941666D01*
X99599761Y-110979761D01*
X99675952Y-111017857D01*
X99904523Y-111017857D01*
X99980714Y-110979761D01*
X100018809Y-110941666D01*
X100056904Y-110865476D01*
X100056904Y-110751190D01*
X99523571Y-111360714D02*
X100056904Y-111360714D01*
X99599761Y-111360714D02*
X99561666Y-111398809D01*
X99523571Y-111475000D01*
X99523571Y-111589285D01*
X99561666Y-111665476D01*
X99637857Y-111703571D01*
X100056904Y-111703571D01*
X100056904Y-112694047D02*
X99256904Y-112694047D01*
X99256904Y-112884523D01*
X99295000Y-112998809D01*
X99371190Y-113075000D01*
X99447380Y-113113095D01*
X99599761Y-113151190D01*
X99714047Y-113151190D01*
X99866428Y-113113095D01*
X99942619Y-113075000D01*
X100018809Y-112998809D01*
X100056904Y-112884523D01*
X100056904Y-112694047D01*
X100018809Y-113798809D02*
X100056904Y-113722619D01*
X100056904Y-113570238D01*
X100018809Y-113494047D01*
X99942619Y-113455952D01*
X99637857Y-113455952D01*
X99561666Y-113494047D01*
X99523571Y-113570238D01*
X99523571Y-113722619D01*
X99561666Y-113798809D01*
X99637857Y-113836904D01*
X99714047Y-113836904D01*
X99790238Y-113455952D01*
X99523571Y-114103571D02*
X100056904Y-114294047D01*
X99523571Y-114484523D01*
X100018809Y-115094047D02*
X100056904Y-115017857D01*
X100056904Y-114865476D01*
X100018809Y-114789285D01*
X99942619Y-114751190D01*
X99637857Y-114751190D01*
X99561666Y-114789285D01*
X99523571Y-114865476D01*
X99523571Y-115017857D01*
X99561666Y-115094047D01*
X99637857Y-115132142D01*
X99714047Y-115132142D01*
X99790238Y-114751190D01*
X100056904Y-115589285D02*
X100018809Y-115513095D01*
X99942619Y-115475000D01*
X99256904Y-115475000D01*
X100056904Y-116008333D02*
X100018809Y-115932142D01*
X99980714Y-115894047D01*
X99904523Y-115855952D01*
X99675952Y-115855952D01*
X99599761Y-115894047D01*
X99561666Y-115932142D01*
X99523571Y-116008333D01*
X99523571Y-116122619D01*
X99561666Y-116198809D01*
X99599761Y-116236904D01*
X99675952Y-116275000D01*
X99904523Y-116275000D01*
X99980714Y-116236904D01*
X100018809Y-116198809D01*
X100056904Y-116122619D01*
X100056904Y-116008333D01*
X99523571Y-116617857D02*
X100323571Y-116617857D01*
X99561666Y-116617857D02*
X99523571Y-116694047D01*
X99523571Y-116846428D01*
X99561666Y-116922619D01*
X99599761Y-116960714D01*
X99675952Y-116998809D01*
X99904523Y-116998809D01*
X99980714Y-116960714D01*
X100018809Y-116922619D01*
X100056904Y-116846428D01*
X100056904Y-116694047D01*
X100018809Y-116617857D01*
X100018809Y-117646428D02*
X100056904Y-117570238D01*
X100056904Y-117417857D01*
X100018809Y-117341666D01*
X99942619Y-117303571D01*
X99637857Y-117303571D01*
X99561666Y-117341666D01*
X99523571Y-117417857D01*
X99523571Y-117570238D01*
X99561666Y-117646428D01*
X99637857Y-117684523D01*
X99714047Y-117684523D01*
X99790238Y-117303571D01*
X100056904Y-118370238D02*
X99256904Y-118370238D01*
X100018809Y-118370238D02*
X100056904Y-118294047D01*
X100056904Y-118141666D01*
X100018809Y-118065476D01*
X99980714Y-118027380D01*
X99904523Y-117989285D01*
X99675952Y-117989285D01*
X99599761Y-118027380D01*
X99561666Y-118065476D01*
X99523571Y-118141666D01*
X99523571Y-118294047D01*
X99561666Y-118370238D01*
X99523571Y-119284523D02*
X100056904Y-119436904D01*
X99675952Y-119589285D01*
X100056904Y-119741666D01*
X99523571Y-119894047D01*
X100056904Y-120198809D02*
X99523571Y-120198809D01*
X99256904Y-120198809D02*
X99295000Y-120160714D01*
X99333095Y-120198809D01*
X99295000Y-120236904D01*
X99256904Y-120198809D01*
X99333095Y-120198809D01*
X99523571Y-120465476D02*
X99523571Y-120770238D01*
X99256904Y-120579761D02*
X99942619Y-120579761D01*
X100018809Y-120617857D01*
X100056904Y-120694047D01*
X100056904Y-120770238D01*
X100056904Y-121036904D02*
X99256904Y-121036904D01*
X100056904Y-121379761D02*
X99637857Y-121379761D01*
X99561666Y-121341666D01*
X99523571Y-121265476D01*
X99523571Y-121151190D01*
X99561666Y-121075000D01*
X99599761Y-121036904D01*
X100056904Y-122484523D02*
X100018809Y-122408333D01*
X99942619Y-122370238D01*
X99256904Y-122370238D01*
X100056904Y-122903571D02*
X100018809Y-122827380D01*
X99980714Y-122789285D01*
X99904523Y-122751190D01*
X99675952Y-122751190D01*
X99599761Y-122789285D01*
X99561666Y-122827380D01*
X99523571Y-122903571D01*
X99523571Y-123017857D01*
X99561666Y-123094047D01*
X99599761Y-123132142D01*
X99675952Y-123170238D01*
X99904523Y-123170238D01*
X99980714Y-123132142D01*
X100018809Y-123094047D01*
X100056904Y-123017857D01*
X100056904Y-122903571D01*
X99523571Y-123436904D02*
X100056904Y-123627380D01*
X99523571Y-123817857D01*
X100018809Y-124427380D02*
X100056904Y-124351190D01*
X100056904Y-124198809D01*
X100018809Y-124122619D01*
X99942619Y-124084523D01*
X99637857Y-124084523D01*
X99561666Y-124122619D01*
X99523571Y-124198809D01*
X99523571Y-124351190D01*
X99561666Y-124427380D01*
X99637857Y-124465476D01*
X99714047Y-124465476D01*
X99790238Y-124084523D01*
X99523571Y-125303571D02*
X99523571Y-125608333D01*
X100056904Y-125417857D02*
X99371190Y-125417857D01*
X99295000Y-125455952D01*
X99256904Y-125532142D01*
X99256904Y-125608333D01*
X100056904Y-125875000D02*
X99523571Y-125875000D01*
X99675952Y-125875000D02*
X99599761Y-125913095D01*
X99561666Y-125951190D01*
X99523571Y-126027380D01*
X99523571Y-126103571D01*
X100056904Y-126484523D02*
X100018809Y-126408333D01*
X99980714Y-126370238D01*
X99904523Y-126332142D01*
X99675952Y-126332142D01*
X99599761Y-126370238D01*
X99561666Y-126408333D01*
X99523571Y-126484523D01*
X99523571Y-126598809D01*
X99561666Y-126675000D01*
X99599761Y-126713095D01*
X99675952Y-126751190D01*
X99904523Y-126751190D01*
X99980714Y-126713095D01*
X100018809Y-126675000D01*
X100056904Y-126598809D01*
X100056904Y-126484523D01*
X100056904Y-127094047D02*
X99523571Y-127094047D01*
X99599761Y-127094047D02*
X99561666Y-127132142D01*
X99523571Y-127208333D01*
X99523571Y-127322619D01*
X99561666Y-127398809D01*
X99637857Y-127436904D01*
X100056904Y-127436904D01*
X99637857Y-127436904D02*
X99561666Y-127475000D01*
X99523571Y-127551190D01*
X99523571Y-127665476D01*
X99561666Y-127741666D01*
X99637857Y-127779761D01*
X100056904Y-127779761D01*
X100056904Y-128770238D02*
X99256904Y-128770238D01*
X99523571Y-129151190D02*
X100056904Y-129151190D01*
X99599761Y-129151190D02*
X99561666Y-129189285D01*
X99523571Y-129265476D01*
X99523571Y-129379761D01*
X99561666Y-129455952D01*
X99637857Y-129494047D01*
X100056904Y-129494047D01*
X100056904Y-130217857D02*
X99256904Y-130217857D01*
X100018809Y-130217857D02*
X100056904Y-130141666D01*
X100056904Y-129989285D01*
X100018809Y-129913095D01*
X99980714Y-129875000D01*
X99904523Y-129836904D01*
X99675952Y-129836904D01*
X99599761Y-129875000D01*
X99561666Y-129913095D01*
X99523571Y-129989285D01*
X99523571Y-130141666D01*
X99561666Y-130217857D01*
X100056904Y-130713095D02*
X100018809Y-130636904D01*
X99980714Y-130598809D01*
X99904523Y-130560714D01*
X99675952Y-130560714D01*
X99599761Y-130598809D01*
X99561666Y-130636904D01*
X99523571Y-130713095D01*
X99523571Y-130827380D01*
X99561666Y-130903571D01*
X99599761Y-130941666D01*
X99675952Y-130979761D01*
X99904523Y-130979761D01*
X99980714Y-130941666D01*
X100018809Y-130903571D01*
X100056904Y-130827380D01*
X100056904Y-130713095D01*
X99523571Y-131322619D02*
X100056904Y-131322619D01*
X99599761Y-131322619D02*
X99561666Y-131360714D01*
X99523571Y-131436904D01*
X99523571Y-131551190D01*
X99561666Y-131627380D01*
X99637857Y-131665476D01*
X100056904Y-131665476D01*
X100018809Y-132351190D02*
X100056904Y-132275000D01*
X100056904Y-132122619D01*
X100018809Y-132046428D01*
X99942619Y-132008333D01*
X99637857Y-132008333D01*
X99561666Y-132046428D01*
X99523571Y-132122619D01*
X99523571Y-132275000D01*
X99561666Y-132351190D01*
X99637857Y-132389285D01*
X99714047Y-132389285D01*
X99790238Y-132008333D01*
X100018809Y-132694047D02*
X100056904Y-132770238D01*
X100056904Y-132922619D01*
X100018809Y-132998809D01*
X99942619Y-133036904D01*
X99904523Y-133036904D01*
X99828333Y-132998809D01*
X99790238Y-132922619D01*
X99790238Y-132808333D01*
X99752142Y-132732142D01*
X99675952Y-132694047D01*
X99637857Y-132694047D01*
X99561666Y-132732142D01*
X99523571Y-132808333D01*
X99523571Y-132922619D01*
X99561666Y-132998809D01*
X100056904Y-133379761D02*
X99523571Y-133379761D01*
X99256904Y-133379761D02*
X99295000Y-133341666D01*
X99333095Y-133379761D01*
X99295000Y-133417857D01*
X99256904Y-133379761D01*
X99333095Y-133379761D01*
X100056904Y-134103571D02*
X99637857Y-134103571D01*
X99561666Y-134065476D01*
X99523571Y-133989285D01*
X99523571Y-133836904D01*
X99561666Y-133760714D01*
X100018809Y-134103571D02*
X100056904Y-134027380D01*
X100056904Y-133836904D01*
X100018809Y-133760714D01*
X99942619Y-133722619D01*
X99866428Y-133722619D01*
X99790238Y-133760714D01*
X99752142Y-133836904D01*
X99752142Y-134027380D01*
X99714047Y-134103571D01*
D11*
%TO.C,JP6*%
X146540000Y-103840000D02*
X146540000Y-104440000D01*
X148640000Y-103140000D02*
X147240000Y-103140000D01*
X149340000Y-104440000D02*
X149340000Y-103840000D01*
X147240000Y-105140000D02*
X148640000Y-105140000D01*
X148640000Y-105140000D02*
G75*
G03*
X149340000Y-104440000I0J700000D01*
G01*
X149340000Y-103840000D02*
G75*
G03*
X148640000Y-103140000I-700000J0D01*
G01*
X147240000Y-103140000D02*
G75*
G03*
X146540000Y-103840000I0J-700000D01*
G01*
X146540000Y-104440000D02*
G75*
G03*
X147240000Y-105140000I700000J0D01*
G01*
%TO.C,JP4*%
X143145000Y-105360000D02*
X143145000Y-106760000D01*
X143845000Y-107460000D02*
X144445000Y-107460000D01*
X145145000Y-106760000D02*
X145145000Y-105360000D01*
X144445000Y-104660000D02*
X143845000Y-104660000D01*
X143845000Y-104660000D02*
G75*
G03*
X143145000Y-105360000I0J-700000D01*
G01*
X145145000Y-105360000D02*
G75*
G03*
X144445000Y-104660000I-700000J0D01*
G01*
X144445000Y-107460000D02*
G75*
G03*
X145145000Y-106760000I0J700000D01*
G01*
X143145000Y-106760000D02*
G75*
G03*
X143845000Y-107460000I700000J0D01*
G01*
%TO.C,JP1*%
X133015000Y-104630000D02*
X132415000Y-104630000D01*
X133715000Y-106730000D02*
X133715000Y-105330000D01*
X132415000Y-107430000D02*
X133015000Y-107430000D01*
X131715000Y-105330000D02*
X131715000Y-106730000D01*
X131715000Y-106730000D02*
G75*
G03*
X132415000Y-107430000I700000J0D01*
G01*
X133015000Y-107430000D02*
G75*
G03*
X133715000Y-106730000I0J700000D01*
G01*
X133715000Y-105330000D02*
G75*
G03*
X133015000Y-104630000I-700000J0D01*
G01*
X132415000Y-104630000D02*
G75*
G03*
X131715000Y-105330000I0J-700000D01*
G01*
%TO.C,JP3*%
X140635000Y-104630000D02*
X140035000Y-104630000D01*
X141335000Y-106730000D02*
X141335000Y-105330000D01*
X140035000Y-107430000D02*
X140635000Y-107430000D01*
X139335000Y-105330000D02*
X139335000Y-106730000D01*
X139335000Y-106730000D02*
G75*
G03*
X140035000Y-107430000I700000J0D01*
G01*
X140635000Y-107430000D02*
G75*
G03*
X141335000Y-106730000I0J700000D01*
G01*
X141335000Y-105330000D02*
G75*
G03*
X140635000Y-104630000I-700000J0D01*
G01*
X140035000Y-104630000D02*
G75*
G03*
X139335000Y-105330000I0J-700000D01*
G01*
%TO.C,JP5*%
X147255000Y-108315000D02*
X148655000Y-108315000D01*
X149355000Y-107615000D02*
X149355000Y-107015000D01*
X148655000Y-106315000D02*
X147255000Y-106315000D01*
X146555000Y-107015000D02*
X146555000Y-107615000D01*
X146555000Y-107615000D02*
G75*
G03*
X147255000Y-108315000I700000J0D01*
G01*
X147255000Y-106315000D02*
G75*
G03*
X146555000Y-107015000I0J-700000D01*
G01*
X149355000Y-107015000D02*
G75*
G03*
X148655000Y-106315000I-700000J0D01*
G01*
X148655000Y-108315000D02*
G75*
G03*
X149355000Y-107615000I0J700000D01*
G01*
%TO.C,R8*%
X114437936Y-111660000D02*
X114892064Y-111660000D01*
X114437936Y-113130000D02*
X114892064Y-113130000D01*
%TO.C,C9*%
X110348752Y-126465000D02*
X109826248Y-126465000D01*
X110348752Y-124995000D02*
X109826248Y-124995000D01*
%TO.C,C11*%
X123683752Y-127100000D02*
X123161248Y-127100000D01*
X123683752Y-125630000D02*
X123161248Y-125630000D01*
%TO.C,JP2*%
X135525000Y-105330000D02*
X135525000Y-106730000D01*
X136225000Y-107430000D02*
X136825000Y-107430000D01*
X137525000Y-106730000D02*
X137525000Y-105330000D01*
X136825000Y-104630000D02*
X136225000Y-104630000D01*
X136225000Y-104630000D02*
G75*
G03*
X135525000Y-105330000I0J-700000D01*
G01*
X137525000Y-105330000D02*
G75*
G03*
X136825000Y-104630000I-700000J0D01*
G01*
X136825000Y-107430000D02*
G75*
G03*
X137525000Y-106730000I0J700000D01*
G01*
X135525000Y-106730000D02*
G75*
G03*
X136225000Y-107430000I700000J0D01*
G01*
%TO.C,R2*%
X109120000Y-119972064D02*
X109120000Y-119517936D01*
X110590000Y-119972064D02*
X110590000Y-119517936D01*
%TO.C,R3*%
X116305000Y-119972064D02*
X116305000Y-119517936D01*
X114835000Y-119972064D02*
X114835000Y-119517936D01*
%TO.C,R4*%
X111660000Y-119517936D02*
X111660000Y-119972064D01*
X113130000Y-119517936D02*
X113130000Y-119972064D01*
%TO.C,R5*%
X118845000Y-119517936D02*
X118845000Y-119972064D01*
X117375000Y-119517936D02*
X117375000Y-119972064D01*
%TO.C,R10*%
X114342936Y-125630000D02*
X114797064Y-125630000D01*
X114342936Y-127100000D02*
X114797064Y-127100000D01*
%TO.C,R11*%
X121962936Y-112495000D02*
X122417064Y-112495000D01*
X121962936Y-111025000D02*
X122417064Y-111025000D01*
%TO.C,R12*%
X109897936Y-127535000D02*
X110352064Y-127535000D01*
X109897936Y-129005000D02*
X110352064Y-129005000D01*
%TO.C,Q1*%
X115425000Y-113675000D02*
X115425000Y-114605000D01*
X115425000Y-116835000D02*
X115425000Y-115905000D01*
X115425000Y-116835000D02*
X113265000Y-116835000D01*
X115425000Y-113675000D02*
X113965000Y-113675000D01*
%TO.C,Q2*%
X110000000Y-114930000D02*
X111460000Y-114930000D01*
X110000000Y-111770000D02*
X112160000Y-111770000D01*
X110000000Y-111770000D02*
X110000000Y-112700000D01*
X110000000Y-114930000D02*
X110000000Y-114000000D01*
%TO.C,R9*%
X110627936Y-115470000D02*
X111082064Y-115470000D01*
X110627936Y-116940000D02*
X111082064Y-116940000D01*
%TO.C,C10*%
X119238752Y-127100000D02*
X118716248Y-127100000D01*
X119238752Y-125630000D02*
X118716248Y-125630000D01*
D12*
%TO.C,.2*%
G36*
X169015619Y-127594187D02*
G01*
X168991215Y-127606915D01*
X168968836Y-127620418D01*
X168947697Y-127635743D01*
X168927017Y-127653938D01*
X168906011Y-127676049D01*
X168883898Y-127703125D01*
X168859894Y-127736211D01*
X168833216Y-127776356D01*
X168803082Y-127824605D01*
X168768709Y-127882008D01*
X168729314Y-127949610D01*
X168684113Y-128028459D01*
X168662289Y-128066800D01*
X168579800Y-128211943D01*
X168579800Y-128273629D01*
X168582219Y-128322374D01*
X168589795Y-128360809D01*
X168593428Y-128371600D01*
X168600038Y-128386336D01*
X168612870Y-128412244D01*
X168631304Y-128448189D01*
X168654725Y-128493040D01*
X168682514Y-128545664D01*
X168714055Y-128604927D01*
X168748731Y-128669698D01*
X168785923Y-128738843D01*
X168825016Y-128811230D01*
X168865392Y-128885725D01*
X168906434Y-128961196D01*
X168947524Y-129036510D01*
X168988045Y-129110535D01*
X169027381Y-129182137D01*
X169064913Y-129250184D01*
X169100025Y-129313542D01*
X169132100Y-129371080D01*
X169160520Y-129421664D01*
X169184669Y-129464162D01*
X169203928Y-129497440D01*
X169217681Y-129520366D01*
X169225311Y-129531807D01*
X169225929Y-129532503D01*
X169238594Y-129544976D01*
X169250283Y-129555232D01*
X169262516Y-129563498D01*
X169276812Y-129570007D01*
X169294690Y-129574987D01*
X169317671Y-129578671D01*
X169347274Y-129581287D01*
X169385019Y-129583066D01*
X169432425Y-129584239D01*
X169491011Y-129585036D01*
X169562299Y-129585687D01*
X169577657Y-129585816D01*
X169849800Y-129588088D01*
X169920094Y-129698301D01*
X169990388Y-129808515D01*
X169876551Y-129810858D01*
X169843674Y-129811253D01*
X169798624Y-129811378D01*
X169743741Y-129811246D01*
X169681363Y-129810873D01*
X169613830Y-129810274D01*
X169543479Y-129809464D01*
X169472651Y-129808456D01*
X169457154Y-129808208D01*
X169151595Y-129803214D01*
X169091089Y-129700636D01*
X169075940Y-129674781D01*
X169054479Y-129637903D01*
X169027614Y-129591573D01*
X168996250Y-129537360D01*
X168961296Y-129476834D01*
X168923659Y-129411565D01*
X168884244Y-129343123D01*
X168843959Y-129273077D01*
X168822198Y-129235200D01*
X168783546Y-129168067D01*
X168746594Y-129104209D01*
X168712048Y-129044829D01*
X168680618Y-128991131D01*
X168653012Y-128944316D01*
X168629939Y-128905587D01*
X168612108Y-128876148D01*
X168600226Y-128857202D01*
X168595621Y-128850572D01*
X168577431Y-128828800D01*
X168436795Y-128826569D01*
X168388192Y-128825864D01*
X168351905Y-128825637D01*
X168325742Y-128826078D01*
X168307507Y-128827376D01*
X168295007Y-128829722D01*
X168286048Y-128833307D01*
X168278434Y-128838319D01*
X168275564Y-128840538D01*
X168265423Y-128849147D01*
X168259568Y-128857723D01*
X168257164Y-128870037D01*
X168257373Y-128889859D01*
X168258975Y-128915341D01*
X168259997Y-128931152D01*
X168261047Y-128945288D01*
X168262576Y-128958644D01*
X168265037Y-128972117D01*
X168268881Y-128986600D01*
X168274559Y-129002990D01*
X168282523Y-129022182D01*
X168293224Y-129045072D01*
X168307115Y-129072555D01*
X168324647Y-129105526D01*
X168346271Y-129144881D01*
X168372439Y-129191515D01*
X168403602Y-129246323D01*
X168440213Y-129310202D01*
X168482722Y-129384046D01*
X168531582Y-129468751D01*
X168583165Y-129558143D01*
X168636075Y-129649714D01*
X168682399Y-129729549D01*
X168722694Y-129798542D01*
X168757521Y-129857592D01*
X168787437Y-129907594D01*
X168813003Y-129949446D01*
X168834777Y-129984043D01*
X168853317Y-130012282D01*
X168869183Y-130035059D01*
X168882934Y-130053272D01*
X168895128Y-130067816D01*
X168906325Y-130079589D01*
X168911068Y-130084111D01*
X168952794Y-130118588D01*
X168993755Y-130142551D01*
X169038544Y-130158004D01*
X169091752Y-130166948D01*
X169103691Y-130168122D01*
X169120448Y-130168980D01*
X169149896Y-130169775D01*
X169190668Y-130170503D01*
X169241398Y-130171164D01*
X169300721Y-130171754D01*
X169367270Y-130172272D01*
X169439680Y-130172715D01*
X169516583Y-130173082D01*
X169596615Y-130173370D01*
X169678409Y-130173577D01*
X169760599Y-130173701D01*
X169841819Y-130173740D01*
X169920704Y-130173692D01*
X169995886Y-130173554D01*
X170066000Y-130173326D01*
X170129680Y-130173003D01*
X170185561Y-130172585D01*
X170232274Y-130172069D01*
X170268456Y-130171453D01*
X170292740Y-130170735D01*
X170303371Y-130169987D01*
X170362067Y-130154472D01*
X170409709Y-130129930D01*
X170445908Y-130097181D01*
X170470275Y-130057044D01*
X170482422Y-130010339D01*
X170481958Y-129957884D01*
X170468495Y-129900499D01*
X170451396Y-129858401D01*
X170442560Y-129841951D01*
X170427038Y-129815448D01*
X170405856Y-129780491D01*
X170380038Y-129738680D01*
X170350609Y-129691614D01*
X170318594Y-129640892D01*
X170285019Y-129588115D01*
X170250908Y-129534882D01*
X170217286Y-129482792D01*
X170185177Y-129433445D01*
X170155608Y-129388441D01*
X170129603Y-129349378D01*
X170108187Y-129317858D01*
X170092384Y-129295478D01*
X170083256Y-129283877D01*
X170063518Y-129267064D01*
X170037439Y-129249652D01*
X170020433Y-129240334D01*
X169980428Y-129220686D01*
X169720471Y-129217058D01*
X169460514Y-129213429D01*
X169210262Y-128751454D01*
X168960011Y-128289479D01*
X169012099Y-128196283D01*
X169036442Y-128153176D01*
X169063964Y-128105153D01*
X169091248Y-128058140D01*
X169114385Y-128018888D01*
X169164583Y-127934691D01*
X169467277Y-127930254D01*
X169543767Y-127929364D01*
X169625616Y-127928822D01*
X169709439Y-127928623D01*
X169791853Y-127928761D01*
X169869474Y-127929233D01*
X169938917Y-127930033D01*
X169990131Y-127930995D01*
X170210291Y-127936172D01*
X170226285Y-127954769D01*
X170235121Y-127967236D01*
X170249374Y-127989871D01*
X170267495Y-128020110D01*
X170287940Y-128055386D01*
X170302842Y-128081769D01*
X170359309Y-128182453D01*
X170413720Y-128278707D01*
X170464885Y-128368447D01*
X170511617Y-128449591D01*
X170552729Y-128520056D01*
X170553527Y-128521412D01*
X170576580Y-128560662D01*
X170599894Y-128600496D01*
X170621180Y-128636995D01*
X170638151Y-128666240D01*
X170642517Y-128673812D01*
X170659430Y-128703061D01*
X170680585Y-128739441D01*
X170702856Y-128777580D01*
X170717175Y-128802007D01*
X170761115Y-128876815D01*
X170727818Y-128939893D01*
X170705979Y-128980167D01*
X170689217Y-129008279D01*
X170676689Y-129025322D01*
X170667550Y-129032385D01*
X170660956Y-129030559D01*
X170659305Y-129028372D01*
X170653344Y-129019364D01*
X170640470Y-129000302D01*
X170621983Y-128973098D01*
X170599185Y-128939664D01*
X170573375Y-128901913D01*
X170563237Y-128887108D01*
X170532030Y-128841981D01*
X170507249Y-128807310D01*
X170487462Y-128781350D01*
X170471235Y-128762353D01*
X170457137Y-128748574D01*
X170443735Y-128738265D01*
X170438224Y-128734708D01*
X170402533Y-128712686D01*
X170166081Y-128708069D01*
X170106445Y-128706907D01*
X170049337Y-128705801D01*
X169996942Y-128704791D01*
X169951445Y-128703919D01*
X169915031Y-128703229D01*
X169889886Y-128702760D01*
X169882413Y-128702626D01*
X169835197Y-128701800D01*
X169775370Y-128593970D01*
X169755664Y-128558193D01*
X169738691Y-128526878D01*
X169725607Y-128502200D01*
X169717567Y-128486333D01*
X169715542Y-128481485D01*
X169722513Y-128480353D01*
X169742278Y-128479320D01*
X169773118Y-128478421D01*
X169813315Y-128477691D01*
X169861147Y-128477164D01*
X169914896Y-128476874D01*
X169947244Y-128476829D01*
X170178946Y-128476829D01*
X170193987Y-128457707D01*
X170204507Y-128440462D01*
X170209025Y-128425377D01*
X170209028Y-128425096D01*
X170205890Y-128414936D01*
X170197094Y-128393870D01*
X170183567Y-128363923D01*
X170166237Y-128327124D01*
X170146032Y-128285499D01*
X170134642Y-128262512D01*
X170060257Y-128113418D01*
X169682885Y-128115509D01*
X169305514Y-128117600D01*
X169267232Y-128138810D01*
X169231083Y-128164949D01*
X169207555Y-128196920D01*
X169196895Y-128228126D01*
X169194701Y-128241620D01*
X169194228Y-128255554D01*
X169195977Y-128271049D01*
X169200455Y-128289228D01*
X169208163Y-128311210D01*
X169219607Y-128338117D01*
X169235291Y-128371071D01*
X169255717Y-128411192D01*
X169281390Y-128459601D01*
X169312814Y-128517421D01*
X169350493Y-128585771D01*
X169387984Y-128653291D01*
X169423523Y-128716989D01*
X169457458Y-128777478D01*
X169489038Y-128833442D01*
X169517514Y-128883565D01*
X169542133Y-128926532D01*
X169562145Y-128961027D01*
X169576798Y-128985735D01*
X169585342Y-128999340D01*
X169586311Y-129000691D01*
X169603339Y-129017980D01*
X169627198Y-129036315D01*
X169643913Y-129046701D01*
X169682885Y-129068286D01*
X169965108Y-129071915D01*
X170247330Y-129075543D01*
X170378765Y-129269132D01*
X170411434Y-129317041D01*
X170442187Y-129361744D01*
X170469903Y-129401642D01*
X170493462Y-129435136D01*
X170511740Y-129460625D01*
X170523618Y-129476511D01*
X170526900Y-129480452D01*
X170542743Y-129493974D01*
X170565496Y-129509659D01*
X170581328Y-129519091D01*
X170604258Y-129530518D01*
X170625032Y-129536853D01*
X170649752Y-129539467D01*
X170673485Y-129539816D01*
X170706043Y-129538652D01*
X170730615Y-129534473D01*
X170753641Y-129525863D01*
X170766962Y-129519258D01*
X170788851Y-129506776D01*
X170808898Y-129492565D01*
X170828204Y-129475190D01*
X170847868Y-129453218D01*
X170868988Y-129425217D01*
X170892664Y-129389753D01*
X170919996Y-129345393D01*
X170952083Y-129290704D01*
X170980905Y-129240327D01*
X171019546Y-129171659D01*
X171051176Y-129113686D01*
X171076432Y-129064767D01*
X171095951Y-129023261D01*
X171110371Y-128987527D01*
X171120328Y-128955925D01*
X171126459Y-128926813D01*
X171129401Y-128898550D01*
X171129793Y-128869496D01*
X171129401Y-128857832D01*
X171127359Y-128824243D01*
X171123681Y-128798825D01*
X171116844Y-128775726D01*
X171105325Y-128749095D01*
X171096197Y-128730331D01*
X171077658Y-128694199D01*
X171055685Y-128653283D01*
X171034387Y-128615198D01*
X171029910Y-128607458D01*
X171003023Y-128561344D01*
X170982427Y-128525951D01*
X170967085Y-128499469D01*
X170955959Y-128480088D01*
X170948014Y-128465999D01*
X170942213Y-128455395D01*
X170937519Y-128446464D01*
X170936341Y-128444172D01*
X170924201Y-128422450D01*
X170912724Y-128404258D01*
X170904928Y-128391964D01*
X170891445Y-128369701D01*
X170873444Y-128339480D01*
X170852094Y-128303309D01*
X170828566Y-128263197D01*
X170804029Y-128221155D01*
X170779652Y-128179191D01*
X170756605Y-128139316D01*
X170736058Y-128103539D01*
X170719180Y-128073869D01*
X170707141Y-128052315D01*
X170701110Y-128040888D01*
X170700755Y-128040067D01*
X170693710Y-128025270D01*
X170680423Y-128000528D01*
X170662302Y-127968227D01*
X170640759Y-127930755D01*
X170617202Y-127890499D01*
X170593043Y-127849846D01*
X170569690Y-127811184D01*
X170548555Y-127776900D01*
X170531046Y-127749380D01*
X170518575Y-127731012D01*
X170516832Y-127728677D01*
X170485104Y-127691166D01*
X170449762Y-127655768D01*
X170414245Y-127625590D01*
X170381992Y-127603740D01*
X170373917Y-127599490D01*
X170361741Y-127593782D01*
X170349651Y-127588774D01*
X170336656Y-127584420D01*
X170321768Y-127580674D01*
X170303996Y-127577489D01*
X170282353Y-127574820D01*
X170255849Y-127572621D01*
X170223494Y-127570844D01*
X170184300Y-127569443D01*
X170137277Y-127568373D01*
X170081436Y-127567587D01*
X170015788Y-127567039D01*
X169939344Y-127566683D01*
X169851114Y-127566472D01*
X169750109Y-127566360D01*
X169664368Y-127566313D01*
X169072536Y-127566058D01*
X169015619Y-127594187D01*
G37*
X169015619Y-127594187D02*
X168991215Y-127606915D01*
X168968836Y-127620418D01*
X168947697Y-127635743D01*
X168927017Y-127653938D01*
X168906011Y-127676049D01*
X168883898Y-127703125D01*
X168859894Y-127736211D01*
X168833216Y-127776356D01*
X168803082Y-127824605D01*
X168768709Y-127882008D01*
X168729314Y-127949610D01*
X168684113Y-128028459D01*
X168662289Y-128066800D01*
X168579800Y-128211943D01*
X168579800Y-128273629D01*
X168582219Y-128322374D01*
X168589795Y-128360809D01*
X168593428Y-128371600D01*
X168600038Y-128386336D01*
X168612870Y-128412244D01*
X168631304Y-128448189D01*
X168654725Y-128493040D01*
X168682514Y-128545664D01*
X168714055Y-128604927D01*
X168748731Y-128669698D01*
X168785923Y-128738843D01*
X168825016Y-128811230D01*
X168865392Y-128885725D01*
X168906434Y-128961196D01*
X168947524Y-129036510D01*
X168988045Y-129110535D01*
X169027381Y-129182137D01*
X169064913Y-129250184D01*
X169100025Y-129313542D01*
X169132100Y-129371080D01*
X169160520Y-129421664D01*
X169184669Y-129464162D01*
X169203928Y-129497440D01*
X169217681Y-129520366D01*
X169225311Y-129531807D01*
X169225929Y-129532503D01*
X169238594Y-129544976D01*
X169250283Y-129555232D01*
X169262516Y-129563498D01*
X169276812Y-129570007D01*
X169294690Y-129574987D01*
X169317671Y-129578671D01*
X169347274Y-129581287D01*
X169385019Y-129583066D01*
X169432425Y-129584239D01*
X169491011Y-129585036D01*
X169562299Y-129585687D01*
X169577657Y-129585816D01*
X169849800Y-129588088D01*
X169920094Y-129698301D01*
X169990388Y-129808515D01*
X169876551Y-129810858D01*
X169843674Y-129811253D01*
X169798624Y-129811378D01*
X169743741Y-129811246D01*
X169681363Y-129810873D01*
X169613830Y-129810274D01*
X169543479Y-129809464D01*
X169472651Y-129808456D01*
X169457154Y-129808208D01*
X169151595Y-129803214D01*
X169091089Y-129700636D01*
X169075940Y-129674781D01*
X169054479Y-129637903D01*
X169027614Y-129591573D01*
X168996250Y-129537360D01*
X168961296Y-129476834D01*
X168923659Y-129411565D01*
X168884244Y-129343123D01*
X168843959Y-129273077D01*
X168822198Y-129235200D01*
X168783546Y-129168067D01*
X168746594Y-129104209D01*
X168712048Y-129044829D01*
X168680618Y-128991131D01*
X168653012Y-128944316D01*
X168629939Y-128905587D01*
X168612108Y-128876148D01*
X168600226Y-128857202D01*
X168595621Y-128850572D01*
X168577431Y-128828800D01*
X168436795Y-128826569D01*
X168388192Y-128825864D01*
X168351905Y-128825637D01*
X168325742Y-128826078D01*
X168307507Y-128827376D01*
X168295007Y-128829722D01*
X168286048Y-128833307D01*
X168278434Y-128838319D01*
X168275564Y-128840538D01*
X168265423Y-128849147D01*
X168259568Y-128857723D01*
X168257164Y-128870037D01*
X168257373Y-128889859D01*
X168258975Y-128915341D01*
X168259997Y-128931152D01*
X168261047Y-128945288D01*
X168262576Y-128958644D01*
X168265037Y-128972117D01*
X168268881Y-128986600D01*
X168274559Y-129002990D01*
X168282523Y-129022182D01*
X168293224Y-129045072D01*
X168307115Y-129072555D01*
X168324647Y-129105526D01*
X168346271Y-129144881D01*
X168372439Y-129191515D01*
X168403602Y-129246323D01*
X168440213Y-129310202D01*
X168482722Y-129384046D01*
X168531582Y-129468751D01*
X168583165Y-129558143D01*
X168636075Y-129649714D01*
X168682399Y-129729549D01*
X168722694Y-129798542D01*
X168757521Y-129857592D01*
X168787437Y-129907594D01*
X168813003Y-129949446D01*
X168834777Y-129984043D01*
X168853317Y-130012282D01*
X168869183Y-130035059D01*
X168882934Y-130053272D01*
X168895128Y-130067816D01*
X168906325Y-130079589D01*
X168911068Y-130084111D01*
X168952794Y-130118588D01*
X168993755Y-130142551D01*
X169038544Y-130158004D01*
X169091752Y-130166948D01*
X169103691Y-130168122D01*
X169120448Y-130168980D01*
X169149896Y-130169775D01*
X169190668Y-130170503D01*
X169241398Y-130171164D01*
X169300721Y-130171754D01*
X169367270Y-130172272D01*
X169439680Y-130172715D01*
X169516583Y-130173082D01*
X169596615Y-130173370D01*
X169678409Y-130173577D01*
X169760599Y-130173701D01*
X169841819Y-130173740D01*
X169920704Y-130173692D01*
X169995886Y-130173554D01*
X170066000Y-130173326D01*
X170129680Y-130173003D01*
X170185561Y-130172585D01*
X170232274Y-130172069D01*
X170268456Y-130171453D01*
X170292740Y-130170735D01*
X170303371Y-130169987D01*
X170362067Y-130154472D01*
X170409709Y-130129930D01*
X170445908Y-130097181D01*
X170470275Y-130057044D01*
X170482422Y-130010339D01*
X170481958Y-129957884D01*
X170468495Y-129900499D01*
X170451396Y-129858401D01*
X170442560Y-129841951D01*
X170427038Y-129815448D01*
X170405856Y-129780491D01*
X170380038Y-129738680D01*
X170350609Y-129691614D01*
X170318594Y-129640892D01*
X170285019Y-129588115D01*
X170250908Y-129534882D01*
X170217286Y-129482792D01*
X170185177Y-129433445D01*
X170155608Y-129388441D01*
X170129603Y-129349378D01*
X170108187Y-129317858D01*
X170092384Y-129295478D01*
X170083256Y-129283877D01*
X170063518Y-129267064D01*
X170037439Y-129249652D01*
X170020433Y-129240334D01*
X169980428Y-129220686D01*
X169720471Y-129217058D01*
X169460514Y-129213429D01*
X169210262Y-128751454D01*
X168960011Y-128289479D01*
X169012099Y-128196283D01*
X169036442Y-128153176D01*
X169063964Y-128105153D01*
X169091248Y-128058140D01*
X169114385Y-128018888D01*
X169164583Y-127934691D01*
X169467277Y-127930254D01*
X169543767Y-127929364D01*
X169625616Y-127928822D01*
X169709439Y-127928623D01*
X169791853Y-127928761D01*
X169869474Y-127929233D01*
X169938917Y-127930033D01*
X169990131Y-127930995D01*
X170210291Y-127936172D01*
X170226285Y-127954769D01*
X170235121Y-127967236D01*
X170249374Y-127989871D01*
X170267495Y-128020110D01*
X170287940Y-128055386D01*
X170302842Y-128081769D01*
X170359309Y-128182453D01*
X170413720Y-128278707D01*
X170464885Y-128368447D01*
X170511617Y-128449591D01*
X170552729Y-128520056D01*
X170553527Y-128521412D01*
X170576580Y-128560662D01*
X170599894Y-128600496D01*
X170621180Y-128636995D01*
X170638151Y-128666240D01*
X170642517Y-128673812D01*
X170659430Y-128703061D01*
X170680585Y-128739441D01*
X170702856Y-128777580D01*
X170717175Y-128802007D01*
X170761115Y-128876815D01*
X170727818Y-128939893D01*
X170705979Y-128980167D01*
X170689217Y-129008279D01*
X170676689Y-129025322D01*
X170667550Y-129032385D01*
X170660956Y-129030559D01*
X170659305Y-129028372D01*
X170653344Y-129019364D01*
X170640470Y-129000302D01*
X170621983Y-128973098D01*
X170599185Y-128939664D01*
X170573375Y-128901913D01*
X170563237Y-128887108D01*
X170532030Y-128841981D01*
X170507249Y-128807310D01*
X170487462Y-128781350D01*
X170471235Y-128762353D01*
X170457137Y-128748574D01*
X170443735Y-128738265D01*
X170438224Y-128734708D01*
X170402533Y-128712686D01*
X170166081Y-128708069D01*
X170106445Y-128706907D01*
X170049337Y-128705801D01*
X169996942Y-128704791D01*
X169951445Y-128703919D01*
X169915031Y-128703229D01*
X169889886Y-128702760D01*
X169882413Y-128702626D01*
X169835197Y-128701800D01*
X169775370Y-128593970D01*
X169755664Y-128558193D01*
X169738691Y-128526878D01*
X169725607Y-128502200D01*
X169717567Y-128486333D01*
X169715542Y-128481485D01*
X169722513Y-128480353D01*
X169742278Y-128479320D01*
X169773118Y-128478421D01*
X169813315Y-128477691D01*
X169861147Y-128477164D01*
X169914896Y-128476874D01*
X169947244Y-128476829D01*
X170178946Y-128476829D01*
X170193987Y-128457707D01*
X170204507Y-128440462D01*
X170209025Y-128425377D01*
X170209028Y-128425096D01*
X170205890Y-128414936D01*
X170197094Y-128393870D01*
X170183567Y-128363923D01*
X170166237Y-128327124D01*
X170146032Y-128285499D01*
X170134642Y-128262512D01*
X170060257Y-128113418D01*
X169682885Y-128115509D01*
X169305514Y-128117600D01*
X169267232Y-128138810D01*
X169231083Y-128164949D01*
X169207555Y-128196920D01*
X169196895Y-128228126D01*
X169194701Y-128241620D01*
X169194228Y-128255554D01*
X169195977Y-128271049D01*
X169200455Y-128289228D01*
X169208163Y-128311210D01*
X169219607Y-128338117D01*
X169235291Y-128371071D01*
X169255717Y-128411192D01*
X169281390Y-128459601D01*
X169312814Y-128517421D01*
X169350493Y-128585771D01*
X169387984Y-128653291D01*
X169423523Y-128716989D01*
X169457458Y-128777478D01*
X169489038Y-128833442D01*
X169517514Y-128883565D01*
X169542133Y-128926532D01*
X169562145Y-128961027D01*
X169576798Y-128985735D01*
X169585342Y-128999340D01*
X169586311Y-129000691D01*
X169603339Y-129017980D01*
X169627198Y-129036315D01*
X169643913Y-129046701D01*
X169682885Y-129068286D01*
X169965108Y-129071915D01*
X170247330Y-129075543D01*
X170378765Y-129269132D01*
X170411434Y-129317041D01*
X170442187Y-129361744D01*
X170469903Y-129401642D01*
X170493462Y-129435136D01*
X170511740Y-129460625D01*
X170523618Y-129476511D01*
X170526900Y-129480452D01*
X170542743Y-129493974D01*
X170565496Y-129509659D01*
X170581328Y-129519091D01*
X170604258Y-129530518D01*
X170625032Y-129536853D01*
X170649752Y-129539467D01*
X170673485Y-129539816D01*
X170706043Y-129538652D01*
X170730615Y-129534473D01*
X170753641Y-129525863D01*
X170766962Y-129519258D01*
X170788851Y-129506776D01*
X170808898Y-129492565D01*
X170828204Y-129475190D01*
X170847868Y-129453218D01*
X170868988Y-129425217D01*
X170892664Y-129389753D01*
X170919996Y-129345393D01*
X170952083Y-129290704D01*
X170980905Y-129240327D01*
X171019546Y-129171659D01*
X171051176Y-129113686D01*
X171076432Y-129064767D01*
X171095951Y-129023261D01*
X171110371Y-128987527D01*
X171120328Y-128955925D01*
X171126459Y-128926813D01*
X171129401Y-128898550D01*
X171129793Y-128869496D01*
X171129401Y-128857832D01*
X171127359Y-128824243D01*
X171123681Y-128798825D01*
X171116844Y-128775726D01*
X171105325Y-128749095D01*
X171096197Y-128730331D01*
X171077658Y-128694199D01*
X171055685Y-128653283D01*
X171034387Y-128615198D01*
X171029910Y-128607458D01*
X171003023Y-128561344D01*
X170982427Y-128525951D01*
X170967085Y-128499469D01*
X170955959Y-128480088D01*
X170948014Y-128465999D01*
X170942213Y-128455395D01*
X170937519Y-128446464D01*
X170936341Y-128444172D01*
X170924201Y-128422450D01*
X170912724Y-128404258D01*
X170904928Y-128391964D01*
X170891445Y-128369701D01*
X170873444Y-128339480D01*
X170852094Y-128303309D01*
X170828566Y-128263197D01*
X170804029Y-128221155D01*
X170779652Y-128179191D01*
X170756605Y-128139316D01*
X170736058Y-128103539D01*
X170719180Y-128073869D01*
X170707141Y-128052315D01*
X170701110Y-128040888D01*
X170700755Y-128040067D01*
X170693710Y-128025270D01*
X170680423Y-128000528D01*
X170662302Y-127968227D01*
X170640759Y-127930755D01*
X170617202Y-127890499D01*
X170593043Y-127849846D01*
X170569690Y-127811184D01*
X170548555Y-127776900D01*
X170531046Y-127749380D01*
X170518575Y-127731012D01*
X170516832Y-127728677D01*
X170485104Y-127691166D01*
X170449762Y-127655768D01*
X170414245Y-127625590D01*
X170381992Y-127603740D01*
X170373917Y-127599490D01*
X170361741Y-127593782D01*
X170349651Y-127588774D01*
X170336656Y-127584420D01*
X170321768Y-127580674D01*
X170303996Y-127577489D01*
X170282353Y-127574820D01*
X170255849Y-127572621D01*
X170223494Y-127570844D01*
X170184300Y-127569443D01*
X170137277Y-127568373D01*
X170081436Y-127567587D01*
X170015788Y-127567039D01*
X169939344Y-127566683D01*
X169851114Y-127566472D01*
X169750109Y-127566360D01*
X169664368Y-127566313D01*
X169072536Y-127566058D01*
X169015619Y-127594187D01*
G36*
X166605131Y-127594360D02*
G01*
X166580457Y-127619035D01*
X166580457Y-127897709D01*
X166605131Y-127922383D01*
X166629805Y-127947058D01*
X166781941Y-127947058D01*
X166846164Y-127947458D01*
X166898023Y-127948829D01*
X166939651Y-127951421D01*
X166973182Y-127955485D01*
X167000747Y-127961273D01*
X167024479Y-127969038D01*
X167044543Y-127978033D01*
X167077434Y-127999161D01*
X167103521Y-128026904D01*
X167123406Y-128062724D01*
X167137691Y-128108079D01*
X167146978Y-128164430D01*
X167151869Y-128233235D01*
X167152071Y-128238790D01*
X167155720Y-128345465D01*
X166913445Y-128347647D01*
X166846960Y-128348308D01*
X166793439Y-128349026D01*
X166751333Y-128349891D01*
X166719091Y-128350992D01*
X166695164Y-128352417D01*
X166678001Y-128354255D01*
X166666052Y-128356595D01*
X166657769Y-128359527D01*
X166652332Y-128362631D01*
X166640296Y-128372132D01*
X166631293Y-128383440D01*
X166624894Y-128398689D01*
X166620669Y-128420008D01*
X166618188Y-128449529D01*
X166617023Y-128489385D01*
X166616742Y-128539217D01*
X166616622Y-128586101D01*
X166617119Y-128624657D01*
X166619523Y-128655695D01*
X166625124Y-128680029D01*
X166635212Y-128698471D01*
X166651075Y-128711834D01*
X166674003Y-128720929D01*
X166705286Y-128726570D01*
X166746213Y-128729570D01*
X166798073Y-128730740D01*
X166862156Y-128730893D01*
X166920825Y-128730829D01*
X167153771Y-128730829D01*
X167153771Y-129431504D01*
X167153759Y-129550678D01*
X167153757Y-129656193D01*
X167153813Y-129748904D01*
X167153977Y-129829667D01*
X167154297Y-129899337D01*
X167154824Y-129958769D01*
X167155605Y-130008819D01*
X167156690Y-130050342D01*
X167158128Y-130084193D01*
X167159969Y-130111228D01*
X167162261Y-130132301D01*
X167165053Y-130148268D01*
X167168395Y-130159985D01*
X167172335Y-130168307D01*
X167176923Y-130174088D01*
X167182208Y-130178185D01*
X167188239Y-130181452D01*
X167195066Y-130184746D01*
X167197076Y-130185763D01*
X167211979Y-130189590D01*
X167238702Y-130192666D01*
X167274641Y-130194989D01*
X167317196Y-130196559D01*
X167363765Y-130197375D01*
X167411745Y-130197436D01*
X167458535Y-130196740D01*
X167501533Y-130195288D01*
X167538136Y-130193077D01*
X167565743Y-130190108D01*
X167581752Y-130186378D01*
X167582717Y-130185909D01*
X167589704Y-130182380D01*
X167595888Y-130179272D01*
X167601318Y-130175727D01*
X167606043Y-130170888D01*
X167610111Y-130163899D01*
X167613572Y-130153902D01*
X167616475Y-130140040D01*
X167618867Y-130121457D01*
X167620799Y-130097295D01*
X167622318Y-130066696D01*
X167623474Y-130028805D01*
X167624315Y-129982764D01*
X167624891Y-129927716D01*
X167625249Y-129862804D01*
X167625439Y-129787171D01*
X167625510Y-129699959D01*
X167625510Y-129600313D01*
X167625489Y-129487375D01*
X167625485Y-129435027D01*
X167625485Y-128730829D01*
X167779700Y-128730818D01*
X167843517Y-128730545D01*
X167894308Y-128728896D01*
X167933558Y-128724606D01*
X167962755Y-128716409D01*
X167983385Y-128703042D01*
X167996936Y-128683240D01*
X168004893Y-128655738D01*
X168008744Y-128619273D01*
X168009976Y-128572579D01*
X168010076Y-128534886D01*
X168009762Y-128482694D01*
X168007847Y-128441139D01*
X168002845Y-128409011D01*
X167993271Y-128385096D01*
X167977641Y-128368182D01*
X167954470Y-128357057D01*
X167922272Y-128350508D01*
X167879563Y-128347324D01*
X167824857Y-128346292D01*
X167778953Y-128346200D01*
X167627155Y-128346200D01*
X167623646Y-128199243D01*
X167622068Y-128144286D01*
X167620112Y-128101061D01*
X167617517Y-128066785D01*
X167614023Y-128038679D01*
X167609372Y-128013959D01*
X167604502Y-127994229D01*
X167575286Y-127908547D01*
X167536411Y-127833401D01*
X167487358Y-127768053D01*
X167427610Y-127711765D01*
X167384615Y-127680863D01*
X167338608Y-127653375D01*
X167291626Y-127630485D01*
X167241918Y-127611849D01*
X167187736Y-127597118D01*
X167127328Y-127585945D01*
X167058947Y-127577985D01*
X166980841Y-127572889D01*
X166891261Y-127570310D01*
X166824660Y-127569819D01*
X166629805Y-127569686D01*
X166605131Y-127594360D01*
G37*
X166605131Y-127594360D02*
X166580457Y-127619035D01*
X166580457Y-127897709D01*
X166605131Y-127922383D01*
X166629805Y-127947058D01*
X166781941Y-127947058D01*
X166846164Y-127947458D01*
X166898023Y-127948829D01*
X166939651Y-127951421D01*
X166973182Y-127955485D01*
X167000747Y-127961273D01*
X167024479Y-127969038D01*
X167044543Y-127978033D01*
X167077434Y-127999161D01*
X167103521Y-128026904D01*
X167123406Y-128062724D01*
X167137691Y-128108079D01*
X167146978Y-128164430D01*
X167151869Y-128233235D01*
X167152071Y-128238790D01*
X167155720Y-128345465D01*
X166913445Y-128347647D01*
X166846960Y-128348308D01*
X166793439Y-128349026D01*
X166751333Y-128349891D01*
X166719091Y-128350992D01*
X166695164Y-128352417D01*
X166678001Y-128354255D01*
X166666052Y-128356595D01*
X166657769Y-128359527D01*
X166652332Y-128362631D01*
X166640296Y-128372132D01*
X166631293Y-128383440D01*
X166624894Y-128398689D01*
X166620669Y-128420008D01*
X166618188Y-128449529D01*
X166617023Y-128489385D01*
X166616742Y-128539217D01*
X166616622Y-128586101D01*
X166617119Y-128624657D01*
X166619523Y-128655695D01*
X166625124Y-128680029D01*
X166635212Y-128698471D01*
X166651075Y-128711834D01*
X166674003Y-128720929D01*
X166705286Y-128726570D01*
X166746213Y-128729570D01*
X166798073Y-128730740D01*
X166862156Y-128730893D01*
X166920825Y-128730829D01*
X167153771Y-128730829D01*
X167153771Y-129431504D01*
X167153759Y-129550678D01*
X167153757Y-129656193D01*
X167153813Y-129748904D01*
X167153977Y-129829667D01*
X167154297Y-129899337D01*
X167154824Y-129958769D01*
X167155605Y-130008819D01*
X167156690Y-130050342D01*
X167158128Y-130084193D01*
X167159969Y-130111228D01*
X167162261Y-130132301D01*
X167165053Y-130148268D01*
X167168395Y-130159985D01*
X167172335Y-130168307D01*
X167176923Y-130174088D01*
X167182208Y-130178185D01*
X167188239Y-130181452D01*
X167195066Y-130184746D01*
X167197076Y-130185763D01*
X167211979Y-130189590D01*
X167238702Y-130192666D01*
X167274641Y-130194989D01*
X167317196Y-130196559D01*
X167363765Y-130197375D01*
X167411745Y-130197436D01*
X167458535Y-130196740D01*
X167501533Y-130195288D01*
X167538136Y-130193077D01*
X167565743Y-130190108D01*
X167581752Y-130186378D01*
X167582717Y-130185909D01*
X167589704Y-130182380D01*
X167595888Y-130179272D01*
X167601318Y-130175727D01*
X167606043Y-130170888D01*
X167610111Y-130163899D01*
X167613572Y-130153902D01*
X167616475Y-130140040D01*
X167618867Y-130121457D01*
X167620799Y-130097295D01*
X167622318Y-130066696D01*
X167623474Y-130028805D01*
X167624315Y-129982764D01*
X167624891Y-129927716D01*
X167625249Y-129862804D01*
X167625439Y-129787171D01*
X167625510Y-129699959D01*
X167625510Y-129600313D01*
X167625489Y-129487375D01*
X167625485Y-129435027D01*
X167625485Y-128730829D01*
X167779700Y-128730818D01*
X167843517Y-128730545D01*
X167894308Y-128728896D01*
X167933558Y-128724606D01*
X167962755Y-128716409D01*
X167983385Y-128703042D01*
X167996936Y-128683240D01*
X168004893Y-128655738D01*
X168008744Y-128619273D01*
X168009976Y-128572579D01*
X168010076Y-128534886D01*
X168009762Y-128482694D01*
X168007847Y-128441139D01*
X168002845Y-128409011D01*
X167993271Y-128385096D01*
X167977641Y-128368182D01*
X167954470Y-128357057D01*
X167922272Y-128350508D01*
X167879563Y-128347324D01*
X167824857Y-128346292D01*
X167778953Y-128346200D01*
X167627155Y-128346200D01*
X167623646Y-128199243D01*
X167622068Y-128144286D01*
X167620112Y-128101061D01*
X167617517Y-128066785D01*
X167614023Y-128038679D01*
X167609372Y-128013959D01*
X167604502Y-127994229D01*
X167575286Y-127908547D01*
X167536411Y-127833401D01*
X167487358Y-127768053D01*
X167427610Y-127711765D01*
X167384615Y-127680863D01*
X167338608Y-127653375D01*
X167291626Y-127630485D01*
X167241918Y-127611849D01*
X167187736Y-127597118D01*
X167127328Y-127585945D01*
X167058947Y-127577985D01*
X166980841Y-127572889D01*
X166891261Y-127570310D01*
X166824660Y-127569819D01*
X166629805Y-127569686D01*
X166605131Y-127594360D01*
G36*
X163180823Y-128369335D02*
G01*
X162996570Y-128371600D01*
X162977100Y-128389743D01*
X162968809Y-128399065D01*
X162952654Y-128418690D01*
X162929599Y-128447399D01*
X162900604Y-128483974D01*
X162866633Y-128527195D01*
X162828648Y-128575842D01*
X162787610Y-128628698D01*
X162746469Y-128681961D01*
X162704032Y-128736859D01*
X162664219Y-128788008D01*
X162627912Y-128834301D01*
X162595993Y-128874628D01*
X162569346Y-128907882D01*
X162548852Y-128932952D01*
X162535395Y-128948731D01*
X162529857Y-128954110D01*
X162529836Y-128954104D01*
X162524425Y-128948130D01*
X162511088Y-128931783D01*
X162490725Y-128906212D01*
X162464237Y-128872564D01*
X162432525Y-128831990D01*
X162396491Y-128785636D01*
X162357034Y-128734651D01*
X162320520Y-128687286D01*
X162277969Y-128632151D01*
X162237330Y-128579793D01*
X162199617Y-128531501D01*
X162165850Y-128488564D01*
X162137043Y-128452269D01*
X162114215Y-128423906D01*
X162098381Y-128404764D01*
X162091479Y-128397000D01*
X162066280Y-128371600D01*
X161689432Y-128371600D01*
X161665702Y-128395329D01*
X161650184Y-128413512D01*
X161643579Y-128431018D01*
X161642646Y-128450665D01*
X161650105Y-128487644D01*
X161660428Y-128506765D01*
X161667729Y-128516739D01*
X161683007Y-128537227D01*
X161705469Y-128567180D01*
X161734324Y-128605547D01*
X161768778Y-128651275D01*
X161808041Y-128703315D01*
X161851319Y-128760615D01*
X161897822Y-128822124D01*
X161946756Y-128886791D01*
X161959640Y-128903808D01*
X162241745Y-129276358D01*
X162201837Y-129328351D01*
X162190188Y-129343475D01*
X162170564Y-129368889D01*
X162143881Y-129403410D01*
X162111054Y-129445856D01*
X162072999Y-129495042D01*
X162030631Y-129549786D01*
X161984866Y-129608904D01*
X161936618Y-129671213D01*
X161889295Y-129732315D01*
X161840473Y-129795495D01*
X161794073Y-129855835D01*
X161750903Y-129912262D01*
X161711771Y-129963708D01*
X161677486Y-130009100D01*
X161648857Y-130047369D01*
X161626692Y-130077444D01*
X161611799Y-130098253D01*
X161604987Y-130108728D01*
X161604895Y-130108916D01*
X161597738Y-130139313D01*
X161603408Y-130169257D01*
X161620683Y-130194644D01*
X161633295Y-130204349D01*
X161641236Y-130208629D01*
X161650541Y-130211950D01*
X161663042Y-130214433D01*
X161680572Y-130216199D01*
X161704965Y-130217367D01*
X161738053Y-130218057D01*
X161781670Y-130218391D01*
X161837648Y-130218487D01*
X161848800Y-130218489D01*
X161907305Y-130218412D01*
X161953115Y-130218105D01*
X161988048Y-130217454D01*
X162013921Y-130216344D01*
X162032555Y-130214660D01*
X162045766Y-130212289D01*
X162055373Y-130209115D01*
X162063194Y-130205024D01*
X162063251Y-130204990D01*
X162072015Y-130196645D01*
X162088629Y-130177902D01*
X162112158Y-130149916D01*
X162141667Y-130113842D01*
X162176221Y-130070837D01*
X162214884Y-130022055D01*
X162256723Y-129968651D01*
X162300800Y-129911781D01*
X162305518Y-129905660D01*
X162349069Y-129849148D01*
X162390106Y-129795969D01*
X162427745Y-129747266D01*
X162461101Y-129704180D01*
X162489289Y-129667851D01*
X162511425Y-129639421D01*
X162526624Y-129620032D01*
X162534001Y-129610825D01*
X162534396Y-129610373D01*
X162537990Y-129610241D01*
X162544868Y-129615027D01*
X162555669Y-129625490D01*
X162571029Y-129642389D01*
X162591587Y-129666481D01*
X162617979Y-129698525D01*
X162650844Y-129739278D01*
X162690820Y-129789500D01*
X162738543Y-129849949D01*
X162777018Y-129898904D01*
X162828654Y-129964390D01*
X162875982Y-130023803D01*
X162918341Y-130076343D01*
X162955072Y-130121211D01*
X162985516Y-130157608D01*
X163009012Y-130184733D01*
X163024901Y-130201788D01*
X163031828Y-130207717D01*
X163040964Y-130211137D01*
X163054672Y-130213788D01*
X163074642Y-130215756D01*
X163102568Y-130217129D01*
X163140140Y-130217992D01*
X163189050Y-130218434D01*
X163242536Y-130218543D01*
X163432308Y-130218543D01*
X163456982Y-130193869D01*
X163473332Y-130174602D01*
X163480474Y-130156258D01*
X163481657Y-130139958D01*
X163480473Y-130125661D01*
X163475943Y-130111109D01*
X163466602Y-130093524D01*
X163450985Y-130070133D01*
X163428585Y-130039447D01*
X163417659Y-130024903D01*
X163399088Y-130000332D01*
X163373838Y-129967003D01*
X163342872Y-129926183D01*
X163307154Y-129879139D01*
X163267650Y-129827140D01*
X163225323Y-129771452D01*
X163181138Y-129713344D01*
X163136059Y-129654082D01*
X163091051Y-129594934D01*
X163047078Y-129537169D01*
X163005105Y-129482053D01*
X162966095Y-129430854D01*
X162931013Y-129384840D01*
X162900824Y-129345278D01*
X162876492Y-129313436D01*
X162858981Y-129290581D01*
X162849256Y-129277981D01*
X162849101Y-129277783D01*
X162852016Y-129270098D01*
X162863852Y-129251104D01*
X162884544Y-129220893D01*
X162914024Y-129179554D01*
X162952230Y-129127178D01*
X162999095Y-129063855D01*
X163054554Y-128989675D01*
X163118541Y-128904728D01*
X163127289Y-128893154D01*
X163176835Y-128827512D01*
X163224042Y-128764740D01*
X163268136Y-128705884D01*
X163308340Y-128651988D01*
X163343880Y-128604100D01*
X163373980Y-128563265D01*
X163397865Y-128530529D01*
X163414758Y-128506936D01*
X163423886Y-128493534D01*
X163425012Y-128491623D01*
X163435767Y-128465354D01*
X163436512Y-128442606D01*
X163427395Y-128416532D01*
X163426667Y-128414986D01*
X163419324Y-128401303D01*
X163410631Y-128390500D01*
X163398915Y-128382267D01*
X163382506Y-128376293D01*
X163359731Y-128372269D01*
X163328917Y-128369883D01*
X163288393Y-128368825D01*
X163236487Y-128368785D01*
X163180823Y-128369335D01*
G37*
X163180823Y-128369335D02*
X162996570Y-128371600D01*
X162977100Y-128389743D01*
X162968809Y-128399065D01*
X162952654Y-128418690D01*
X162929599Y-128447399D01*
X162900604Y-128483974D01*
X162866633Y-128527195D01*
X162828648Y-128575842D01*
X162787610Y-128628698D01*
X162746469Y-128681961D01*
X162704032Y-128736859D01*
X162664219Y-128788008D01*
X162627912Y-128834301D01*
X162595993Y-128874628D01*
X162569346Y-128907882D01*
X162548852Y-128932952D01*
X162535395Y-128948731D01*
X162529857Y-128954110D01*
X162529836Y-128954104D01*
X162524425Y-128948130D01*
X162511088Y-128931783D01*
X162490725Y-128906212D01*
X162464237Y-128872564D01*
X162432525Y-128831990D01*
X162396491Y-128785636D01*
X162357034Y-128734651D01*
X162320520Y-128687286D01*
X162277969Y-128632151D01*
X162237330Y-128579793D01*
X162199617Y-128531501D01*
X162165850Y-128488564D01*
X162137043Y-128452269D01*
X162114215Y-128423906D01*
X162098381Y-128404764D01*
X162091479Y-128397000D01*
X162066280Y-128371600D01*
X161689432Y-128371600D01*
X161665702Y-128395329D01*
X161650184Y-128413512D01*
X161643579Y-128431018D01*
X161642646Y-128450665D01*
X161650105Y-128487644D01*
X161660428Y-128506765D01*
X161667729Y-128516739D01*
X161683007Y-128537227D01*
X161705469Y-128567180D01*
X161734324Y-128605547D01*
X161768778Y-128651275D01*
X161808041Y-128703315D01*
X161851319Y-128760615D01*
X161897822Y-128822124D01*
X161946756Y-128886791D01*
X161959640Y-128903808D01*
X162241745Y-129276358D01*
X162201837Y-129328351D01*
X162190188Y-129343475D01*
X162170564Y-129368889D01*
X162143881Y-129403410D01*
X162111054Y-129445856D01*
X162072999Y-129495042D01*
X162030631Y-129549786D01*
X161984866Y-129608904D01*
X161936618Y-129671213D01*
X161889295Y-129732315D01*
X161840473Y-129795495D01*
X161794073Y-129855835D01*
X161750903Y-129912262D01*
X161711771Y-129963708D01*
X161677486Y-130009100D01*
X161648857Y-130047369D01*
X161626692Y-130077444D01*
X161611799Y-130098253D01*
X161604987Y-130108728D01*
X161604895Y-130108916D01*
X161597738Y-130139313D01*
X161603408Y-130169257D01*
X161620683Y-130194644D01*
X161633295Y-130204349D01*
X161641236Y-130208629D01*
X161650541Y-130211950D01*
X161663042Y-130214433D01*
X161680572Y-130216199D01*
X161704965Y-130217367D01*
X161738053Y-130218057D01*
X161781670Y-130218391D01*
X161837648Y-130218487D01*
X161848800Y-130218489D01*
X161907305Y-130218412D01*
X161953115Y-130218105D01*
X161988048Y-130217454D01*
X162013921Y-130216344D01*
X162032555Y-130214660D01*
X162045766Y-130212289D01*
X162055373Y-130209115D01*
X162063194Y-130205024D01*
X162063251Y-130204990D01*
X162072015Y-130196645D01*
X162088629Y-130177902D01*
X162112158Y-130149916D01*
X162141667Y-130113842D01*
X162176221Y-130070837D01*
X162214884Y-130022055D01*
X162256723Y-129968651D01*
X162300800Y-129911781D01*
X162305518Y-129905660D01*
X162349069Y-129849148D01*
X162390106Y-129795969D01*
X162427745Y-129747266D01*
X162461101Y-129704180D01*
X162489289Y-129667851D01*
X162511425Y-129639421D01*
X162526624Y-129620032D01*
X162534001Y-129610825D01*
X162534396Y-129610373D01*
X162537990Y-129610241D01*
X162544868Y-129615027D01*
X162555669Y-129625490D01*
X162571029Y-129642389D01*
X162591587Y-129666481D01*
X162617979Y-129698525D01*
X162650844Y-129739278D01*
X162690820Y-129789500D01*
X162738543Y-129849949D01*
X162777018Y-129898904D01*
X162828654Y-129964390D01*
X162875982Y-130023803D01*
X162918341Y-130076343D01*
X162955072Y-130121211D01*
X162985516Y-130157608D01*
X163009012Y-130184733D01*
X163024901Y-130201788D01*
X163031828Y-130207717D01*
X163040964Y-130211137D01*
X163054672Y-130213788D01*
X163074642Y-130215756D01*
X163102568Y-130217129D01*
X163140140Y-130217992D01*
X163189050Y-130218434D01*
X163242536Y-130218543D01*
X163432308Y-130218543D01*
X163456982Y-130193869D01*
X163473332Y-130174602D01*
X163480474Y-130156258D01*
X163481657Y-130139958D01*
X163480473Y-130125661D01*
X163475943Y-130111109D01*
X163466602Y-130093524D01*
X163450985Y-130070133D01*
X163428585Y-130039447D01*
X163417659Y-130024903D01*
X163399088Y-130000332D01*
X163373838Y-129967003D01*
X163342872Y-129926183D01*
X163307154Y-129879139D01*
X163267650Y-129827140D01*
X163225323Y-129771452D01*
X163181138Y-129713344D01*
X163136059Y-129654082D01*
X163091051Y-129594934D01*
X163047078Y-129537169D01*
X163005105Y-129482053D01*
X162966095Y-129430854D01*
X162931013Y-129384840D01*
X162900824Y-129345278D01*
X162876492Y-129313436D01*
X162858981Y-129290581D01*
X162849256Y-129277981D01*
X162849101Y-129277783D01*
X162852016Y-129270098D01*
X162863852Y-129251104D01*
X162884544Y-129220893D01*
X162914024Y-129179554D01*
X162952230Y-129127178D01*
X162999095Y-129063855D01*
X163054554Y-128989675D01*
X163118541Y-128904728D01*
X163127289Y-128893154D01*
X163176835Y-128827512D01*
X163224042Y-128764740D01*
X163268136Y-128705884D01*
X163308340Y-128651988D01*
X163343880Y-128604100D01*
X163373980Y-128563265D01*
X163397865Y-128530529D01*
X163414758Y-128506936D01*
X163423886Y-128493534D01*
X163425012Y-128491623D01*
X163435767Y-128465354D01*
X163436512Y-128442606D01*
X163427395Y-128416532D01*
X163426667Y-128414986D01*
X163419324Y-128401303D01*
X163410631Y-128390500D01*
X163398915Y-128382267D01*
X163382506Y-128376293D01*
X163359731Y-128372269D01*
X163328917Y-128369883D01*
X163288393Y-128368825D01*
X163236487Y-128368785D01*
X163180823Y-128369335D01*
G36*
X165963880Y-127694100D02*
G01*
X165924371Y-127695321D01*
X165892661Y-127697195D01*
X165871536Y-127699737D01*
X165867909Y-127700567D01*
X165844908Y-127711440D01*
X165824323Y-127728105D01*
X165822552Y-127730112D01*
X165803942Y-127752228D01*
X165803942Y-128953089D01*
X165803930Y-129109987D01*
X165803909Y-129253021D01*
X165803901Y-129382841D01*
X165803928Y-129500095D01*
X165804014Y-129605434D01*
X165804180Y-129699507D01*
X165804448Y-129782965D01*
X165804843Y-129856457D01*
X165805384Y-129920632D01*
X165806096Y-129976142D01*
X165807001Y-130023634D01*
X165808121Y-130063759D01*
X165809478Y-130097168D01*
X165811095Y-130124509D01*
X165812995Y-130146432D01*
X165815199Y-130163587D01*
X165817730Y-130176624D01*
X165820611Y-130186192D01*
X165823864Y-130192942D01*
X165827512Y-130197523D01*
X165831576Y-130200585D01*
X165836080Y-130202778D01*
X165841046Y-130204750D01*
X165846496Y-130207153D01*
X165847248Y-130207535D01*
X165856725Y-130211152D01*
X165870564Y-130213897D01*
X165890579Y-130215867D01*
X165918587Y-130217163D01*
X165956401Y-130217883D01*
X166005838Y-130218125D01*
X166041254Y-130218083D01*
X166090614Y-130217708D01*
X166135710Y-130216904D01*
X166174321Y-130215749D01*
X166204225Y-130214318D01*
X166223202Y-130212688D01*
X166228485Y-130211620D01*
X166243288Y-130202249D01*
X166259802Y-130187513D01*
X166261142Y-130186096D01*
X166279285Y-130166575D01*
X166281163Y-128963641D01*
X166283040Y-127760706D01*
X166266397Y-127735953D01*
X166247626Y-127716029D01*
X166225183Y-127702742D01*
X166224605Y-127702539D01*
X166208570Y-127699621D01*
X166180818Y-127697248D01*
X166144137Y-127695436D01*
X166101315Y-127694200D01*
X166055140Y-127693555D01*
X166008399Y-127693516D01*
X165963880Y-127694100D01*
G37*
X165963880Y-127694100D02*
X165924371Y-127695321D01*
X165892661Y-127697195D01*
X165871536Y-127699737D01*
X165867909Y-127700567D01*
X165844908Y-127711440D01*
X165824323Y-127728105D01*
X165822552Y-127730112D01*
X165803942Y-127752228D01*
X165803942Y-128953089D01*
X165803930Y-129109987D01*
X165803909Y-129253021D01*
X165803901Y-129382841D01*
X165803928Y-129500095D01*
X165804014Y-129605434D01*
X165804180Y-129699507D01*
X165804448Y-129782965D01*
X165804843Y-129856457D01*
X165805384Y-129920632D01*
X165806096Y-129976142D01*
X165807001Y-130023634D01*
X165808121Y-130063759D01*
X165809478Y-130097168D01*
X165811095Y-130124509D01*
X165812995Y-130146432D01*
X165815199Y-130163587D01*
X165817730Y-130176624D01*
X165820611Y-130186192D01*
X165823864Y-130192942D01*
X165827512Y-130197523D01*
X165831576Y-130200585D01*
X165836080Y-130202778D01*
X165841046Y-130204750D01*
X165846496Y-130207153D01*
X165847248Y-130207535D01*
X165856725Y-130211152D01*
X165870564Y-130213897D01*
X165890579Y-130215867D01*
X165918587Y-130217163D01*
X165956401Y-130217883D01*
X166005838Y-130218125D01*
X166041254Y-130218083D01*
X166090614Y-130217708D01*
X166135710Y-130216904D01*
X166174321Y-130215749D01*
X166204225Y-130214318D01*
X166223202Y-130212688D01*
X166228485Y-130211620D01*
X166243288Y-130202249D01*
X166259802Y-130187513D01*
X166261142Y-130186096D01*
X166279285Y-130166575D01*
X166281163Y-128963641D01*
X166283040Y-127760706D01*
X166266397Y-127735953D01*
X166247626Y-127716029D01*
X166225183Y-127702742D01*
X166224605Y-127702539D01*
X166208570Y-127699621D01*
X166180818Y-127697248D01*
X166144137Y-127695436D01*
X166101315Y-127694200D01*
X166055140Y-127693555D01*
X166008399Y-127693516D01*
X165963880Y-127694100D01*
G36*
X165180519Y-128368192D02*
G01*
X165132256Y-128369058D01*
X165094945Y-128370883D01*
X165066807Y-128373976D01*
X165046063Y-128378648D01*
X165030935Y-128385211D01*
X165019642Y-128393975D01*
X165010407Y-128405251D01*
X165008036Y-128408766D01*
X165005596Y-128413125D01*
X165003461Y-128418919D01*
X165001603Y-128427124D01*
X164999992Y-128438716D01*
X164998601Y-128454673D01*
X164997402Y-128475969D01*
X164996367Y-128503581D01*
X164995467Y-128538485D01*
X164994676Y-128581658D01*
X164993964Y-128634076D01*
X164993303Y-128696714D01*
X164992667Y-128770550D01*
X164992025Y-128856560D01*
X164991351Y-128955719D01*
X164991068Y-128999015D01*
X164987365Y-129569029D01*
X164967736Y-129627086D01*
X164945587Y-129682826D01*
X164919569Y-129728209D01*
X164887152Y-129767327D01*
X164872032Y-129781951D01*
X164821932Y-129818298D01*
X164761723Y-129845363D01*
X164692823Y-129862681D01*
X164616652Y-129869789D01*
X164602885Y-129869948D01*
X164523176Y-129864431D01*
X164452097Y-129847654D01*
X164388715Y-129819275D01*
X164332101Y-129778957D01*
X164317764Y-129765893D01*
X164278078Y-129722946D01*
X164247530Y-129677480D01*
X164223088Y-129624614D01*
X164213589Y-129598058D01*
X164196646Y-129547258D01*
X164192937Y-128988130D01*
X164192235Y-128884533D01*
X164191576Y-128794465D01*
X164190933Y-128716937D01*
X164190277Y-128650965D01*
X164189578Y-128595562D01*
X164188808Y-128549741D01*
X164187937Y-128512516D01*
X164186938Y-128482902D01*
X164185780Y-128459910D01*
X164184435Y-128442556D01*
X164182875Y-128429853D01*
X164181070Y-128420814D01*
X164178991Y-128414453D01*
X164176610Y-128409785D01*
X164175964Y-128408766D01*
X164167024Y-128396803D01*
X164156530Y-128387416D01*
X164142712Y-128380299D01*
X164123798Y-128375144D01*
X164098018Y-128371644D01*
X164063601Y-128369491D01*
X164018775Y-128368379D01*
X163961771Y-128368000D01*
X163940904Y-128367983D01*
X163879554Y-128368206D01*
X163830965Y-128369118D01*
X163793386Y-128371094D01*
X163765068Y-128374513D01*
X163744259Y-128379749D01*
X163729209Y-128387180D01*
X163718169Y-128397182D01*
X163709388Y-128410131D01*
X163704825Y-128418772D01*
X163702898Y-128423302D01*
X163701175Y-128429278D01*
X163699645Y-128437491D01*
X163698298Y-128448734D01*
X163697121Y-128463799D01*
X163696103Y-128483478D01*
X163695233Y-128508562D01*
X163694498Y-128539845D01*
X163693889Y-128578117D01*
X163693393Y-128624170D01*
X163692998Y-128678798D01*
X163692694Y-128742791D01*
X163692469Y-128816943D01*
X163692311Y-128902044D01*
X163692209Y-128998887D01*
X163692152Y-129108264D01*
X163692128Y-129230966D01*
X163692125Y-129297627D01*
X163692114Y-130151083D01*
X163708660Y-130175636D01*
X163717678Y-130188338D01*
X163726800Y-130198257D01*
X163737846Y-130205713D01*
X163752633Y-130211028D01*
X163772980Y-130214525D01*
X163800703Y-130216524D01*
X163837621Y-130217349D01*
X163885551Y-130217320D01*
X163941278Y-130216813D01*
X164121499Y-130214915D01*
X164142664Y-130191214D01*
X164151526Y-130180808D01*
X164157488Y-130171078D01*
X164161125Y-130158974D01*
X164163010Y-130141445D01*
X164163720Y-130115439D01*
X164163828Y-130078853D01*
X164163828Y-129990193D01*
X164196748Y-130027825D01*
X164247113Y-130077235D01*
X164308085Y-130123840D01*
X164375763Y-130165280D01*
X164446245Y-130199197D01*
X164515630Y-130223231D01*
X164523057Y-130225177D01*
X164615166Y-130243101D01*
X164713387Y-130252584D01*
X164811780Y-130253275D01*
X164889868Y-130246850D01*
X164987406Y-130227354D01*
X165078129Y-130195297D01*
X165161432Y-130151237D01*
X165236710Y-130095730D01*
X165303359Y-130029334D01*
X165360774Y-129952607D01*
X165408351Y-129866104D01*
X165445485Y-129770384D01*
X165459261Y-129721964D01*
X165465096Y-129697786D01*
X165470199Y-129673555D01*
X165474621Y-129648164D01*
X165478407Y-129620509D01*
X165481606Y-129589482D01*
X165484265Y-129553979D01*
X165486434Y-129512892D01*
X165488158Y-129465115D01*
X165489486Y-129409543D01*
X165490466Y-129345070D01*
X165491145Y-129270589D01*
X165491572Y-129184994D01*
X165491794Y-129087180D01*
X165491858Y-128976039D01*
X165491858Y-128967240D01*
X165491844Y-128866795D01*
X165491795Y-128779840D01*
X165491683Y-128705347D01*
X165491482Y-128642292D01*
X165491164Y-128589650D01*
X165490702Y-128546395D01*
X165490069Y-128511501D01*
X165489238Y-128483943D01*
X165488182Y-128462696D01*
X165486874Y-128446733D01*
X165485286Y-128435030D01*
X165483391Y-128426561D01*
X165481162Y-128420301D01*
X165478573Y-128415224D01*
X165477185Y-128412892D01*
X165468177Y-128399744D01*
X165457864Y-128389428D01*
X165444465Y-128381604D01*
X165426203Y-128375934D01*
X165401297Y-128372078D01*
X165367968Y-128369697D01*
X165324436Y-128368452D01*
X165268923Y-128368004D01*
X165241514Y-128367972D01*
X165180519Y-128368192D01*
G37*
X165180519Y-128368192D02*
X165132256Y-128369058D01*
X165094945Y-128370883D01*
X165066807Y-128373976D01*
X165046063Y-128378648D01*
X165030935Y-128385211D01*
X165019642Y-128393975D01*
X165010407Y-128405251D01*
X165008036Y-128408766D01*
X165005596Y-128413125D01*
X165003461Y-128418919D01*
X165001603Y-128427124D01*
X164999992Y-128438716D01*
X164998601Y-128454673D01*
X164997402Y-128475969D01*
X164996367Y-128503581D01*
X164995467Y-128538485D01*
X164994676Y-128581658D01*
X164993964Y-128634076D01*
X164993303Y-128696714D01*
X164992667Y-128770550D01*
X164992025Y-128856560D01*
X164991351Y-128955719D01*
X164991068Y-128999015D01*
X164987365Y-129569029D01*
X164967736Y-129627086D01*
X164945587Y-129682826D01*
X164919569Y-129728209D01*
X164887152Y-129767327D01*
X164872032Y-129781951D01*
X164821932Y-129818298D01*
X164761723Y-129845363D01*
X164692823Y-129862681D01*
X164616652Y-129869789D01*
X164602885Y-129869948D01*
X164523176Y-129864431D01*
X164452097Y-129847654D01*
X164388715Y-129819275D01*
X164332101Y-129778957D01*
X164317764Y-129765893D01*
X164278078Y-129722946D01*
X164247530Y-129677480D01*
X164223088Y-129624614D01*
X164213589Y-129598058D01*
X164196646Y-129547258D01*
X164192937Y-128988130D01*
X164192235Y-128884533D01*
X164191576Y-128794465D01*
X164190933Y-128716937D01*
X164190277Y-128650965D01*
X164189578Y-128595562D01*
X164188808Y-128549741D01*
X164187937Y-128512516D01*
X164186938Y-128482902D01*
X164185780Y-128459910D01*
X164184435Y-128442556D01*
X164182875Y-128429853D01*
X164181070Y-128420814D01*
X164178991Y-128414453D01*
X164176610Y-128409785D01*
X164175964Y-128408766D01*
X164167024Y-128396803D01*
X164156530Y-128387416D01*
X164142712Y-128380299D01*
X164123798Y-128375144D01*
X164098018Y-128371644D01*
X164063601Y-128369491D01*
X164018775Y-128368379D01*
X163961771Y-128368000D01*
X163940904Y-128367983D01*
X163879554Y-128368206D01*
X163830965Y-128369118D01*
X163793386Y-128371094D01*
X163765068Y-128374513D01*
X163744259Y-128379749D01*
X163729209Y-128387180D01*
X163718169Y-128397182D01*
X163709388Y-128410131D01*
X163704825Y-128418772D01*
X163702898Y-128423302D01*
X163701175Y-128429278D01*
X163699645Y-128437491D01*
X163698298Y-128448734D01*
X163697121Y-128463799D01*
X163696103Y-128483478D01*
X163695233Y-128508562D01*
X163694498Y-128539845D01*
X163693889Y-128578117D01*
X163693393Y-128624170D01*
X163692998Y-128678798D01*
X163692694Y-128742791D01*
X163692469Y-128816943D01*
X163692311Y-128902044D01*
X163692209Y-128998887D01*
X163692152Y-129108264D01*
X163692128Y-129230966D01*
X163692125Y-129297627D01*
X163692114Y-130151083D01*
X163708660Y-130175636D01*
X163717678Y-130188338D01*
X163726800Y-130198257D01*
X163737846Y-130205713D01*
X163752633Y-130211028D01*
X163772980Y-130214525D01*
X163800703Y-130216524D01*
X163837621Y-130217349D01*
X163885551Y-130217320D01*
X163941278Y-130216813D01*
X164121499Y-130214915D01*
X164142664Y-130191214D01*
X164151526Y-130180808D01*
X164157488Y-130171078D01*
X164161125Y-130158974D01*
X164163010Y-130141445D01*
X164163720Y-130115439D01*
X164163828Y-130078853D01*
X164163828Y-129990193D01*
X164196748Y-130027825D01*
X164247113Y-130077235D01*
X164308085Y-130123840D01*
X164375763Y-130165280D01*
X164446245Y-130199197D01*
X164515630Y-130223231D01*
X164523057Y-130225177D01*
X164615166Y-130243101D01*
X164713387Y-130252584D01*
X164811780Y-130253275D01*
X164889868Y-130246850D01*
X164987406Y-130227354D01*
X165078129Y-130195297D01*
X165161432Y-130151237D01*
X165236710Y-130095730D01*
X165303359Y-130029334D01*
X165360774Y-129952607D01*
X165408351Y-129866104D01*
X165445485Y-129770384D01*
X165459261Y-129721964D01*
X165465096Y-129697786D01*
X165470199Y-129673555D01*
X165474621Y-129648164D01*
X165478407Y-129620509D01*
X165481606Y-129589482D01*
X165484265Y-129553979D01*
X165486434Y-129512892D01*
X165488158Y-129465115D01*
X165489486Y-129409543D01*
X165490466Y-129345070D01*
X165491145Y-129270589D01*
X165491572Y-129184994D01*
X165491794Y-129087180D01*
X165491858Y-128976039D01*
X165491858Y-128967240D01*
X165491844Y-128866795D01*
X165491795Y-128779840D01*
X165491683Y-128705347D01*
X165491482Y-128642292D01*
X165491164Y-128589650D01*
X165490702Y-128546395D01*
X165490069Y-128511501D01*
X165489238Y-128483943D01*
X165488182Y-128462696D01*
X165486874Y-128446733D01*
X165485286Y-128435030D01*
X165483391Y-128426561D01*
X165481162Y-128420301D01*
X165478573Y-128415224D01*
X165477185Y-128412892D01*
X165468177Y-128399744D01*
X165457864Y-128389428D01*
X165444465Y-128381604D01*
X165426203Y-128375934D01*
X165401297Y-128372078D01*
X165367968Y-128369697D01*
X165324436Y-128368452D01*
X165268923Y-128368004D01*
X165241514Y-128367972D01*
X165180519Y-128368192D01*
%TO.C,JP6*%
D13*
X151012619Y-104973333D02*
X150298333Y-104973333D01*
X150155476Y-105020952D01*
X150060238Y-105116190D01*
X150012619Y-105259047D01*
X150012619Y-105354285D01*
X150012619Y-104497142D02*
X151012619Y-104497142D01*
X151012619Y-104116190D01*
X150965000Y-104020952D01*
X150917380Y-103973333D01*
X150822142Y-103925714D01*
X150679285Y-103925714D01*
X150584047Y-103973333D01*
X150536428Y-104020952D01*
X150488809Y-104116190D01*
X150488809Y-104497142D01*
X151012619Y-103068571D02*
X151012619Y-103259047D01*
X150965000Y-103354285D01*
X150917380Y-103401904D01*
X150774523Y-103497142D01*
X150584047Y-103544761D01*
X150203095Y-103544761D01*
X150107857Y-103497142D01*
X150060238Y-103449523D01*
X150012619Y-103354285D01*
X150012619Y-103163809D01*
X150060238Y-103068571D01*
X150107857Y-103020952D01*
X150203095Y-102973333D01*
X150441190Y-102973333D01*
X150536428Y-103020952D01*
X150584047Y-103068571D01*
X150631666Y-103163809D01*
X150631666Y-103354285D01*
X150584047Y-103449523D01*
X150536428Y-103497142D01*
X150441190Y-103544761D01*
%TO.C,JP4*%
X144978333Y-102957380D02*
X144978333Y-103671666D01*
X145025952Y-103814523D01*
X145121190Y-103909761D01*
X145264047Y-103957380D01*
X145359285Y-103957380D01*
X144502142Y-103957380D02*
X144502142Y-102957380D01*
X144121190Y-102957380D01*
X144025952Y-103005000D01*
X143978333Y-103052619D01*
X143930714Y-103147857D01*
X143930714Y-103290714D01*
X143978333Y-103385952D01*
X144025952Y-103433571D01*
X144121190Y-103481190D01*
X144502142Y-103481190D01*
X143073571Y-103290714D02*
X143073571Y-103957380D01*
X143311666Y-102909761D02*
X143549761Y-103624047D01*
X142930714Y-103624047D01*
%TO.C,JP1*%
X133548333Y-102927380D02*
X133548333Y-103641666D01*
X133595952Y-103784523D01*
X133691190Y-103879761D01*
X133834047Y-103927380D01*
X133929285Y-103927380D01*
X133072142Y-103927380D02*
X133072142Y-102927380D01*
X132691190Y-102927380D01*
X132595952Y-102975000D01*
X132548333Y-103022619D01*
X132500714Y-103117857D01*
X132500714Y-103260714D01*
X132548333Y-103355952D01*
X132595952Y-103403571D01*
X132691190Y-103451190D01*
X133072142Y-103451190D01*
X131548333Y-103927380D02*
X132119761Y-103927380D01*
X131834047Y-103927380D02*
X131834047Y-102927380D01*
X131929285Y-103070238D01*
X132024523Y-103165476D01*
X132119761Y-103213095D01*
%TO.C,JP3*%
X141168333Y-102927380D02*
X141168333Y-103641666D01*
X141215952Y-103784523D01*
X141311190Y-103879761D01*
X141454047Y-103927380D01*
X141549285Y-103927380D01*
X140692142Y-103927380D02*
X140692142Y-102927380D01*
X140311190Y-102927380D01*
X140215952Y-102975000D01*
X140168333Y-103022619D01*
X140120714Y-103117857D01*
X140120714Y-103260714D01*
X140168333Y-103355952D01*
X140215952Y-103403571D01*
X140311190Y-103451190D01*
X140692142Y-103451190D01*
X139787380Y-102927380D02*
X139168333Y-102927380D01*
X139501666Y-103308333D01*
X139358809Y-103308333D01*
X139263571Y-103355952D01*
X139215952Y-103403571D01*
X139168333Y-103498809D01*
X139168333Y-103736904D01*
X139215952Y-103832142D01*
X139263571Y-103879761D01*
X139358809Y-103927380D01*
X139644523Y-103927380D01*
X139739761Y-103879761D01*
X139787380Y-103832142D01*
%TO.C,JP5*%
X151042619Y-108148333D02*
X150328333Y-108148333D01*
X150185476Y-108195952D01*
X150090238Y-108291190D01*
X150042619Y-108434047D01*
X150042619Y-108529285D01*
X150042619Y-107672142D02*
X151042619Y-107672142D01*
X151042619Y-107291190D01*
X150995000Y-107195952D01*
X150947380Y-107148333D01*
X150852142Y-107100714D01*
X150709285Y-107100714D01*
X150614047Y-107148333D01*
X150566428Y-107195952D01*
X150518809Y-107291190D01*
X150518809Y-107672142D01*
X151042619Y-106195952D02*
X151042619Y-106672142D01*
X150566428Y-106719761D01*
X150614047Y-106672142D01*
X150661666Y-106576904D01*
X150661666Y-106338809D01*
X150614047Y-106243571D01*
X150566428Y-106195952D01*
X150471190Y-106148333D01*
X150233095Y-106148333D01*
X150137857Y-106195952D01*
X150090238Y-106243571D01*
X150042619Y-106338809D01*
X150042619Y-106576904D01*
X150090238Y-106672142D01*
X150137857Y-106719761D01*
%TO.C,R8*%
X117022619Y-112561666D02*
X117498809Y-112895000D01*
X117022619Y-113133095D02*
X118022619Y-113133095D01*
X118022619Y-112752142D01*
X117975000Y-112656904D01*
X117927380Y-112609285D01*
X117832142Y-112561666D01*
X117689285Y-112561666D01*
X117594047Y-112609285D01*
X117546428Y-112656904D01*
X117498809Y-112752142D01*
X117498809Y-113133095D01*
X117594047Y-111990238D02*
X117641666Y-112085476D01*
X117689285Y-112133095D01*
X117784523Y-112180714D01*
X117832142Y-112180714D01*
X117927380Y-112133095D01*
X117975000Y-112085476D01*
X118022619Y-111990238D01*
X118022619Y-111799761D01*
X117975000Y-111704523D01*
X117927380Y-111656904D01*
X117832142Y-111609285D01*
X117784523Y-111609285D01*
X117689285Y-111656904D01*
X117641666Y-111704523D01*
X117594047Y-111799761D01*
X117594047Y-111990238D01*
X117546428Y-112085476D01*
X117498809Y-112133095D01*
X117403571Y-112180714D01*
X117213095Y-112180714D01*
X117117857Y-112133095D01*
X117070238Y-112085476D01*
X117022619Y-111990238D01*
X117022619Y-111799761D01*
X117070238Y-111704523D01*
X117117857Y-111656904D01*
X117213095Y-111609285D01*
X117403571Y-111609285D01*
X117498809Y-111656904D01*
X117546428Y-111704523D01*
X117594047Y-111799761D01*
%TO.C,C9*%
X106846666Y-126087142D02*
X106894285Y-126134761D01*
X107037142Y-126182380D01*
X107132380Y-126182380D01*
X107275238Y-126134761D01*
X107370476Y-126039523D01*
X107418095Y-125944285D01*
X107465714Y-125753809D01*
X107465714Y-125610952D01*
X107418095Y-125420476D01*
X107370476Y-125325238D01*
X107275238Y-125230000D01*
X107132380Y-125182380D01*
X107037142Y-125182380D01*
X106894285Y-125230000D01*
X106846666Y-125277619D01*
X106370476Y-126182380D02*
X106180000Y-126182380D01*
X106084761Y-126134761D01*
X106037142Y-126087142D01*
X105941904Y-125944285D01*
X105894285Y-125753809D01*
X105894285Y-125372857D01*
X105941904Y-125277619D01*
X105989523Y-125230000D01*
X106084761Y-125182380D01*
X106275238Y-125182380D01*
X106370476Y-125230000D01*
X106418095Y-125277619D01*
X106465714Y-125372857D01*
X106465714Y-125610952D01*
X106418095Y-125706190D01*
X106370476Y-125753809D01*
X106275238Y-125801428D01*
X106084761Y-125801428D01*
X105989523Y-125753809D01*
X105941904Y-125706190D01*
X105894285Y-125610952D01*
%TO.C,C11*%
X123832857Y-124817142D02*
X123880476Y-124864761D01*
X124023333Y-124912380D01*
X124118571Y-124912380D01*
X124261428Y-124864761D01*
X124356666Y-124769523D01*
X124404285Y-124674285D01*
X124451904Y-124483809D01*
X124451904Y-124340952D01*
X124404285Y-124150476D01*
X124356666Y-124055238D01*
X124261428Y-123960000D01*
X124118571Y-123912380D01*
X124023333Y-123912380D01*
X123880476Y-123960000D01*
X123832857Y-124007619D01*
X122880476Y-124912380D02*
X123451904Y-124912380D01*
X123166190Y-124912380D02*
X123166190Y-123912380D01*
X123261428Y-124055238D01*
X123356666Y-124150476D01*
X123451904Y-124198095D01*
X121928095Y-124912380D02*
X122499523Y-124912380D01*
X122213809Y-124912380D02*
X122213809Y-123912380D01*
X122309047Y-124055238D01*
X122404285Y-124150476D01*
X122499523Y-124198095D01*
%TO.C,JP2*%
X137358333Y-102957380D02*
X137358333Y-103671666D01*
X137405952Y-103814523D01*
X137501190Y-103909761D01*
X137644047Y-103957380D01*
X137739285Y-103957380D01*
X136882142Y-103957380D02*
X136882142Y-102957380D01*
X136501190Y-102957380D01*
X136405952Y-103005000D01*
X136358333Y-103052619D01*
X136310714Y-103147857D01*
X136310714Y-103290714D01*
X136358333Y-103385952D01*
X136405952Y-103433571D01*
X136501190Y-103481190D01*
X136882142Y-103481190D01*
X135929761Y-103052619D02*
X135882142Y-103005000D01*
X135786904Y-102957380D01*
X135548809Y-102957380D01*
X135453571Y-103005000D01*
X135405952Y-103052619D01*
X135358333Y-103147857D01*
X135358333Y-103243095D01*
X135405952Y-103385952D01*
X135977380Y-103957380D01*
X135358333Y-103957380D01*
%TO.C,R2*%
X112561666Y-123007380D02*
X112895000Y-122531190D01*
X113133095Y-123007380D02*
X113133095Y-122007380D01*
X112752142Y-122007380D01*
X112656904Y-122055000D01*
X112609285Y-122102619D01*
X112561666Y-122197857D01*
X112561666Y-122340714D01*
X112609285Y-122435952D01*
X112656904Y-122483571D01*
X112752142Y-122531190D01*
X113133095Y-122531190D01*
X112180714Y-122102619D02*
X112133095Y-122055000D01*
X112037857Y-122007380D01*
X111799761Y-122007380D01*
X111704523Y-122055000D01*
X111656904Y-122102619D01*
X111609285Y-122197857D01*
X111609285Y-122293095D01*
X111656904Y-122435952D01*
X112228333Y-123007380D01*
X111609285Y-123007380D01*
%TO.C,R3*%
X115736666Y-123007380D02*
X116070000Y-122531190D01*
X116308095Y-123007380D02*
X116308095Y-122007380D01*
X115927142Y-122007380D01*
X115831904Y-122055000D01*
X115784285Y-122102619D01*
X115736666Y-122197857D01*
X115736666Y-122340714D01*
X115784285Y-122435952D01*
X115831904Y-122483571D01*
X115927142Y-122531190D01*
X116308095Y-122531190D01*
X115403333Y-122007380D02*
X114784285Y-122007380D01*
X115117619Y-122388333D01*
X114974761Y-122388333D01*
X114879523Y-122435952D01*
X114831904Y-122483571D01*
X114784285Y-122578809D01*
X114784285Y-122816904D01*
X114831904Y-122912142D01*
X114879523Y-122959761D01*
X114974761Y-123007380D01*
X115260476Y-123007380D01*
X115355714Y-122959761D01*
X115403333Y-122912142D01*
%TO.C,R4*%
X110021666Y-123007380D02*
X110355000Y-122531190D01*
X110593095Y-123007380D02*
X110593095Y-122007380D01*
X110212142Y-122007380D01*
X110116904Y-122055000D01*
X110069285Y-122102619D01*
X110021666Y-122197857D01*
X110021666Y-122340714D01*
X110069285Y-122435952D01*
X110116904Y-122483571D01*
X110212142Y-122531190D01*
X110593095Y-122531190D01*
X109164523Y-122340714D02*
X109164523Y-123007380D01*
X109402619Y-121959761D02*
X109640714Y-122674047D01*
X109021666Y-122674047D01*
%TO.C,R5*%
X118276666Y-123007380D02*
X118610000Y-122531190D01*
X118848095Y-123007380D02*
X118848095Y-122007380D01*
X118467142Y-122007380D01*
X118371904Y-122055000D01*
X118324285Y-122102619D01*
X118276666Y-122197857D01*
X118276666Y-122340714D01*
X118324285Y-122435952D01*
X118371904Y-122483571D01*
X118467142Y-122531190D01*
X118848095Y-122531190D01*
X117371904Y-122007380D02*
X117848095Y-122007380D01*
X117895714Y-122483571D01*
X117848095Y-122435952D01*
X117752857Y-122388333D01*
X117514761Y-122388333D01*
X117419523Y-122435952D01*
X117371904Y-122483571D01*
X117324285Y-122578809D01*
X117324285Y-122816904D01*
X117371904Y-122912142D01*
X117419523Y-122959761D01*
X117514761Y-123007380D01*
X117752857Y-123007380D01*
X117848095Y-122959761D01*
X117895714Y-122912142D01*
%TO.C,R10*%
X115212857Y-124912380D02*
X115546190Y-124436190D01*
X115784285Y-124912380D02*
X115784285Y-123912380D01*
X115403333Y-123912380D01*
X115308095Y-123960000D01*
X115260476Y-124007619D01*
X115212857Y-124102857D01*
X115212857Y-124245714D01*
X115260476Y-124340952D01*
X115308095Y-124388571D01*
X115403333Y-124436190D01*
X115784285Y-124436190D01*
X114260476Y-124912380D02*
X114831904Y-124912380D01*
X114546190Y-124912380D02*
X114546190Y-123912380D01*
X114641428Y-124055238D01*
X114736666Y-124150476D01*
X114831904Y-124198095D01*
X113641428Y-123912380D02*
X113546190Y-123912380D01*
X113450952Y-123960000D01*
X113403333Y-124007619D01*
X113355714Y-124102857D01*
X113308095Y-124293333D01*
X113308095Y-124531428D01*
X113355714Y-124721904D01*
X113403333Y-124817142D01*
X113450952Y-124864761D01*
X113546190Y-124912380D01*
X113641428Y-124912380D01*
X113736666Y-124864761D01*
X113784285Y-124817142D01*
X113831904Y-124721904D01*
X113879523Y-124531428D01*
X113879523Y-124293333D01*
X113831904Y-124102857D01*
X113784285Y-124007619D01*
X113736666Y-123960000D01*
X113641428Y-123912380D01*
%TO.C,R11*%
X124547619Y-112402857D02*
X125023809Y-112736190D01*
X124547619Y-112974285D02*
X125547619Y-112974285D01*
X125547619Y-112593333D01*
X125500000Y-112498095D01*
X125452380Y-112450476D01*
X125357142Y-112402857D01*
X125214285Y-112402857D01*
X125119047Y-112450476D01*
X125071428Y-112498095D01*
X125023809Y-112593333D01*
X125023809Y-112974285D01*
X124547619Y-111450476D02*
X124547619Y-112021904D01*
X124547619Y-111736190D02*
X125547619Y-111736190D01*
X125404761Y-111831428D01*
X125309523Y-111926666D01*
X125261904Y-112021904D01*
X124547619Y-110498095D02*
X124547619Y-111069523D01*
X124547619Y-110783809D02*
X125547619Y-110783809D01*
X125404761Y-110879047D01*
X125309523Y-110974285D01*
X125261904Y-111069523D01*
%TO.C,R12*%
X107322857Y-128722380D02*
X107656190Y-128246190D01*
X107894285Y-128722380D02*
X107894285Y-127722380D01*
X107513333Y-127722380D01*
X107418095Y-127770000D01*
X107370476Y-127817619D01*
X107322857Y-127912857D01*
X107322857Y-128055714D01*
X107370476Y-128150952D01*
X107418095Y-128198571D01*
X107513333Y-128246190D01*
X107894285Y-128246190D01*
X106370476Y-128722380D02*
X106941904Y-128722380D01*
X106656190Y-128722380D02*
X106656190Y-127722380D01*
X106751428Y-127865238D01*
X106846666Y-127960476D01*
X106941904Y-128008095D01*
X105989523Y-127817619D02*
X105941904Y-127770000D01*
X105846666Y-127722380D01*
X105608571Y-127722380D01*
X105513333Y-127770000D01*
X105465714Y-127817619D01*
X105418095Y-127912857D01*
X105418095Y-128008095D01*
X105465714Y-128150952D01*
X106037142Y-128722380D01*
X105418095Y-128722380D01*
%TO.C,Q1*%
X116927380Y-115030238D02*
X116975000Y-115125476D01*
X117070238Y-115220714D01*
X117213095Y-115363571D01*
X117260714Y-115458809D01*
X117260714Y-115554047D01*
X117022619Y-115506428D02*
X117070238Y-115601666D01*
X117165476Y-115696904D01*
X117355952Y-115744523D01*
X117689285Y-115744523D01*
X117879761Y-115696904D01*
X117975000Y-115601666D01*
X118022619Y-115506428D01*
X118022619Y-115315952D01*
X117975000Y-115220714D01*
X117879761Y-115125476D01*
X117689285Y-115077857D01*
X117355952Y-115077857D01*
X117165476Y-115125476D01*
X117070238Y-115220714D01*
X117022619Y-115315952D01*
X117022619Y-115506428D01*
X117022619Y-114125476D02*
X117022619Y-114696904D01*
X117022619Y-114411190D02*
X118022619Y-114411190D01*
X117879761Y-114506428D01*
X117784523Y-114601666D01*
X117736904Y-114696904D01*
%TO.C,Q2*%
X108497619Y-112934761D02*
X108450000Y-112839523D01*
X108354761Y-112744285D01*
X108211904Y-112601428D01*
X108164285Y-112506190D01*
X108164285Y-112410952D01*
X108402380Y-112458571D02*
X108354761Y-112363333D01*
X108259523Y-112268095D01*
X108069047Y-112220476D01*
X107735714Y-112220476D01*
X107545238Y-112268095D01*
X107450000Y-112363333D01*
X107402380Y-112458571D01*
X107402380Y-112649047D01*
X107450000Y-112744285D01*
X107545238Y-112839523D01*
X107735714Y-112887142D01*
X108069047Y-112887142D01*
X108259523Y-112839523D01*
X108354761Y-112744285D01*
X108402380Y-112649047D01*
X108402380Y-112458571D01*
X107497619Y-113268095D02*
X107450000Y-113315714D01*
X107402380Y-113410952D01*
X107402380Y-113649047D01*
X107450000Y-113744285D01*
X107497619Y-113791904D01*
X107592857Y-113839523D01*
X107688095Y-113839523D01*
X107830952Y-113791904D01*
X108402380Y-113220476D01*
X108402380Y-113839523D01*
%TO.C,R9*%
X107497619Y-116371666D02*
X107973809Y-116705000D01*
X107497619Y-116943095D02*
X108497619Y-116943095D01*
X108497619Y-116562142D01*
X108450000Y-116466904D01*
X108402380Y-116419285D01*
X108307142Y-116371666D01*
X108164285Y-116371666D01*
X108069047Y-116419285D01*
X108021428Y-116466904D01*
X107973809Y-116562142D01*
X107973809Y-116943095D01*
X107497619Y-115895476D02*
X107497619Y-115705000D01*
X107545238Y-115609761D01*
X107592857Y-115562142D01*
X107735714Y-115466904D01*
X107926190Y-115419285D01*
X108307142Y-115419285D01*
X108402380Y-115466904D01*
X108450000Y-115514523D01*
X108497619Y-115609761D01*
X108497619Y-115800238D01*
X108450000Y-115895476D01*
X108402380Y-115943095D01*
X108307142Y-115990714D01*
X108069047Y-115990714D01*
X107973809Y-115943095D01*
X107926190Y-115895476D01*
X107878571Y-115800238D01*
X107878571Y-115609761D01*
X107926190Y-115514523D01*
X107973809Y-115466904D01*
X108069047Y-115419285D01*
%TO.C,C10*%
X119620357Y-125042142D02*
X119667976Y-125089761D01*
X119810833Y-125137380D01*
X119906071Y-125137380D01*
X120048928Y-125089761D01*
X120144166Y-124994523D01*
X120191785Y-124899285D01*
X120239404Y-124708809D01*
X120239404Y-124565952D01*
X120191785Y-124375476D01*
X120144166Y-124280238D01*
X120048928Y-124185000D01*
X119906071Y-124137380D01*
X119810833Y-124137380D01*
X119667976Y-124185000D01*
X119620357Y-124232619D01*
X118667976Y-125137380D02*
X119239404Y-125137380D01*
X118953690Y-125137380D02*
X118953690Y-124137380D01*
X119048928Y-124280238D01*
X119144166Y-124375476D01*
X119239404Y-124423095D01*
X118048928Y-124137380D02*
X117953690Y-124137380D01*
X117858452Y-124185000D01*
X117810833Y-124232619D01*
X117763214Y-124327857D01*
X117715595Y-124518333D01*
X117715595Y-124756428D01*
X117763214Y-124946904D01*
X117810833Y-125042142D01*
X117858452Y-125089761D01*
X117953690Y-125137380D01*
X118048928Y-125137380D01*
X118144166Y-125089761D01*
X118191785Y-125042142D01*
X118239404Y-124946904D01*
X118287023Y-124756428D01*
X118287023Y-124518333D01*
X118239404Y-124327857D01*
X118191785Y-124232619D01*
X118144166Y-124185000D01*
X118048928Y-124137380D01*
%TO.C,.2*%
D14*
X170965238Y-130771666D02*
X170774761Y-130771666D01*
X171003333Y-130885952D02*
X170870000Y-130485952D01*
X170736666Y-130885952D01*
X170298571Y-130619285D02*
X170298571Y-130885952D01*
X170298571Y-130657380D02*
X170279523Y-130638333D01*
X170241428Y-130619285D01*
X170184285Y-130619285D01*
X170146190Y-130638333D01*
X170127142Y-130676428D01*
X170127142Y-130885952D01*
X169784285Y-130866904D02*
X169822380Y-130885952D01*
X169898571Y-130885952D01*
X169936666Y-130866904D01*
X169955714Y-130828809D01*
X169955714Y-130676428D01*
X169936666Y-130638333D01*
X169898571Y-130619285D01*
X169822380Y-130619285D01*
X169784285Y-130638333D01*
X169765238Y-130676428D01*
X169765238Y-130714523D01*
X169955714Y-130752619D01*
X169631904Y-130619285D02*
X169555714Y-130885952D01*
X169479523Y-130695476D01*
X169403333Y-130885952D01*
X169327142Y-130619285D01*
X168908095Y-130619285D02*
X168831904Y-130885952D01*
X168755714Y-130695476D01*
X168679523Y-130885952D01*
X168603333Y-130619285D01*
X168279523Y-130885952D02*
X168279523Y-130676428D01*
X168298571Y-130638333D01*
X168336666Y-130619285D01*
X168412857Y-130619285D01*
X168450952Y-130638333D01*
X168279523Y-130866904D02*
X168317619Y-130885952D01*
X168412857Y-130885952D01*
X168450952Y-130866904D01*
X168470000Y-130828809D01*
X168470000Y-130790714D01*
X168450952Y-130752619D01*
X168412857Y-130733571D01*
X168317619Y-130733571D01*
X168279523Y-130714523D01*
X168127142Y-130619285D02*
X168031904Y-130885952D01*
X167936666Y-130619285D02*
X168031904Y-130885952D01*
X168070000Y-130981190D01*
X168089047Y-131000238D01*
X168127142Y-131019285D01*
X167536666Y-130619285D02*
X167384285Y-130619285D01*
X167479523Y-130485952D02*
X167479523Y-130828809D01*
X167460476Y-130866904D01*
X167422380Y-130885952D01*
X167384285Y-130885952D01*
X167250952Y-130885952D02*
X167250952Y-130485952D01*
X167079523Y-130885952D02*
X167079523Y-130676428D01*
X167098571Y-130638333D01*
X167136666Y-130619285D01*
X167193809Y-130619285D01*
X167231904Y-130638333D01*
X167250952Y-130657380D01*
X166889047Y-130885952D02*
X166889047Y-130619285D01*
X166889047Y-130485952D02*
X166908095Y-130505000D01*
X166889047Y-130524047D01*
X166870000Y-130505000D01*
X166889047Y-130485952D01*
X166889047Y-130524047D01*
X166698571Y-130619285D02*
X166698571Y-130885952D01*
X166698571Y-130657380D02*
X166679523Y-130638333D01*
X166641428Y-130619285D01*
X166584285Y-130619285D01*
X166546190Y-130638333D01*
X166527142Y-130676428D01*
X166527142Y-130885952D01*
X166165238Y-130619285D02*
X166165238Y-130943095D01*
X166184285Y-130981190D01*
X166203333Y-131000238D01*
X166241428Y-131019285D01*
X166298571Y-131019285D01*
X166336666Y-131000238D01*
X166165238Y-130866904D02*
X166203333Y-130885952D01*
X166279523Y-130885952D01*
X166317619Y-130866904D01*
X166336666Y-130847857D01*
X166355714Y-130809761D01*
X166355714Y-130695476D01*
X166336666Y-130657380D01*
X166317619Y-130638333D01*
X166279523Y-130619285D01*
X166203333Y-130619285D01*
X166165238Y-130638333D01*
X165993809Y-130866904D02*
X165955714Y-130885952D01*
X165879523Y-130885952D01*
X165841428Y-130866904D01*
X165822380Y-130828809D01*
X165822380Y-130809761D01*
X165841428Y-130771666D01*
X165879523Y-130752619D01*
X165936666Y-130752619D01*
X165974761Y-130733571D01*
X165993809Y-130695476D01*
X165993809Y-130676428D01*
X165974761Y-130638333D01*
X165936666Y-130619285D01*
X165879523Y-130619285D01*
X165841428Y-130638333D01*
X165403333Y-130619285D02*
X165250952Y-130619285D01*
X165346190Y-130485952D02*
X165346190Y-130828809D01*
X165327142Y-130866904D01*
X165289047Y-130885952D01*
X165250952Y-130885952D01*
X165060476Y-130885952D02*
X165098571Y-130866904D01*
X165117619Y-130847857D01*
X165136666Y-130809761D01*
X165136666Y-130695476D01*
X165117619Y-130657380D01*
X165098571Y-130638333D01*
X165060476Y-130619285D01*
X165003333Y-130619285D01*
X164965238Y-130638333D01*
X164946190Y-130657380D01*
X164927142Y-130695476D01*
X164927142Y-130809761D01*
X164946190Y-130847857D01*
X164965238Y-130866904D01*
X165003333Y-130885952D01*
X165060476Y-130885952D01*
X164279523Y-130866904D02*
X164317619Y-130885952D01*
X164393809Y-130885952D01*
X164431904Y-130866904D01*
X164450952Y-130847857D01*
X164470000Y-130809761D01*
X164470000Y-130695476D01*
X164450952Y-130657380D01*
X164431904Y-130638333D01*
X164393809Y-130619285D01*
X164317619Y-130619285D01*
X164279523Y-130638333D01*
X164050952Y-130885952D02*
X164089047Y-130866904D01*
X164108095Y-130847857D01*
X164127142Y-130809761D01*
X164127142Y-130695476D01*
X164108095Y-130657380D01*
X164089047Y-130638333D01*
X164050952Y-130619285D01*
X163993809Y-130619285D01*
X163955714Y-130638333D01*
X163936666Y-130657380D01*
X163917619Y-130695476D01*
X163917619Y-130809761D01*
X163936666Y-130847857D01*
X163955714Y-130866904D01*
X163993809Y-130885952D01*
X164050952Y-130885952D01*
X163746190Y-130619285D02*
X163746190Y-130885952D01*
X163746190Y-130657380D02*
X163727142Y-130638333D01*
X163689047Y-130619285D01*
X163631904Y-130619285D01*
X163593809Y-130638333D01*
X163574761Y-130676428D01*
X163574761Y-130885952D01*
X163384285Y-130619285D02*
X163384285Y-130885952D01*
X163384285Y-130657380D02*
X163365238Y-130638333D01*
X163327142Y-130619285D01*
X163270000Y-130619285D01*
X163231904Y-130638333D01*
X163212857Y-130676428D01*
X163212857Y-130885952D01*
X162870000Y-130866904D02*
X162908095Y-130885952D01*
X162984285Y-130885952D01*
X163022380Y-130866904D01*
X163041428Y-130828809D01*
X163041428Y-130676428D01*
X163022380Y-130638333D01*
X162984285Y-130619285D01*
X162908095Y-130619285D01*
X162870000Y-130638333D01*
X162850952Y-130676428D01*
X162850952Y-130714523D01*
X163041428Y-130752619D01*
X162508095Y-130866904D02*
X162546190Y-130885952D01*
X162622380Y-130885952D01*
X162660476Y-130866904D01*
X162679523Y-130847857D01*
X162698571Y-130809761D01*
X162698571Y-130695476D01*
X162679523Y-130657380D01*
X162660476Y-130638333D01*
X162622380Y-130619285D01*
X162546190Y-130619285D01*
X162508095Y-130638333D01*
X162393809Y-130619285D02*
X162241428Y-130619285D01*
X162336666Y-130485952D02*
X162336666Y-130828809D01*
X162317619Y-130866904D01*
X162279523Y-130885952D01*
X162241428Y-130885952D01*
X161955714Y-130866904D02*
X161993809Y-130885952D01*
X162070000Y-130885952D01*
X162108095Y-130866904D01*
X162127142Y-130828809D01*
X162127142Y-130676428D01*
X162108095Y-130638333D01*
X162070000Y-130619285D01*
X161993809Y-130619285D01*
X161955714Y-130638333D01*
X161936666Y-130676428D01*
X161936666Y-130714523D01*
X162127142Y-130752619D01*
X161593809Y-130885952D02*
X161593809Y-130485952D01*
X161593809Y-130866904D02*
X161631904Y-130885952D01*
X161708095Y-130885952D01*
X161746190Y-130866904D01*
X161765238Y-130847857D01*
X161784285Y-130809761D01*
X161784285Y-130695476D01*
X161765238Y-130657380D01*
X161746190Y-130638333D01*
X161708095Y-130619285D01*
X161631904Y-130619285D01*
X161593809Y-130638333D01*
D15*
X170198571Y-131319285D02*
X170122380Y-131585952D01*
X170046190Y-131395476D01*
X169970000Y-131585952D01*
X169893809Y-131319285D01*
X169779523Y-131319285D02*
X169703333Y-131585952D01*
X169627142Y-131395476D01*
X169550952Y-131585952D01*
X169474761Y-131319285D01*
X169360476Y-131319285D02*
X169284285Y-131585952D01*
X169208095Y-131395476D01*
X169131904Y-131585952D01*
X169055714Y-131319285D01*
X168903333Y-131547857D02*
X168884285Y-131566904D01*
X168903333Y-131585952D01*
X168922380Y-131566904D01*
X168903333Y-131547857D01*
X168903333Y-131585952D01*
X168769999Y-131319285D02*
X168617619Y-131319285D01*
X168712857Y-131585952D02*
X168712857Y-131243095D01*
X168693809Y-131205000D01*
X168655714Y-131185952D01*
X168617619Y-131185952D01*
X168427142Y-131585952D02*
X168465238Y-131566904D01*
X168484285Y-131528809D01*
X168484285Y-131185952D01*
X168103333Y-131319285D02*
X168103333Y-131585952D01*
X168274761Y-131319285D02*
X168274761Y-131528809D01*
X168255714Y-131566904D01*
X168217619Y-131585952D01*
X168160476Y-131585952D01*
X168122380Y-131566904D01*
X168103333Y-131547857D01*
X167950952Y-131585952D02*
X167741428Y-131319285D01*
X167950952Y-131319285D02*
X167741428Y-131585952D01*
X167589047Y-131547857D02*
X167569999Y-131566904D01*
X167589047Y-131585952D01*
X167608095Y-131566904D01*
X167589047Y-131547857D01*
X167589047Y-131585952D01*
X167227142Y-131585952D02*
X167227142Y-131376428D01*
X167246190Y-131338333D01*
X167284285Y-131319285D01*
X167360476Y-131319285D01*
X167398571Y-131338333D01*
X167227142Y-131566904D02*
X167265238Y-131585952D01*
X167360476Y-131585952D01*
X167398571Y-131566904D01*
X167417619Y-131528809D01*
X167417619Y-131490714D01*
X167398571Y-131452619D01*
X167360476Y-131433571D01*
X167265238Y-131433571D01*
X167227142Y-131414523D01*
X166865238Y-131566904D02*
X166903333Y-131585952D01*
X166979523Y-131585952D01*
X167017619Y-131566904D01*
X167036666Y-131547857D01*
X167055714Y-131509761D01*
X167055714Y-131395476D01*
X167036666Y-131357380D01*
X167017619Y-131338333D01*
X166979523Y-131319285D01*
X166903333Y-131319285D01*
X166865238Y-131338333D01*
X166293809Y-131719285D02*
X166293809Y-131147857D01*
X165741428Y-131319285D02*
X165665238Y-131585952D01*
X165589047Y-131395476D01*
X165512857Y-131585952D01*
X165436666Y-131319285D01*
X165322380Y-131319285D02*
X165246190Y-131585952D01*
X165169999Y-131395476D01*
X165093809Y-131585952D01*
X165017619Y-131319285D01*
X164903333Y-131319285D02*
X164827142Y-131585952D01*
X164750952Y-131395476D01*
X164674761Y-131585952D01*
X164598571Y-131319285D01*
X164446190Y-131547857D02*
X164427142Y-131566904D01*
X164446190Y-131585952D01*
X164465238Y-131566904D01*
X164446190Y-131547857D01*
X164446190Y-131585952D01*
X164312857Y-131319285D02*
X164160476Y-131319285D01*
X164255714Y-131585952D02*
X164255714Y-131243095D01*
X164236666Y-131205000D01*
X164198571Y-131185952D01*
X164160476Y-131185952D01*
X163969999Y-131585952D02*
X164008095Y-131566904D01*
X164027142Y-131528809D01*
X164027142Y-131185952D01*
X163646190Y-131319285D02*
X163646190Y-131585952D01*
X163817619Y-131319285D02*
X163817619Y-131528809D01*
X163798571Y-131566904D01*
X163760476Y-131585952D01*
X163703333Y-131585952D01*
X163665238Y-131566904D01*
X163646190Y-131547857D01*
X163493809Y-131585952D02*
X163284285Y-131319285D01*
X163493809Y-131319285D02*
X163284285Y-131585952D01*
X163131904Y-131547857D02*
X163112857Y-131566904D01*
X163131904Y-131585952D01*
X163150952Y-131566904D01*
X163131904Y-131547857D01*
X163131904Y-131585952D01*
X162941428Y-131585952D02*
X162941428Y-131319285D01*
X162941428Y-131185952D02*
X162960476Y-131205000D01*
X162941428Y-131224047D01*
X162922380Y-131205000D01*
X162941428Y-131185952D01*
X162941428Y-131224047D01*
X162579523Y-131585952D02*
X162579523Y-131185952D01*
X162579523Y-131566904D02*
X162617619Y-131585952D01*
X162693809Y-131585952D01*
X162731904Y-131566904D01*
X162750952Y-131547857D01*
X162769999Y-131509761D01*
X162769999Y-131395476D01*
X162750952Y-131357380D01*
X162731904Y-131338333D01*
X162693809Y-131319285D01*
X162617619Y-131319285D01*
X162579523Y-131338333D01*
%TD*%
M02*
