%TF.GenerationSoftware,KiCad,Pcbnew,(5.1.9)-1*%
%TF.CreationDate,2021-09-13T16:04:34+07:00*%
%TF.ProjectId,Nano X ESP V3,4e616e6f-2058-4204-9553-502056332e6b,rev?*%
%TF.SameCoordinates,Original*%
%TF.FileFunction,Legend,Top*%
%TF.FilePolarity,Positive*%
%FSLAX46Y46*%
G04 Gerber Fmt 4.6, Leading zero omitted, Abs format (unit mm)*
G04 Created by KiCad (PCBNEW (5.1.9)-1) date 2021-09-13 16:04:34*
%MOMM*%
%LPD*%
G01*
G04 APERTURE LIST*
%ADD10C,0.100000*%
%ADD11C,0.120000*%
%ADD12C,0.125000*%
%ADD13C,0.150000*%
%ADD14C,0.010000*%
%ADD15C,0.075000*%
G04 APERTURE END LIST*
D10*
X158423607Y-99800000D02*
G75*
G03*
X158423607Y-99800000I-223607J0D01*
G01*
X159550000Y-135950000D02*
G75*
G03*
X159550000Y-135950000I-223607J0D01*
G01*
X134323607Y-125600000D02*
G75*
G03*
X134323607Y-125600000I-223607J0D01*
G01*
X108923607Y-121750000D02*
G75*
G03*
X108923607Y-121750000I-223607J0D01*
G01*
D11*
X156845000Y-100330000D02*
X159385000Y-100330000D01*
D12*
X98861071Y-120865476D02*
X98861071Y-120560714D01*
X99394404Y-120751190D02*
X98708690Y-120751190D01*
X98632500Y-120713095D01*
X98594404Y-120636904D01*
X98594404Y-120560714D01*
X99394404Y-120179761D02*
X99356309Y-120255952D01*
X99280119Y-120294047D01*
X98594404Y-120294047D01*
X98861071Y-119532142D02*
X99394404Y-119532142D01*
X98861071Y-119875000D02*
X99280119Y-119875000D01*
X99356309Y-119836904D01*
X99394404Y-119760714D01*
X99394404Y-119646428D01*
X99356309Y-119570238D01*
X99318214Y-119532142D01*
X99394404Y-119227380D02*
X98861071Y-118808333D01*
X98861071Y-119227380D02*
X99394404Y-118808333D01*
X98975357Y-118236904D02*
X99013452Y-118122619D01*
X99051547Y-118084523D01*
X99127738Y-118046428D01*
X99242023Y-118046428D01*
X99318214Y-118084523D01*
X99356309Y-118122619D01*
X99394404Y-118198809D01*
X99394404Y-118503571D01*
X98594404Y-118503571D01*
X98594404Y-118236904D01*
X98632500Y-118160714D01*
X98670595Y-118122619D01*
X98746785Y-118084523D01*
X98822976Y-118084523D01*
X98899166Y-118122619D01*
X98937261Y-118160714D01*
X98975357Y-118236904D01*
X98975357Y-118503571D01*
X99394404Y-117589285D02*
X99356309Y-117665476D01*
X99318214Y-117703571D01*
X99242023Y-117741666D01*
X99013452Y-117741666D01*
X98937261Y-117703571D01*
X98899166Y-117665476D01*
X98861071Y-117589285D01*
X98861071Y-117475000D01*
X98899166Y-117398809D01*
X98937261Y-117360714D01*
X99013452Y-117322619D01*
X99242023Y-117322619D01*
X99318214Y-117360714D01*
X99356309Y-117398809D01*
X99394404Y-117475000D01*
X99394404Y-117589285D01*
X99394404Y-117055952D02*
X98861071Y-116636904D01*
X98861071Y-117055952D02*
X99394404Y-116636904D01*
X99394404Y-115303571D02*
X99394404Y-115760714D01*
X99394404Y-115532142D02*
X98594404Y-115532142D01*
X98708690Y-115608333D01*
X98784880Y-115684523D01*
X98822976Y-115760714D01*
X99318214Y-114960714D02*
X99356309Y-114922619D01*
X99394404Y-114960714D01*
X99356309Y-114998809D01*
X99318214Y-114960714D01*
X99394404Y-114960714D01*
X98594404Y-114427380D02*
X98594404Y-114351190D01*
X98632500Y-114275000D01*
X98670595Y-114236904D01*
X98746785Y-114198809D01*
X98899166Y-114160714D01*
X99089642Y-114160714D01*
X99242023Y-114198809D01*
X99318214Y-114236904D01*
X99356309Y-114275000D01*
X99394404Y-114351190D01*
X99394404Y-114427380D01*
X99356309Y-114503571D01*
X99318214Y-114541666D01*
X99242023Y-114579761D01*
X99089642Y-114617857D01*
X98899166Y-114617857D01*
X98746785Y-114579761D01*
X98670595Y-114541666D01*
X98632500Y-114503571D01*
X98594404Y-114427380D01*
X100186071Y-125132142D02*
X100719404Y-124979761D01*
X100338452Y-124827380D01*
X100719404Y-124675000D01*
X100186071Y-124522619D01*
X100186071Y-124294047D02*
X100719404Y-124141666D01*
X100338452Y-123989285D01*
X100719404Y-123836904D01*
X100186071Y-123684523D01*
X100186071Y-123455952D02*
X100719404Y-123303571D01*
X100338452Y-123151190D01*
X100719404Y-122998809D01*
X100186071Y-122846428D01*
X100643214Y-122541666D02*
X100681309Y-122503571D01*
X100719404Y-122541666D01*
X100681309Y-122579761D01*
X100643214Y-122541666D01*
X100719404Y-122541666D01*
X100186071Y-122275000D02*
X100186071Y-121970238D01*
X100719404Y-122160714D02*
X100033690Y-122160714D01*
X99957500Y-122122619D01*
X99919404Y-122046428D01*
X99919404Y-121970238D01*
X100719404Y-121589285D02*
X100681309Y-121665476D01*
X100605119Y-121703571D01*
X99919404Y-121703571D01*
X100186071Y-120941666D02*
X100719404Y-120941666D01*
X100186071Y-121284523D02*
X100605119Y-121284523D01*
X100681309Y-121246428D01*
X100719404Y-121170238D01*
X100719404Y-121055952D01*
X100681309Y-120979761D01*
X100643214Y-120941666D01*
X100719404Y-120636904D02*
X100186071Y-120217857D01*
X100186071Y-120636904D02*
X100719404Y-120217857D01*
X100643214Y-119913095D02*
X100681309Y-119875000D01*
X100719404Y-119913095D01*
X100681309Y-119951190D01*
X100643214Y-119913095D01*
X100719404Y-119913095D01*
X100719404Y-119189285D02*
X100300357Y-119189285D01*
X100224166Y-119227380D01*
X100186071Y-119303571D01*
X100186071Y-119455952D01*
X100224166Y-119532142D01*
X100681309Y-119189285D02*
X100719404Y-119265476D01*
X100719404Y-119455952D01*
X100681309Y-119532142D01*
X100605119Y-119570238D01*
X100528928Y-119570238D01*
X100452738Y-119532142D01*
X100414642Y-119455952D01*
X100414642Y-119265476D01*
X100376547Y-119189285D01*
X100681309Y-118465476D02*
X100719404Y-118541666D01*
X100719404Y-118694047D01*
X100681309Y-118770238D01*
X100643214Y-118808333D01*
X100567023Y-118846428D01*
X100338452Y-118846428D01*
X100262261Y-118808333D01*
X100224166Y-118770238D01*
X100186071Y-118694047D01*
X100186071Y-118541666D01*
X100224166Y-118465476D01*
X100986071Y-117322619D02*
X99843214Y-117322619D01*
X100186071Y-116217857D02*
X100719404Y-116065476D01*
X100338452Y-115913095D01*
X100719404Y-115760714D01*
X100186071Y-115608333D01*
X100186071Y-115379761D02*
X100719404Y-115227380D01*
X100338452Y-115075000D01*
X100719404Y-114922619D01*
X100186071Y-114770238D01*
X100186071Y-114541666D02*
X100719404Y-114389285D01*
X100338452Y-114236904D01*
X100719404Y-114084523D01*
X100186071Y-113932142D01*
X100643214Y-113627380D02*
X100681309Y-113589285D01*
X100719404Y-113627380D01*
X100681309Y-113665476D01*
X100643214Y-113627380D01*
X100719404Y-113627380D01*
X100186071Y-113360714D02*
X100186071Y-113055952D01*
X100719404Y-113246428D02*
X100033690Y-113246428D01*
X99957500Y-113208333D01*
X99919404Y-113132142D01*
X99919404Y-113055952D01*
X100719404Y-112675000D02*
X100681309Y-112751190D01*
X100605119Y-112789285D01*
X99919404Y-112789285D01*
X100186071Y-112027380D02*
X100719404Y-112027380D01*
X100186071Y-112370238D02*
X100605119Y-112370238D01*
X100681309Y-112332142D01*
X100719404Y-112255952D01*
X100719404Y-112141666D01*
X100681309Y-112065476D01*
X100643214Y-112027380D01*
X100719404Y-111722619D02*
X100186071Y-111303571D01*
X100186071Y-111722619D02*
X100719404Y-111303571D01*
X100643214Y-110998809D02*
X100681309Y-110960714D01*
X100719404Y-110998809D01*
X100681309Y-111036904D01*
X100643214Y-110998809D01*
X100719404Y-110998809D01*
X100719404Y-110617857D02*
X100186071Y-110617857D01*
X99919404Y-110617857D02*
X99957500Y-110655952D01*
X99995595Y-110617857D01*
X99957500Y-110579761D01*
X99919404Y-110617857D01*
X99995595Y-110617857D01*
X100719404Y-109894047D02*
X99919404Y-109894047D01*
X100681309Y-109894047D02*
X100719404Y-109970238D01*
X100719404Y-110122619D01*
X100681309Y-110198809D01*
X100643214Y-110236904D01*
X100567023Y-110275000D01*
X100338452Y-110275000D01*
X100262261Y-110236904D01*
X100224166Y-110198809D01*
X100186071Y-110122619D01*
X100186071Y-109970238D01*
X100224166Y-109894047D01*
D13*
X129357380Y-113768095D02*
X128357380Y-113768095D01*
X128357380Y-113530000D01*
X128405000Y-113387142D01*
X128500238Y-113291904D01*
X128595476Y-113244285D01*
X128785952Y-113196666D01*
X128928809Y-113196666D01*
X129119285Y-113244285D01*
X129214523Y-113291904D01*
X129309761Y-113387142D01*
X129357380Y-113530000D01*
X129357380Y-113768095D01*
X128452619Y-112815714D02*
X128405000Y-112768095D01*
X128357380Y-112672857D01*
X128357380Y-112434761D01*
X128405000Y-112339523D01*
X128452619Y-112291904D01*
X128547857Y-112244285D01*
X128643095Y-112244285D01*
X128785952Y-112291904D01*
X129357380Y-112863333D01*
X129357380Y-112244285D01*
X184205714Y-125499761D02*
X184348571Y-125547380D01*
X184586666Y-125547380D01*
X184681904Y-125499761D01*
X184729523Y-125452142D01*
X184777142Y-125356904D01*
X184777142Y-125261666D01*
X184729523Y-125166428D01*
X184681904Y-125118809D01*
X184586666Y-125071190D01*
X184396190Y-125023571D01*
X184300952Y-124975952D01*
X184253333Y-124928333D01*
X184205714Y-124833095D01*
X184205714Y-124737857D01*
X184253333Y-124642619D01*
X184300952Y-124595000D01*
X184396190Y-124547380D01*
X184634285Y-124547380D01*
X184777142Y-124595000D01*
X185205714Y-125547380D02*
X185205714Y-124547380D01*
X185443809Y-124547380D01*
X185586666Y-124595000D01*
X185681904Y-124690238D01*
X185729523Y-124785476D01*
X185777142Y-124975952D01*
X185777142Y-125118809D01*
X185729523Y-125309285D01*
X185681904Y-125404523D01*
X185586666Y-125499761D01*
X185443809Y-125547380D01*
X185205714Y-125547380D01*
X186158095Y-125261666D02*
X186634285Y-125261666D01*
X186062857Y-125547380D02*
X186396190Y-124547380D01*
X186729523Y-125547380D01*
X172442142Y-148121666D02*
X172489761Y-148169285D01*
X172537380Y-148312142D01*
X172537380Y-148407380D01*
X172489761Y-148550238D01*
X172394523Y-148645476D01*
X172299285Y-148693095D01*
X172108809Y-148740714D01*
X171965952Y-148740714D01*
X171775476Y-148693095D01*
X171680238Y-148645476D01*
X171585000Y-148550238D01*
X171537380Y-148407380D01*
X171537380Y-148312142D01*
X171585000Y-148169285D01*
X171632619Y-148121666D01*
X172489761Y-147740714D02*
X172537380Y-147597857D01*
X172537380Y-147359761D01*
X172489761Y-147264523D01*
X172442142Y-147216904D01*
X172346904Y-147169285D01*
X172251666Y-147169285D01*
X172156428Y-147216904D01*
X172108809Y-147264523D01*
X172061190Y-147359761D01*
X172013571Y-147550238D01*
X171965952Y-147645476D01*
X171918333Y-147693095D01*
X171823095Y-147740714D01*
X171727857Y-147740714D01*
X171632619Y-147693095D01*
X171585000Y-147645476D01*
X171537380Y-147550238D01*
X171537380Y-147312142D01*
X171585000Y-147169285D01*
X169997380Y-149526428D02*
X168997380Y-149526428D01*
X169711666Y-149193095D01*
X168997380Y-148859761D01*
X169997380Y-148859761D01*
X168997380Y-148193095D02*
X168997380Y-148002619D01*
X169045000Y-147907380D01*
X169140238Y-147812142D01*
X169330714Y-147764523D01*
X169664047Y-147764523D01*
X169854523Y-147812142D01*
X169949761Y-147907380D01*
X169997380Y-148002619D01*
X169997380Y-148193095D01*
X169949761Y-148288333D01*
X169854523Y-148383571D01*
X169664047Y-148431190D01*
X169330714Y-148431190D01*
X169140238Y-148383571D01*
X169045000Y-148288333D01*
X168997380Y-148193095D01*
X169949761Y-147383571D02*
X169997380Y-147240714D01*
X169997380Y-147002619D01*
X169949761Y-146907380D01*
X169902142Y-146859761D01*
X169806904Y-146812142D01*
X169711666Y-146812142D01*
X169616428Y-146859761D01*
X169568809Y-146907380D01*
X169521190Y-147002619D01*
X169473571Y-147193095D01*
X169425952Y-147288333D01*
X169378333Y-147335952D01*
X169283095Y-147383571D01*
X169187857Y-147383571D01*
X169092619Y-147335952D01*
X169045000Y-147288333D01*
X168997380Y-147193095D01*
X168997380Y-146955000D01*
X169045000Y-146812142D01*
X169997380Y-146383571D02*
X168997380Y-146383571D01*
X167457380Y-149526428D02*
X166457380Y-149526428D01*
X167171666Y-149193095D01*
X166457380Y-148859761D01*
X167457380Y-148859761D01*
X167457380Y-148383571D02*
X166457380Y-148383571D01*
X167409761Y-147955000D02*
X167457380Y-147812142D01*
X167457380Y-147574047D01*
X167409761Y-147478809D01*
X167362142Y-147431190D01*
X167266904Y-147383571D01*
X167171666Y-147383571D01*
X167076428Y-147431190D01*
X167028809Y-147478809D01*
X166981190Y-147574047D01*
X166933571Y-147764523D01*
X166885952Y-147859761D01*
X166838333Y-147907380D01*
X166743095Y-147955000D01*
X166647857Y-147955000D01*
X166552619Y-147907380D01*
X166505000Y-147859761D01*
X166457380Y-147764523D01*
X166457380Y-147526428D01*
X166505000Y-147383571D01*
X166457380Y-146764523D02*
X166457380Y-146574047D01*
X166505000Y-146478809D01*
X166600238Y-146383571D01*
X166790714Y-146335952D01*
X167124047Y-146335952D01*
X167314523Y-146383571D01*
X167409761Y-146478809D01*
X167457380Y-146574047D01*
X167457380Y-146764523D01*
X167409761Y-146859761D01*
X167314523Y-146955000D01*
X167124047Y-147002619D01*
X166790714Y-147002619D01*
X166600238Y-146955000D01*
X166505000Y-146859761D01*
X166457380Y-146764523D01*
X164869761Y-149240714D02*
X164917380Y-149097857D01*
X164917380Y-148859761D01*
X164869761Y-148764523D01*
X164822142Y-148716904D01*
X164726904Y-148669285D01*
X164631666Y-148669285D01*
X164536428Y-148716904D01*
X164488809Y-148764523D01*
X164441190Y-148859761D01*
X164393571Y-149050238D01*
X164345952Y-149145476D01*
X164298333Y-149193095D01*
X164203095Y-149240714D01*
X164107857Y-149240714D01*
X164012619Y-149193095D01*
X163965000Y-149145476D01*
X163917380Y-149050238D01*
X163917380Y-148812142D01*
X163965000Y-148669285D01*
X164822142Y-147669285D02*
X164869761Y-147716904D01*
X164917380Y-147859761D01*
X164917380Y-147955000D01*
X164869761Y-148097857D01*
X164774523Y-148193095D01*
X164679285Y-148240714D01*
X164488809Y-148288333D01*
X164345952Y-148288333D01*
X164155476Y-148240714D01*
X164060238Y-148193095D01*
X163965000Y-148097857D01*
X163917380Y-147955000D01*
X163917380Y-147859761D01*
X163965000Y-147716904D01*
X164012619Y-147669285D01*
X164917380Y-147240714D02*
X163917380Y-147240714D01*
X164917380Y-146669285D02*
X164345952Y-147097857D01*
X163917380Y-146669285D02*
X164488809Y-147240714D01*
X161425000Y-148716904D02*
X161377380Y-148812142D01*
X161377380Y-148955000D01*
X161425000Y-149097857D01*
X161520238Y-149193095D01*
X161615476Y-149240714D01*
X161805952Y-149288333D01*
X161948809Y-149288333D01*
X162139285Y-149240714D01*
X162234523Y-149193095D01*
X162329761Y-149097857D01*
X162377380Y-148955000D01*
X162377380Y-148859761D01*
X162329761Y-148716904D01*
X162282142Y-148669285D01*
X161948809Y-148669285D01*
X161948809Y-148859761D01*
X162377380Y-148240714D02*
X161377380Y-148240714D01*
X162377380Y-147669285D01*
X161377380Y-147669285D01*
X162377380Y-147193095D02*
X161377380Y-147193095D01*
X161377380Y-146955000D01*
X161425000Y-146812142D01*
X161520238Y-146716904D01*
X161615476Y-146669285D01*
X161805952Y-146621666D01*
X161948809Y-146621666D01*
X162139285Y-146669285D01*
X162234523Y-146716904D01*
X162329761Y-146812142D01*
X162377380Y-146955000D01*
X162377380Y-147193095D01*
X158837380Y-149288333D02*
X159837380Y-148955000D01*
X158837380Y-148621666D01*
X159742142Y-147716904D02*
X159789761Y-147764523D01*
X159837380Y-147907380D01*
X159837380Y-148002619D01*
X159789761Y-148145476D01*
X159694523Y-148240714D01*
X159599285Y-148288333D01*
X159408809Y-148335952D01*
X159265952Y-148335952D01*
X159075476Y-148288333D01*
X158980238Y-148240714D01*
X158885000Y-148145476D01*
X158837380Y-148002619D01*
X158837380Y-147907380D01*
X158885000Y-147764523D01*
X158932619Y-147716904D01*
X159742142Y-146716904D02*
X159789761Y-146764523D01*
X159837380Y-146907380D01*
X159837380Y-147002619D01*
X159789761Y-147145476D01*
X159694523Y-147240714D01*
X159599285Y-147288333D01*
X159408809Y-147335952D01*
X159265952Y-147335952D01*
X159075476Y-147288333D01*
X158980238Y-147240714D01*
X158885000Y-147145476D01*
X158837380Y-147002619D01*
X158837380Y-146907380D01*
X158885000Y-146764523D01*
X158932619Y-146716904D01*
X184658095Y-129675000D02*
X184562857Y-129627380D01*
X184420000Y-129627380D01*
X184277142Y-129675000D01*
X184181904Y-129770238D01*
X184134285Y-129865476D01*
X184086666Y-130055952D01*
X184086666Y-130198809D01*
X184134285Y-130389285D01*
X184181904Y-130484523D01*
X184277142Y-130579761D01*
X184420000Y-130627380D01*
X184515238Y-130627380D01*
X184658095Y-130579761D01*
X184705714Y-130532142D01*
X184705714Y-130198809D01*
X184515238Y-130198809D01*
X185134285Y-130627380D02*
X185134285Y-129627380D01*
X185705714Y-130627380D01*
X185705714Y-129627380D01*
X186181904Y-130627380D02*
X186181904Y-129627380D01*
X186420000Y-129627380D01*
X186562857Y-129675000D01*
X186658095Y-129770238D01*
X186705714Y-129865476D01*
X186753333Y-130055952D01*
X186753333Y-130198809D01*
X186705714Y-130389285D01*
X186658095Y-130484523D01*
X186562857Y-130579761D01*
X186420000Y-130627380D01*
X186181904Y-130627380D01*
X184086666Y-132167380D02*
X184420000Y-133167380D01*
X184753333Y-132167380D01*
X185658095Y-133072142D02*
X185610476Y-133119761D01*
X185467619Y-133167380D01*
X185372380Y-133167380D01*
X185229523Y-133119761D01*
X185134285Y-133024523D01*
X185086666Y-132929285D01*
X185039047Y-132738809D01*
X185039047Y-132595952D01*
X185086666Y-132405476D01*
X185134285Y-132310238D01*
X185229523Y-132215000D01*
X185372380Y-132167380D01*
X185467619Y-132167380D01*
X185610476Y-132215000D01*
X185658095Y-132262619D01*
X186658095Y-133072142D02*
X186610476Y-133119761D01*
X186467619Y-133167380D01*
X186372380Y-133167380D01*
X186229523Y-133119761D01*
X186134285Y-133024523D01*
X186086666Y-132929285D01*
X186039047Y-132738809D01*
X186039047Y-132595952D01*
X186086666Y-132405476D01*
X186134285Y-132310238D01*
X186229523Y-132215000D01*
X186372380Y-132167380D01*
X186467619Y-132167380D01*
X186610476Y-132215000D01*
X186658095Y-132262619D01*
X132786428Y-88280714D02*
X132786428Y-87518809D01*
X133167380Y-87899761D02*
X132405476Y-87899761D01*
X132167380Y-86566428D02*
X132167380Y-87042619D01*
X132643571Y-87090238D01*
X132595952Y-87042619D01*
X132548333Y-86947380D01*
X132548333Y-86709285D01*
X132595952Y-86614047D01*
X132643571Y-86566428D01*
X132738809Y-86518809D01*
X132976904Y-86518809D01*
X133072142Y-86566428D01*
X133119761Y-86614047D01*
X133167380Y-86709285D01*
X133167380Y-86947380D01*
X133119761Y-87042619D01*
X133072142Y-87090238D01*
X132167380Y-86233095D02*
X133167380Y-85899761D01*
X132167380Y-85566428D01*
X135326428Y-88360000D02*
X135326428Y-87598095D01*
X135707380Y-87979047D02*
X134945476Y-87979047D01*
X134707380Y-87217142D02*
X134707380Y-86598095D01*
X135088333Y-86931428D01*
X135088333Y-86788571D01*
X135135952Y-86693333D01*
X135183571Y-86645714D01*
X135278809Y-86598095D01*
X135516904Y-86598095D01*
X135612142Y-86645714D01*
X135659761Y-86693333D01*
X135707380Y-86788571D01*
X135707380Y-87074285D01*
X135659761Y-87169523D01*
X135612142Y-87217142D01*
X135612142Y-86169523D02*
X135659761Y-86121904D01*
X135707380Y-86169523D01*
X135659761Y-86217142D01*
X135612142Y-86169523D01*
X135707380Y-86169523D01*
X134707380Y-85788571D02*
X134707380Y-85169523D01*
X135088333Y-85502857D01*
X135088333Y-85360000D01*
X135135952Y-85264761D01*
X135183571Y-85217142D01*
X135278809Y-85169523D01*
X135516904Y-85169523D01*
X135612142Y-85217142D01*
X135659761Y-85264761D01*
X135707380Y-85360000D01*
X135707380Y-85645714D01*
X135659761Y-85740952D01*
X135612142Y-85788571D01*
X134707380Y-84883809D02*
X135707380Y-84550476D01*
X134707380Y-84217142D01*
X137295000Y-87756904D02*
X137247380Y-87852142D01*
X137247380Y-87995000D01*
X137295000Y-88137857D01*
X137390238Y-88233095D01*
X137485476Y-88280714D01*
X137675952Y-88328333D01*
X137818809Y-88328333D01*
X138009285Y-88280714D01*
X138104523Y-88233095D01*
X138199761Y-88137857D01*
X138247380Y-87995000D01*
X138247380Y-87899761D01*
X138199761Y-87756904D01*
X138152142Y-87709285D01*
X137818809Y-87709285D01*
X137818809Y-87899761D01*
X138247380Y-87280714D02*
X137247380Y-87280714D01*
X138247380Y-86709285D01*
X137247380Y-86709285D01*
X138247380Y-86233095D02*
X137247380Y-86233095D01*
X137247380Y-85995000D01*
X137295000Y-85852142D01*
X137390238Y-85756904D01*
X137485476Y-85709285D01*
X137675952Y-85661666D01*
X137818809Y-85661666D01*
X138009285Y-85709285D01*
X138104523Y-85756904D01*
X138199761Y-85852142D01*
X138247380Y-85995000D01*
X138247380Y-86233095D01*
X161425000Y-87756904D02*
X161377380Y-87852142D01*
X161377380Y-87995000D01*
X161425000Y-88137857D01*
X161520238Y-88233095D01*
X161615476Y-88280714D01*
X161805952Y-88328333D01*
X161948809Y-88328333D01*
X162139285Y-88280714D01*
X162234523Y-88233095D01*
X162329761Y-88137857D01*
X162377380Y-87995000D01*
X162377380Y-87899761D01*
X162329761Y-87756904D01*
X162282142Y-87709285D01*
X161948809Y-87709285D01*
X161948809Y-87899761D01*
X162377380Y-87280714D02*
X161377380Y-87280714D01*
X162377380Y-86709285D01*
X161377380Y-86709285D01*
X162377380Y-86233095D02*
X161377380Y-86233095D01*
X161377380Y-85995000D01*
X161425000Y-85852142D01*
X161520238Y-85756904D01*
X161615476Y-85709285D01*
X161805952Y-85661666D01*
X161948809Y-85661666D01*
X162139285Y-85709285D01*
X162234523Y-85756904D01*
X162329761Y-85852142D01*
X162377380Y-85995000D01*
X162377380Y-86233095D01*
X159456428Y-88280714D02*
X159456428Y-87518809D01*
X159837380Y-87899761D02*
X159075476Y-87899761D01*
X159170714Y-86614047D02*
X159837380Y-86614047D01*
X158789761Y-86852142D02*
X159504047Y-87090238D01*
X159504047Y-86471190D01*
X158837380Y-86233095D02*
X159837380Y-85899761D01*
X158837380Y-85566428D01*
X127770000Y-87756904D02*
X127722380Y-87852142D01*
X127722380Y-87995000D01*
X127770000Y-88137857D01*
X127865238Y-88233095D01*
X127960476Y-88280714D01*
X128150952Y-88328333D01*
X128293809Y-88328333D01*
X128484285Y-88280714D01*
X128579523Y-88233095D01*
X128674761Y-88137857D01*
X128722380Y-87995000D01*
X128722380Y-87899761D01*
X128674761Y-87756904D01*
X128627142Y-87709285D01*
X128293809Y-87709285D01*
X128293809Y-87899761D01*
X128722380Y-87280714D02*
X127722380Y-87280714D01*
X128722380Y-86709285D01*
X127722380Y-86709285D01*
X128722380Y-86233095D02*
X127722380Y-86233095D01*
X127722380Y-85995000D01*
X127770000Y-85852142D01*
X127865238Y-85756904D01*
X127960476Y-85709285D01*
X128150952Y-85661666D01*
X128293809Y-85661666D01*
X128484285Y-85709285D01*
X128579523Y-85756904D01*
X128674761Y-85852142D01*
X128722380Y-85995000D01*
X128722380Y-86233095D01*
X125801428Y-88280714D02*
X125801428Y-87518809D01*
X126182380Y-87899761D02*
X125420476Y-87899761D01*
X125182380Y-86566428D02*
X125182380Y-87042619D01*
X125658571Y-87090238D01*
X125610952Y-87042619D01*
X125563333Y-86947380D01*
X125563333Y-86709285D01*
X125610952Y-86614047D01*
X125658571Y-86566428D01*
X125753809Y-86518809D01*
X125991904Y-86518809D01*
X126087142Y-86566428D01*
X126134761Y-86614047D01*
X126182380Y-86709285D01*
X126182380Y-86947380D01*
X126134761Y-87042619D01*
X126087142Y-87090238D01*
X125182380Y-86233095D02*
X126182380Y-85899761D01*
X125182380Y-85566428D01*
X123007380Y-99163095D02*
X122007380Y-99163095D01*
X122007380Y-98925000D01*
X122055000Y-98782142D01*
X122150238Y-98686904D01*
X122245476Y-98639285D01*
X122435952Y-98591666D01*
X122578809Y-98591666D01*
X122769285Y-98639285D01*
X122864523Y-98686904D01*
X122959761Y-98782142D01*
X123007380Y-98925000D01*
X123007380Y-99163095D01*
X122340714Y-97734523D02*
X123007380Y-97734523D01*
X121959761Y-97972619D02*
X122674047Y-98210714D01*
X122674047Y-97591666D01*
X120467380Y-99163095D02*
X119467380Y-99163095D01*
X119467380Y-98925000D01*
X119515000Y-98782142D01*
X119610238Y-98686904D01*
X119705476Y-98639285D01*
X119895952Y-98591666D01*
X120038809Y-98591666D01*
X120229285Y-98639285D01*
X120324523Y-98686904D01*
X120419761Y-98782142D01*
X120467380Y-98925000D01*
X120467380Y-99163095D01*
X119467380Y-98258333D02*
X119467380Y-97639285D01*
X119848333Y-97972619D01*
X119848333Y-97829761D01*
X119895952Y-97734523D01*
X119943571Y-97686904D01*
X120038809Y-97639285D01*
X120276904Y-97639285D01*
X120372142Y-97686904D01*
X120419761Y-97734523D01*
X120467380Y-97829761D01*
X120467380Y-98115476D01*
X120419761Y-98210714D01*
X120372142Y-98258333D01*
X117927380Y-99163095D02*
X116927380Y-99163095D01*
X116927380Y-98925000D01*
X116975000Y-98782142D01*
X117070238Y-98686904D01*
X117165476Y-98639285D01*
X117355952Y-98591666D01*
X117498809Y-98591666D01*
X117689285Y-98639285D01*
X117784523Y-98686904D01*
X117879761Y-98782142D01*
X117927380Y-98925000D01*
X117927380Y-99163095D01*
X117022619Y-98210714D02*
X116975000Y-98163095D01*
X116927380Y-98067857D01*
X116927380Y-97829761D01*
X116975000Y-97734523D01*
X117022619Y-97686904D01*
X117117857Y-97639285D01*
X117213095Y-97639285D01*
X117355952Y-97686904D01*
X117927380Y-98258333D01*
X117927380Y-97639285D01*
X115387380Y-99163095D02*
X114387380Y-99163095D01*
X114387380Y-98925000D01*
X114435000Y-98782142D01*
X114530238Y-98686904D01*
X114625476Y-98639285D01*
X114815952Y-98591666D01*
X114958809Y-98591666D01*
X115149285Y-98639285D01*
X115244523Y-98686904D01*
X115339761Y-98782142D01*
X115387380Y-98925000D01*
X115387380Y-99163095D01*
X115387380Y-97639285D02*
X115387380Y-98210714D01*
X115387380Y-97925000D02*
X114387380Y-97925000D01*
X114530238Y-98020238D01*
X114625476Y-98115476D01*
X114673095Y-98210714D01*
X112847380Y-98591666D02*
X112371190Y-98925000D01*
X112847380Y-99163095D02*
X111847380Y-99163095D01*
X111847380Y-98782142D01*
X111895000Y-98686904D01*
X111942619Y-98639285D01*
X112037857Y-98591666D01*
X112180714Y-98591666D01*
X112275952Y-98639285D01*
X112323571Y-98686904D01*
X112371190Y-98782142D01*
X112371190Y-99163095D01*
X111847380Y-98258333D02*
X112847380Y-97591666D01*
X111847380Y-97591666D02*
X112847380Y-98258333D01*
X109307380Y-99186904D02*
X109307380Y-98615476D01*
X110307380Y-98901190D02*
X109307380Y-98901190D01*
X109307380Y-98377380D02*
X110307380Y-97710714D01*
X109307380Y-97710714D02*
X110307380Y-98377380D01*
X123642380Y-136628095D02*
X122642380Y-136628095D01*
X122642380Y-136390000D01*
X122690000Y-136247142D01*
X122785238Y-136151904D01*
X122880476Y-136104285D01*
X123070952Y-136056666D01*
X123213809Y-136056666D01*
X123404285Y-136104285D01*
X123499523Y-136151904D01*
X123594761Y-136247142D01*
X123642380Y-136390000D01*
X123642380Y-136628095D01*
X123070952Y-135485238D02*
X123023333Y-135580476D01*
X122975714Y-135628095D01*
X122880476Y-135675714D01*
X122832857Y-135675714D01*
X122737619Y-135628095D01*
X122690000Y-135580476D01*
X122642380Y-135485238D01*
X122642380Y-135294761D01*
X122690000Y-135199523D01*
X122737619Y-135151904D01*
X122832857Y-135104285D01*
X122880476Y-135104285D01*
X122975714Y-135151904D01*
X123023333Y-135199523D01*
X123070952Y-135294761D01*
X123070952Y-135485238D01*
X123118571Y-135580476D01*
X123166190Y-135628095D01*
X123261428Y-135675714D01*
X123451904Y-135675714D01*
X123547142Y-135628095D01*
X123594761Y-135580476D01*
X123642380Y-135485238D01*
X123642380Y-135294761D01*
X123594761Y-135199523D01*
X123547142Y-135151904D01*
X123451904Y-135104285D01*
X123261428Y-135104285D01*
X123166190Y-135151904D01*
X123118571Y-135199523D01*
X123070952Y-135294761D01*
X121102380Y-136628095D02*
X120102380Y-136628095D01*
X120102380Y-136390000D01*
X120150000Y-136247142D01*
X120245238Y-136151904D01*
X120340476Y-136104285D01*
X120530952Y-136056666D01*
X120673809Y-136056666D01*
X120864285Y-136104285D01*
X120959523Y-136151904D01*
X121054761Y-136247142D01*
X121102380Y-136390000D01*
X121102380Y-136628095D01*
X120102380Y-135723333D02*
X120102380Y-135056666D01*
X121102380Y-135485238D01*
X118562380Y-136628095D02*
X117562380Y-136628095D01*
X117562380Y-136390000D01*
X117610000Y-136247142D01*
X117705238Y-136151904D01*
X117800476Y-136104285D01*
X117990952Y-136056666D01*
X118133809Y-136056666D01*
X118324285Y-136104285D01*
X118419523Y-136151904D01*
X118514761Y-136247142D01*
X118562380Y-136390000D01*
X118562380Y-136628095D01*
X117562380Y-135199523D02*
X117562380Y-135390000D01*
X117610000Y-135485238D01*
X117657619Y-135532857D01*
X117800476Y-135628095D01*
X117990952Y-135675714D01*
X118371904Y-135675714D01*
X118467142Y-135628095D01*
X118514761Y-135580476D01*
X118562380Y-135485238D01*
X118562380Y-135294761D01*
X118514761Y-135199523D01*
X118467142Y-135151904D01*
X118371904Y-135104285D01*
X118133809Y-135104285D01*
X118038571Y-135151904D01*
X117990952Y-135199523D01*
X117943333Y-135294761D01*
X117943333Y-135485238D01*
X117990952Y-135580476D01*
X118038571Y-135628095D01*
X118133809Y-135675714D01*
X116022380Y-136628095D02*
X115022380Y-136628095D01*
X115022380Y-136390000D01*
X115070000Y-136247142D01*
X115165238Y-136151904D01*
X115260476Y-136104285D01*
X115450952Y-136056666D01*
X115593809Y-136056666D01*
X115784285Y-136104285D01*
X115879523Y-136151904D01*
X115974761Y-136247142D01*
X116022380Y-136390000D01*
X116022380Y-136628095D01*
X115022380Y-135151904D02*
X115022380Y-135628095D01*
X115498571Y-135675714D01*
X115450952Y-135628095D01*
X115403333Y-135532857D01*
X115403333Y-135294761D01*
X115450952Y-135199523D01*
X115498571Y-135151904D01*
X115593809Y-135104285D01*
X115831904Y-135104285D01*
X115927142Y-135151904D01*
X115974761Y-135199523D01*
X116022380Y-135294761D01*
X116022380Y-135532857D01*
X115974761Y-135628095D01*
X115927142Y-135675714D01*
X113482380Y-136628095D02*
X112482380Y-136628095D01*
X112482380Y-136390000D01*
X112530000Y-136247142D01*
X112625238Y-136151904D01*
X112720476Y-136104285D01*
X112910952Y-136056666D01*
X113053809Y-136056666D01*
X113244285Y-136104285D01*
X113339523Y-136151904D01*
X113434761Y-136247142D01*
X113482380Y-136390000D01*
X113482380Y-136628095D01*
X112482380Y-135437619D02*
X112482380Y-135342380D01*
X112530000Y-135247142D01*
X112577619Y-135199523D01*
X112672857Y-135151904D01*
X112863333Y-135104285D01*
X113101428Y-135104285D01*
X113291904Y-135151904D01*
X113387142Y-135199523D01*
X113434761Y-135247142D01*
X113482380Y-135342380D01*
X113482380Y-135437619D01*
X113434761Y-135532857D01*
X113387142Y-135580476D01*
X113291904Y-135628095D01*
X113101428Y-135675714D01*
X112863333Y-135675714D01*
X112672857Y-135628095D01*
X112577619Y-135580476D01*
X112530000Y-135532857D01*
X112482380Y-135437619D01*
X155392380Y-87161666D02*
X154916190Y-87495000D01*
X155392380Y-87733095D02*
X154392380Y-87733095D01*
X154392380Y-87352142D01*
X154440000Y-87256904D01*
X154487619Y-87209285D01*
X154582857Y-87161666D01*
X154725714Y-87161666D01*
X154820952Y-87209285D01*
X154868571Y-87256904D01*
X154916190Y-87352142D01*
X154916190Y-87733095D01*
X154392380Y-86828333D02*
X155392380Y-86161666D01*
X154392380Y-86161666D02*
X155392380Y-86828333D01*
X151852380Y-87756904D02*
X151852380Y-87185476D01*
X152852380Y-87471190D02*
X151852380Y-87471190D01*
X151852380Y-86947380D02*
X152852380Y-86280714D01*
X151852380Y-86280714D02*
X152852380Y-86947380D01*
X147772380Y-87542619D02*
X147296190Y-87875952D01*
X147772380Y-88114047D02*
X146772380Y-88114047D01*
X146772380Y-87733095D01*
X146820000Y-87637857D01*
X146867619Y-87590238D01*
X146962857Y-87542619D01*
X147105714Y-87542619D01*
X147200952Y-87590238D01*
X147248571Y-87637857D01*
X147296190Y-87733095D01*
X147296190Y-88114047D01*
X146772380Y-87256904D02*
X146772380Y-86685476D01*
X147772380Y-86971190D02*
X146772380Y-86971190D01*
X147724761Y-86399761D02*
X147772380Y-86256904D01*
X147772380Y-86018809D01*
X147724761Y-85923571D01*
X147677142Y-85875952D01*
X147581904Y-85828333D01*
X147486666Y-85828333D01*
X147391428Y-85875952D01*
X147343809Y-85923571D01*
X147296190Y-86018809D01*
X147248571Y-86209285D01*
X147200952Y-86304523D01*
X147153333Y-86352142D01*
X147058095Y-86399761D01*
X146962857Y-86399761D01*
X146867619Y-86352142D01*
X146820000Y-86304523D01*
X146772380Y-86209285D01*
X146772380Y-85971190D01*
X146820000Y-85828333D01*
X150312380Y-88137857D02*
X149312380Y-88137857D01*
X149312380Y-87899761D01*
X149360000Y-87756904D01*
X149455238Y-87661666D01*
X149550476Y-87614047D01*
X149740952Y-87566428D01*
X149883809Y-87566428D01*
X150074285Y-87614047D01*
X150169523Y-87661666D01*
X150264761Y-87756904D01*
X150312380Y-87899761D01*
X150312380Y-88137857D01*
X149312380Y-87280714D02*
X149312380Y-86709285D01*
X150312380Y-86995000D02*
X149312380Y-86995000D01*
X150312380Y-85804523D02*
X149836190Y-86137857D01*
X150312380Y-86375952D02*
X149312380Y-86375952D01*
X149312380Y-85995000D01*
X149360000Y-85899761D01*
X149407619Y-85852142D01*
X149502857Y-85804523D01*
X149645714Y-85804523D01*
X149740952Y-85852142D01*
X149788571Y-85899761D01*
X149836190Y-85995000D01*
X149836190Y-86375952D01*
X142311428Y-88280714D02*
X142311428Y-87518809D01*
X142692380Y-87899761D02*
X141930476Y-87899761D01*
X141692380Y-86566428D02*
X141692380Y-87042619D01*
X142168571Y-87090238D01*
X142120952Y-87042619D01*
X142073333Y-86947380D01*
X142073333Y-86709285D01*
X142120952Y-86614047D01*
X142168571Y-86566428D01*
X142263809Y-86518809D01*
X142501904Y-86518809D01*
X142597142Y-86566428D01*
X142644761Y-86614047D01*
X142692380Y-86709285D01*
X142692380Y-86947380D01*
X142644761Y-87042619D01*
X142597142Y-87090238D01*
X141692380Y-86233095D02*
X142692380Y-85899761D01*
X141692380Y-85566428D01*
X144280000Y-87756904D02*
X144232380Y-87852142D01*
X144232380Y-87995000D01*
X144280000Y-88137857D01*
X144375238Y-88233095D01*
X144470476Y-88280714D01*
X144660952Y-88328333D01*
X144803809Y-88328333D01*
X144994285Y-88280714D01*
X145089523Y-88233095D01*
X145184761Y-88137857D01*
X145232380Y-87995000D01*
X145232380Y-87899761D01*
X145184761Y-87756904D01*
X145137142Y-87709285D01*
X144803809Y-87709285D01*
X144803809Y-87899761D01*
X145232380Y-87280714D02*
X144232380Y-87280714D01*
X145232380Y-86709285D01*
X144232380Y-86709285D01*
X145232380Y-86233095D02*
X144232380Y-86233095D01*
X144232380Y-85995000D01*
X144280000Y-85852142D01*
X144375238Y-85756904D01*
X144470476Y-85709285D01*
X144660952Y-85661666D01*
X144803809Y-85661666D01*
X144994285Y-85709285D01*
X145089523Y-85756904D01*
X145184761Y-85852142D01*
X145232380Y-85995000D01*
X145232380Y-86233095D01*
X184229523Y-128039761D02*
X184372380Y-128087380D01*
X184610476Y-128087380D01*
X184705714Y-128039761D01*
X184753333Y-127992142D01*
X184800952Y-127896904D01*
X184800952Y-127801666D01*
X184753333Y-127706428D01*
X184705714Y-127658809D01*
X184610476Y-127611190D01*
X184420000Y-127563571D01*
X184324761Y-127515952D01*
X184277142Y-127468333D01*
X184229523Y-127373095D01*
X184229523Y-127277857D01*
X184277142Y-127182619D01*
X184324761Y-127135000D01*
X184420000Y-127087380D01*
X184658095Y-127087380D01*
X184800952Y-127135000D01*
X185800952Y-127992142D02*
X185753333Y-128039761D01*
X185610476Y-128087380D01*
X185515238Y-128087380D01*
X185372380Y-128039761D01*
X185277142Y-127944523D01*
X185229523Y-127849285D01*
X185181904Y-127658809D01*
X185181904Y-127515952D01*
X185229523Y-127325476D01*
X185277142Y-127230238D01*
X185372380Y-127135000D01*
X185515238Y-127087380D01*
X185610476Y-127087380D01*
X185753333Y-127135000D01*
X185800952Y-127182619D01*
X186705714Y-128087380D02*
X186229523Y-128087380D01*
X186229523Y-127087380D01*
X154471666Y-113744285D02*
X154471666Y-113268095D01*
X154757380Y-113839523D02*
X153757380Y-113506190D01*
X154757380Y-113172857D01*
X153757380Y-112649047D02*
X153757380Y-112553809D01*
X153805000Y-112458571D01*
X153852619Y-112410952D01*
X153947857Y-112363333D01*
X154138333Y-112315714D01*
X154376428Y-112315714D01*
X154566904Y-112363333D01*
X154662142Y-112410952D01*
X154709761Y-112458571D01*
X154757380Y-112553809D01*
X154757380Y-112649047D01*
X154709761Y-112744285D01*
X154662142Y-112791904D01*
X154566904Y-112839523D01*
X154376428Y-112887142D01*
X154138333Y-112887142D01*
X153947857Y-112839523D01*
X153852619Y-112791904D01*
X153805000Y-112744285D01*
X153757380Y-112649047D01*
X151931666Y-113744285D02*
X151931666Y-113268095D01*
X152217380Y-113839523D02*
X151217380Y-113506190D01*
X152217380Y-113172857D01*
X152217380Y-112315714D02*
X152217380Y-112887142D01*
X152217380Y-112601428D02*
X151217380Y-112601428D01*
X151360238Y-112696666D01*
X151455476Y-112791904D01*
X151503095Y-112887142D01*
X149391666Y-113744285D02*
X149391666Y-113268095D01*
X149677380Y-113839523D02*
X148677380Y-113506190D01*
X149677380Y-113172857D01*
X148772619Y-112887142D02*
X148725000Y-112839523D01*
X148677380Y-112744285D01*
X148677380Y-112506190D01*
X148725000Y-112410952D01*
X148772619Y-112363333D01*
X148867857Y-112315714D01*
X148963095Y-112315714D01*
X149105952Y-112363333D01*
X149677380Y-112934761D01*
X149677380Y-112315714D01*
X146851666Y-113744285D02*
X146851666Y-113268095D01*
X147137380Y-113839523D02*
X146137380Y-113506190D01*
X147137380Y-113172857D01*
X146137380Y-112934761D02*
X146137380Y-112315714D01*
X146518333Y-112649047D01*
X146518333Y-112506190D01*
X146565952Y-112410952D01*
X146613571Y-112363333D01*
X146708809Y-112315714D01*
X146946904Y-112315714D01*
X147042142Y-112363333D01*
X147089761Y-112410952D01*
X147137380Y-112506190D01*
X147137380Y-112791904D01*
X147089761Y-112887142D01*
X147042142Y-112934761D01*
X144311666Y-113744285D02*
X144311666Y-113268095D01*
X144597380Y-113839523D02*
X143597380Y-113506190D01*
X144597380Y-113172857D01*
X143930714Y-112410952D02*
X144597380Y-112410952D01*
X143549761Y-112649047D02*
X144264047Y-112887142D01*
X144264047Y-112268095D01*
X141771666Y-113744285D02*
X141771666Y-113268095D01*
X142057380Y-113839523D02*
X141057380Y-113506190D01*
X142057380Y-113172857D01*
X141057380Y-112363333D02*
X141057380Y-112839523D01*
X141533571Y-112887142D01*
X141485952Y-112839523D01*
X141438333Y-112744285D01*
X141438333Y-112506190D01*
X141485952Y-112410952D01*
X141533571Y-112363333D01*
X141628809Y-112315714D01*
X141866904Y-112315714D01*
X141962142Y-112363333D01*
X142009761Y-112410952D01*
X142057380Y-112506190D01*
X142057380Y-112744285D01*
X142009761Y-112839523D01*
X141962142Y-112887142D01*
X139231666Y-113744285D02*
X139231666Y-113268095D01*
X139517380Y-113839523D02*
X138517380Y-113506190D01*
X139517380Y-113172857D01*
X138517380Y-112410952D02*
X138517380Y-112601428D01*
X138565000Y-112696666D01*
X138612619Y-112744285D01*
X138755476Y-112839523D01*
X138945952Y-112887142D01*
X139326904Y-112887142D01*
X139422142Y-112839523D01*
X139469761Y-112791904D01*
X139517380Y-112696666D01*
X139517380Y-112506190D01*
X139469761Y-112410952D01*
X139422142Y-112363333D01*
X139326904Y-112315714D01*
X139088809Y-112315714D01*
X138993571Y-112363333D01*
X138945952Y-112410952D01*
X138898333Y-112506190D01*
X138898333Y-112696666D01*
X138945952Y-112791904D01*
X138993571Y-112839523D01*
X139088809Y-112887142D01*
X136691666Y-113744285D02*
X136691666Y-113268095D01*
X136977380Y-113839523D02*
X135977380Y-113506190D01*
X136977380Y-113172857D01*
X135977380Y-112934761D02*
X135977380Y-112268095D01*
X136977380Y-112696666D01*
X134437380Y-113768095D02*
X133437380Y-113768095D01*
X133437380Y-113530000D01*
X133485000Y-113387142D01*
X133580238Y-113291904D01*
X133675476Y-113244285D01*
X133865952Y-113196666D01*
X134008809Y-113196666D01*
X134199285Y-113244285D01*
X134294523Y-113291904D01*
X134389761Y-113387142D01*
X134437380Y-113530000D01*
X134437380Y-113768095D01*
X133437380Y-112577619D02*
X133437380Y-112482380D01*
X133485000Y-112387142D01*
X133532619Y-112339523D01*
X133627857Y-112291904D01*
X133818333Y-112244285D01*
X134056428Y-112244285D01*
X134246904Y-112291904D01*
X134342142Y-112339523D01*
X134389761Y-112387142D01*
X134437380Y-112482380D01*
X134437380Y-112577619D01*
X134389761Y-112672857D01*
X134342142Y-112720476D01*
X134246904Y-112768095D01*
X134056428Y-112815714D01*
X133818333Y-112815714D01*
X133627857Y-112768095D01*
X133532619Y-112720476D01*
X133485000Y-112672857D01*
X133437380Y-112577619D01*
X131897380Y-113768095D02*
X130897380Y-113768095D01*
X130897380Y-113530000D01*
X130945000Y-113387142D01*
X131040238Y-113291904D01*
X131135476Y-113244285D01*
X131325952Y-113196666D01*
X131468809Y-113196666D01*
X131659285Y-113244285D01*
X131754523Y-113291904D01*
X131849761Y-113387142D01*
X131897380Y-113530000D01*
X131897380Y-113768095D01*
X131897380Y-112244285D02*
X131897380Y-112815714D01*
X131897380Y-112530000D02*
X130897380Y-112530000D01*
X131040238Y-112625238D01*
X131135476Y-112720476D01*
X131183095Y-112815714D01*
X154757380Y-149169285D02*
X153757380Y-149169285D01*
X153757380Y-148931190D01*
X153805000Y-148788333D01*
X153900238Y-148693095D01*
X153995476Y-148645476D01*
X154185952Y-148597857D01*
X154328809Y-148597857D01*
X154519285Y-148645476D01*
X154614523Y-148693095D01*
X154709761Y-148788333D01*
X154757380Y-148931190D01*
X154757380Y-149169285D01*
X154757380Y-147645476D02*
X154757380Y-148216904D01*
X154757380Y-147931190D02*
X153757380Y-147931190D01*
X153900238Y-148026428D01*
X153995476Y-148121666D01*
X154043095Y-148216904D01*
X153757380Y-147312142D02*
X153757380Y-146693095D01*
X154138333Y-147026428D01*
X154138333Y-146883571D01*
X154185952Y-146788333D01*
X154233571Y-146740714D01*
X154328809Y-146693095D01*
X154566904Y-146693095D01*
X154662142Y-146740714D01*
X154709761Y-146788333D01*
X154757380Y-146883571D01*
X154757380Y-147169285D01*
X154709761Y-147264523D01*
X154662142Y-147312142D01*
X152217380Y-149169285D02*
X151217380Y-149169285D01*
X151217380Y-148931190D01*
X151265000Y-148788333D01*
X151360238Y-148693095D01*
X151455476Y-148645476D01*
X151645952Y-148597857D01*
X151788809Y-148597857D01*
X151979285Y-148645476D01*
X152074523Y-148693095D01*
X152169761Y-148788333D01*
X152217380Y-148931190D01*
X152217380Y-149169285D01*
X152217380Y-147645476D02*
X152217380Y-148216904D01*
X152217380Y-147931190D02*
X151217380Y-147931190D01*
X151360238Y-148026428D01*
X151455476Y-148121666D01*
X151503095Y-148216904D01*
X151312619Y-147264523D02*
X151265000Y-147216904D01*
X151217380Y-147121666D01*
X151217380Y-146883571D01*
X151265000Y-146788333D01*
X151312619Y-146740714D01*
X151407857Y-146693095D01*
X151503095Y-146693095D01*
X151645952Y-146740714D01*
X152217380Y-147312142D01*
X152217380Y-146693095D01*
X149677380Y-149169285D02*
X148677380Y-149169285D01*
X148677380Y-148931190D01*
X148725000Y-148788333D01*
X148820238Y-148693095D01*
X148915476Y-148645476D01*
X149105952Y-148597857D01*
X149248809Y-148597857D01*
X149439285Y-148645476D01*
X149534523Y-148693095D01*
X149629761Y-148788333D01*
X149677380Y-148931190D01*
X149677380Y-149169285D01*
X149677380Y-147645476D02*
X149677380Y-148216904D01*
X149677380Y-147931190D02*
X148677380Y-147931190D01*
X148820238Y-148026428D01*
X148915476Y-148121666D01*
X148963095Y-148216904D01*
X149677380Y-146693095D02*
X149677380Y-147264523D01*
X149677380Y-146978809D02*
X148677380Y-146978809D01*
X148820238Y-147074047D01*
X148915476Y-147169285D01*
X148963095Y-147264523D01*
X147137380Y-149169285D02*
X146137380Y-149169285D01*
X146137380Y-148931190D01*
X146185000Y-148788333D01*
X146280238Y-148693095D01*
X146375476Y-148645476D01*
X146565952Y-148597857D01*
X146708809Y-148597857D01*
X146899285Y-148645476D01*
X146994523Y-148693095D01*
X147089761Y-148788333D01*
X147137380Y-148931190D01*
X147137380Y-149169285D01*
X147137380Y-147645476D02*
X147137380Y-148216904D01*
X147137380Y-147931190D02*
X146137380Y-147931190D01*
X146280238Y-148026428D01*
X146375476Y-148121666D01*
X146423095Y-148216904D01*
X146137380Y-147026428D02*
X146137380Y-146931190D01*
X146185000Y-146835952D01*
X146232619Y-146788333D01*
X146327857Y-146740714D01*
X146518333Y-146693095D01*
X146756428Y-146693095D01*
X146946904Y-146740714D01*
X147042142Y-146788333D01*
X147089761Y-146835952D01*
X147137380Y-146931190D01*
X147137380Y-147026428D01*
X147089761Y-147121666D01*
X147042142Y-147169285D01*
X146946904Y-147216904D01*
X146756428Y-147264523D01*
X146518333Y-147264523D01*
X146327857Y-147216904D01*
X146232619Y-147169285D01*
X146185000Y-147121666D01*
X146137380Y-147026428D01*
X144597380Y-148058095D02*
X143597380Y-148058095D01*
X143597380Y-147820000D01*
X143645000Y-147677142D01*
X143740238Y-147581904D01*
X143835476Y-147534285D01*
X144025952Y-147486666D01*
X144168809Y-147486666D01*
X144359285Y-147534285D01*
X144454523Y-147581904D01*
X144549761Y-147677142D01*
X144597380Y-147820000D01*
X144597380Y-148058095D01*
X144597380Y-147010476D02*
X144597380Y-146820000D01*
X144549761Y-146724761D01*
X144502142Y-146677142D01*
X144359285Y-146581904D01*
X144168809Y-146534285D01*
X143787857Y-146534285D01*
X143692619Y-146581904D01*
X143645000Y-146629523D01*
X143597380Y-146724761D01*
X143597380Y-146915238D01*
X143645000Y-147010476D01*
X143692619Y-147058095D01*
X143787857Y-147105714D01*
X144025952Y-147105714D01*
X144121190Y-147058095D01*
X144168809Y-147010476D01*
X144216428Y-146915238D01*
X144216428Y-146724761D01*
X144168809Y-146629523D01*
X144121190Y-146581904D01*
X144025952Y-146534285D01*
X142057380Y-148058095D02*
X141057380Y-148058095D01*
X141057380Y-147820000D01*
X141105000Y-147677142D01*
X141200238Y-147581904D01*
X141295476Y-147534285D01*
X141485952Y-147486666D01*
X141628809Y-147486666D01*
X141819285Y-147534285D01*
X141914523Y-147581904D01*
X142009761Y-147677142D01*
X142057380Y-147820000D01*
X142057380Y-148058095D01*
X141485952Y-146915238D02*
X141438333Y-147010476D01*
X141390714Y-147058095D01*
X141295476Y-147105714D01*
X141247857Y-147105714D01*
X141152619Y-147058095D01*
X141105000Y-147010476D01*
X141057380Y-146915238D01*
X141057380Y-146724761D01*
X141105000Y-146629523D01*
X141152619Y-146581904D01*
X141247857Y-146534285D01*
X141295476Y-146534285D01*
X141390714Y-146581904D01*
X141438333Y-146629523D01*
X141485952Y-146724761D01*
X141485952Y-146915238D01*
X141533571Y-147010476D01*
X141581190Y-147058095D01*
X141676428Y-147105714D01*
X141866904Y-147105714D01*
X141962142Y-147058095D01*
X142009761Y-147010476D01*
X142057380Y-146915238D01*
X142057380Y-146724761D01*
X142009761Y-146629523D01*
X141962142Y-146581904D01*
X141866904Y-146534285D01*
X141676428Y-146534285D01*
X141581190Y-146581904D01*
X141533571Y-146629523D01*
X141485952Y-146724761D01*
X139517380Y-148058095D02*
X138517380Y-148058095D01*
X138517380Y-147820000D01*
X138565000Y-147677142D01*
X138660238Y-147581904D01*
X138755476Y-147534285D01*
X138945952Y-147486666D01*
X139088809Y-147486666D01*
X139279285Y-147534285D01*
X139374523Y-147581904D01*
X139469761Y-147677142D01*
X139517380Y-147820000D01*
X139517380Y-148058095D01*
X138517380Y-147153333D02*
X138517380Y-146486666D01*
X139517380Y-146915238D01*
X136977380Y-148058095D02*
X135977380Y-148058095D01*
X135977380Y-147820000D01*
X136025000Y-147677142D01*
X136120238Y-147581904D01*
X136215476Y-147534285D01*
X136405952Y-147486666D01*
X136548809Y-147486666D01*
X136739285Y-147534285D01*
X136834523Y-147581904D01*
X136929761Y-147677142D01*
X136977380Y-147820000D01*
X136977380Y-148058095D01*
X135977380Y-146629523D02*
X135977380Y-146820000D01*
X136025000Y-146915238D01*
X136072619Y-146962857D01*
X136215476Y-147058095D01*
X136405952Y-147105714D01*
X136786904Y-147105714D01*
X136882142Y-147058095D01*
X136929761Y-147010476D01*
X136977380Y-146915238D01*
X136977380Y-146724761D01*
X136929761Y-146629523D01*
X136882142Y-146581904D01*
X136786904Y-146534285D01*
X136548809Y-146534285D01*
X136453571Y-146581904D01*
X136405952Y-146629523D01*
X136358333Y-146724761D01*
X136358333Y-146915238D01*
X136405952Y-147010476D01*
X136453571Y-147058095D01*
X136548809Y-147105714D01*
X134437380Y-148058095D02*
X133437380Y-148058095D01*
X133437380Y-147820000D01*
X133485000Y-147677142D01*
X133580238Y-147581904D01*
X133675476Y-147534285D01*
X133865952Y-147486666D01*
X134008809Y-147486666D01*
X134199285Y-147534285D01*
X134294523Y-147581904D01*
X134389761Y-147677142D01*
X134437380Y-147820000D01*
X134437380Y-148058095D01*
X133437380Y-146581904D02*
X133437380Y-147058095D01*
X133913571Y-147105714D01*
X133865952Y-147058095D01*
X133818333Y-146962857D01*
X133818333Y-146724761D01*
X133865952Y-146629523D01*
X133913571Y-146581904D01*
X134008809Y-146534285D01*
X134246904Y-146534285D01*
X134342142Y-146581904D01*
X134389761Y-146629523D01*
X134437380Y-146724761D01*
X134437380Y-146962857D01*
X134389761Y-147058095D01*
X134342142Y-147105714D01*
X131897380Y-148058095D02*
X130897380Y-148058095D01*
X130897380Y-147820000D01*
X130945000Y-147677142D01*
X131040238Y-147581904D01*
X131135476Y-147534285D01*
X131325952Y-147486666D01*
X131468809Y-147486666D01*
X131659285Y-147534285D01*
X131754523Y-147581904D01*
X131849761Y-147677142D01*
X131897380Y-147820000D01*
X131897380Y-148058095D01*
X131230714Y-146629523D02*
X131897380Y-146629523D01*
X130849761Y-146867619D02*
X131564047Y-147105714D01*
X131564047Y-146486666D01*
X129357380Y-148058095D02*
X128357380Y-148058095D01*
X128357380Y-147820000D01*
X128405000Y-147677142D01*
X128500238Y-147581904D01*
X128595476Y-147534285D01*
X128785952Y-147486666D01*
X128928809Y-147486666D01*
X129119285Y-147534285D01*
X129214523Y-147581904D01*
X129309761Y-147677142D01*
X129357380Y-147820000D01*
X129357380Y-148058095D01*
X128357380Y-147153333D02*
X128357380Y-146534285D01*
X128738333Y-146867619D01*
X128738333Y-146724761D01*
X128785952Y-146629523D01*
X128833571Y-146581904D01*
X128928809Y-146534285D01*
X129166904Y-146534285D01*
X129262142Y-146581904D01*
X129309761Y-146629523D01*
X129357380Y-146724761D01*
X129357380Y-147010476D01*
X129309761Y-147105714D01*
X129262142Y-147153333D01*
X110656666Y-137128095D02*
X110656666Y-136651904D01*
X110942380Y-137223333D02*
X109942380Y-136890000D01*
X110942380Y-136556666D01*
X110942380Y-136223333D02*
X109942380Y-136223333D01*
X109942380Y-135985238D01*
X109990000Y-135842380D01*
X110085238Y-135747142D01*
X110180476Y-135699523D01*
X110370952Y-135651904D01*
X110513809Y-135651904D01*
X110704285Y-135699523D01*
X110799523Y-135747142D01*
X110894761Y-135842380D01*
X110942380Y-135985238D01*
X110942380Y-136223333D01*
X110847142Y-134651904D02*
X110894761Y-134699523D01*
X110942380Y-134842380D01*
X110942380Y-134937619D01*
X110894761Y-135080476D01*
X110799523Y-135175714D01*
X110704285Y-135223333D01*
X110513809Y-135270952D01*
X110370952Y-135270952D01*
X110180476Y-135223333D01*
X110085238Y-135175714D01*
X109990000Y-135080476D01*
X109942380Y-134937619D01*
X109942380Y-134842380D01*
X109990000Y-134699523D01*
X110037619Y-134651904D01*
D11*
%TO.C,U3*%
X109965000Y-108085000D02*
X109565000Y-108085000D01*
X109965000Y-124325000D02*
X109565000Y-124325000D01*
X111965000Y-108085000D02*
X111565000Y-108085000D01*
X111965000Y-124325000D02*
X111565000Y-124325000D01*
X113965000Y-108085000D02*
X113565000Y-108085000D01*
X113965000Y-124325000D02*
X113565000Y-124325000D01*
X115965000Y-108085000D02*
X115565000Y-108085000D01*
X115965000Y-124325000D02*
X115565000Y-124325000D01*
X117965000Y-108085000D02*
X117565000Y-108085000D01*
X117965000Y-124325000D02*
X117565000Y-124325000D01*
X119965000Y-108085000D02*
X119565000Y-108085000D01*
X119965000Y-124325000D02*
X119565000Y-124325000D01*
X121965000Y-108085000D02*
X121565000Y-108085000D01*
X121965000Y-124325000D02*
X121565000Y-124325000D01*
X108265000Y-125355000D02*
X109265000Y-125355000D01*
X124385000Y-124325000D02*
X123565000Y-124325000D01*
X124385000Y-108085000D02*
X124385000Y-124325000D01*
X123565000Y-108085000D02*
X124385000Y-108085000D01*
%TO.C,C4*%
X143410000Y-106538752D02*
X143410000Y-106016248D01*
X144880000Y-106538752D02*
X144880000Y-106016248D01*
%TO.C,U1*%
X141840000Y-102205000D02*
X140580000Y-102205000D01*
X135020000Y-102205000D02*
X136280000Y-102205000D01*
X141840000Y-105965000D02*
X141840000Y-102205000D01*
X135020000Y-108215000D02*
X135020000Y-102205000D01*
%TO.C,R1*%
X147277064Y-125630000D02*
X146822936Y-125630000D01*
X147277064Y-127100000D02*
X146822936Y-127100000D01*
%TO.C,U4*%
X158620000Y-137640000D02*
X158620000Y-138540000D01*
X158270000Y-137640000D02*
X158620000Y-137640000D01*
X174470000Y-121440000D02*
X174070000Y-121440000D01*
X174470000Y-137640000D02*
X174470000Y-121440000D01*
X174070000Y-137640000D02*
X174470000Y-137640000D01*
X158270000Y-121440000D02*
X158670000Y-121440000D01*
X158270000Y-137640000D02*
X158270000Y-121440000D01*
%TO.C,C2*%
X129511248Y-137695000D02*
X130033752Y-137695000D01*
X129511248Y-139165000D02*
X130033752Y-139165000D01*
%TO.C,C1*%
X147348752Y-124560000D02*
X146826248Y-124560000D01*
X147348752Y-123090000D02*
X146826248Y-123090000D01*
%TO.C,C3*%
X129568752Y-121185000D02*
X129046248Y-121185000D01*
X129568752Y-122655000D02*
X129046248Y-122655000D01*
%TO.C,C5*%
X146826248Y-130275000D02*
X147348752Y-130275000D01*
X146826248Y-128805000D02*
X147348752Y-128805000D01*
D13*
%TO.C,U2*%
X134805000Y-125915000D02*
X134805000Y-126140000D01*
X142055000Y-125915000D02*
X142055000Y-126240000D01*
X142055000Y-133165000D02*
X142055000Y-132840000D01*
X134805000Y-133165000D02*
X134805000Y-132840000D01*
X134805000Y-125915000D02*
X135130000Y-125915000D01*
X134805000Y-133165000D02*
X135130000Y-133165000D01*
X142055000Y-133165000D02*
X141730000Y-133165000D01*
X142055000Y-125915000D02*
X141730000Y-125915000D01*
X134805000Y-126140000D02*
X133380000Y-126140000D01*
D11*
%TO.C,SW1*%
X152495000Y-126970000D02*
X156115000Y-126970000D01*
X152495000Y-133090000D02*
X152495000Y-126970000D01*
X156115000Y-133090000D02*
X152495000Y-133090000D01*
X156115000Y-126970000D02*
X156115000Y-133090000D01*
%TO.C,SW2*%
X119120000Y-137890000D02*
X119120000Y-141510000D01*
X113000000Y-137890000D02*
X119120000Y-137890000D01*
X113000000Y-141510000D02*
X113000000Y-137890000D01*
X119120000Y-141510000D02*
X113000000Y-141510000D01*
%TO.C,AE1*%
X191365000Y-127025000D02*
X190565000Y-127025000D01*
X191365000Y-126825000D02*
X191365000Y-127025000D01*
X188365000Y-127025000D02*
X188365000Y-126825000D01*
X189165000Y-127025000D02*
X188365000Y-127025000D01*
X188365000Y-124025000D02*
X189165000Y-124025000D01*
X188365000Y-124225000D02*
X188365000Y-124025000D01*
X191165000Y-124025000D02*
X191365000Y-124225000D01*
X190565000Y-124025000D02*
X191165000Y-124025000D01*
X190565000Y-124025000D02*
X190565000Y-123525000D01*
X189165000Y-124025000D02*
X189165000Y-123525000D01*
%TO.C,C7*%
X146826248Y-135155000D02*
X147348752Y-135155000D01*
X146826248Y-136625000D02*
X147348752Y-136625000D01*
%TO.C,C8*%
X146826248Y-132615000D02*
X147348752Y-132615000D01*
X146826248Y-134085000D02*
X147348752Y-134085000D01*
%TO.C,Y1*%
X126355000Y-124080000D02*
X126355000Y-136680000D01*
X126355000Y-136680000D02*
X131455000Y-136680000D01*
X131455000Y-136680000D02*
X131455000Y-124080000D01*
D13*
%TO.C,U5*%
X181365000Y-96640000D02*
X181365000Y-119640000D01*
X181365000Y-96640000D02*
X156365000Y-96640000D01*
X156365000Y-96640000D02*
X156365000Y-119640000D01*
X156365000Y-119640000D02*
X181365000Y-119640000D01*
D11*
%TO.C,J1*%
X108870000Y-127780000D02*
X108870000Y-133800000D01*
X108870000Y-133800000D02*
X124330000Y-133800000D01*
X124330000Y-133800000D02*
X124330000Y-127780000D01*
X124330000Y-127780000D02*
X108870000Y-127780000D01*
X108580000Y-128810000D02*
X108580000Y-132810000D01*
X110250000Y-133800000D02*
X110250000Y-132800000D01*
X110250000Y-132800000D02*
X122950000Y-132800000D01*
X122950000Y-132800000D02*
X122950000Y-133800000D01*
X110250000Y-132800000D02*
X110500000Y-132270000D01*
X110500000Y-132270000D02*
X122700000Y-132270000D01*
X122700000Y-132270000D02*
X122950000Y-132800000D01*
X110500000Y-133800000D02*
X110500000Y-132800000D01*
X122700000Y-133800000D02*
X122700000Y-132800000D01*
X109450000Y-127780000D02*
X109450000Y-128380000D01*
X109450000Y-128380000D02*
X111050000Y-128380000D01*
X111050000Y-128380000D02*
X111050000Y-127780000D01*
X111990000Y-127780000D02*
X111990000Y-128380000D01*
X111990000Y-128380000D02*
X113590000Y-128380000D01*
X113590000Y-128380000D02*
X113590000Y-127780000D01*
X114530000Y-127780000D02*
X114530000Y-128380000D01*
X114530000Y-128380000D02*
X116130000Y-128380000D01*
X116130000Y-128380000D02*
X116130000Y-127780000D01*
X117070000Y-127780000D02*
X117070000Y-128380000D01*
X117070000Y-128380000D02*
X118670000Y-128380000D01*
X118670000Y-128380000D02*
X118670000Y-127780000D01*
X119610000Y-127780000D02*
X119610000Y-128380000D01*
X119610000Y-128380000D02*
X121210000Y-128380000D01*
X121210000Y-128380000D02*
X121210000Y-127780000D01*
X122150000Y-127780000D02*
X122150000Y-128380000D01*
X122150000Y-128380000D02*
X123750000Y-128380000D01*
X123750000Y-128380000D02*
X123750000Y-127780000D01*
%TO.C,J3*%
X127900000Y-119905000D02*
X127900000Y-120505000D01*
X129500000Y-119905000D02*
X127900000Y-119905000D01*
X129500000Y-120505000D02*
X129500000Y-119905000D01*
X130440000Y-119905000D02*
X130440000Y-120505000D01*
X132040000Y-119905000D02*
X130440000Y-119905000D01*
X132040000Y-120505000D02*
X132040000Y-119905000D01*
X132980000Y-119905000D02*
X132980000Y-120505000D01*
X134580000Y-119905000D02*
X132980000Y-119905000D01*
X134580000Y-120505000D02*
X134580000Y-119905000D01*
X135520000Y-119905000D02*
X135520000Y-120505000D01*
X137120000Y-119905000D02*
X135520000Y-119905000D01*
X137120000Y-120505000D02*
X137120000Y-119905000D01*
X138060000Y-119905000D02*
X138060000Y-120505000D01*
X139660000Y-119905000D02*
X138060000Y-119905000D01*
X139660000Y-120505000D02*
X139660000Y-119905000D01*
X140600000Y-119905000D02*
X140600000Y-120505000D01*
X142200000Y-119905000D02*
X140600000Y-119905000D01*
X142200000Y-120505000D02*
X142200000Y-119905000D01*
X143140000Y-119905000D02*
X143140000Y-120505000D01*
X144740000Y-119905000D02*
X143140000Y-119905000D01*
X144740000Y-120505000D02*
X144740000Y-119905000D01*
X145680000Y-119905000D02*
X145680000Y-120505000D01*
X147280000Y-119905000D02*
X145680000Y-119905000D01*
X147280000Y-120505000D02*
X147280000Y-119905000D01*
X148220000Y-119905000D02*
X148220000Y-120505000D01*
X149820000Y-119905000D02*
X148220000Y-119905000D01*
X149820000Y-120505000D02*
X149820000Y-119905000D01*
X150760000Y-119905000D02*
X150760000Y-120505000D01*
X152360000Y-119905000D02*
X150760000Y-119905000D01*
X152360000Y-120505000D02*
X152360000Y-119905000D01*
X153300000Y-119905000D02*
X153300000Y-120505000D01*
X154900000Y-119905000D02*
X153300000Y-119905000D01*
X154900000Y-120505000D02*
X154900000Y-119905000D01*
X128950000Y-114485000D02*
X128950000Y-115485000D01*
X133780000Y-116015000D02*
X133780000Y-115485000D01*
X128950000Y-116015000D02*
X133780000Y-116015000D01*
X128700000Y-115485000D02*
X128950000Y-116015000D01*
X133780000Y-115485000D02*
X133780000Y-114485000D01*
X128700000Y-115485000D02*
X133780000Y-115485000D01*
X128700000Y-114485000D02*
X128700000Y-115485000D01*
X153850000Y-114485000D02*
X153850000Y-115485000D01*
X149020000Y-116015000D02*
X149020000Y-115485000D01*
X153850000Y-116015000D02*
X149020000Y-116015000D01*
X154100000Y-115485000D02*
X153850000Y-116015000D01*
X149020000Y-115485000D02*
X149020000Y-114485000D01*
X154100000Y-115485000D02*
X149020000Y-115485000D01*
X154100000Y-114485000D02*
X154100000Y-115485000D01*
X155770000Y-119475000D02*
X155770000Y-115475000D01*
X127320000Y-120505000D02*
X155480000Y-120505000D01*
X127320000Y-114485000D02*
X127320000Y-120505000D01*
X155480000Y-114485000D02*
X127320000Y-114485000D01*
X155480000Y-120505000D02*
X155480000Y-114485000D01*
%TO.C,J2*%
X109055000Y-105300000D02*
X109055000Y-105900000D01*
X110655000Y-105300000D02*
X109055000Y-105300000D01*
X110655000Y-105900000D02*
X110655000Y-105300000D01*
X111595000Y-105300000D02*
X111595000Y-105900000D01*
X113195000Y-105300000D02*
X111595000Y-105300000D01*
X113195000Y-105900000D02*
X113195000Y-105300000D01*
X114135000Y-105300000D02*
X114135000Y-105900000D01*
X115735000Y-105300000D02*
X114135000Y-105300000D01*
X115735000Y-105900000D02*
X115735000Y-105300000D01*
X116675000Y-105300000D02*
X116675000Y-105900000D01*
X118275000Y-105300000D02*
X116675000Y-105300000D01*
X118275000Y-105900000D02*
X118275000Y-105300000D01*
X119215000Y-105300000D02*
X119215000Y-105900000D01*
X120815000Y-105300000D02*
X119215000Y-105300000D01*
X120815000Y-105900000D02*
X120815000Y-105300000D01*
X121755000Y-105300000D02*
X121755000Y-105900000D01*
X123355000Y-105300000D02*
X121755000Y-105300000D01*
X123355000Y-105900000D02*
X123355000Y-105300000D01*
X110105000Y-99880000D02*
X110105000Y-100880000D01*
X122305000Y-99880000D02*
X122305000Y-100880000D01*
X110105000Y-101410000D02*
X109855000Y-100880000D01*
X122305000Y-101410000D02*
X110105000Y-101410000D01*
X122555000Y-100880000D02*
X122305000Y-101410000D01*
X109855000Y-100880000D02*
X109855000Y-99880000D01*
X122555000Y-100880000D02*
X109855000Y-100880000D01*
X122555000Y-99880000D02*
X122555000Y-100880000D01*
X124225000Y-104870000D02*
X124225000Y-100870000D01*
X108475000Y-105900000D02*
X123935000Y-105900000D01*
X108475000Y-99880000D02*
X108475000Y-105900000D01*
X123935000Y-99880000D02*
X108475000Y-99880000D01*
X123935000Y-105900000D02*
X123935000Y-99880000D01*
%TO.C,J4*%
X127400000Y-139845000D02*
X127400000Y-145865000D01*
X127400000Y-145865000D02*
X155560000Y-145865000D01*
X155560000Y-145865000D02*
X155560000Y-139845000D01*
X155560000Y-139845000D02*
X127400000Y-139845000D01*
X127110000Y-140875000D02*
X127110000Y-144875000D01*
X128780000Y-145865000D02*
X128780000Y-144865000D01*
X128780000Y-144865000D02*
X133860000Y-144865000D01*
X133860000Y-144865000D02*
X133860000Y-145865000D01*
X128780000Y-144865000D02*
X129030000Y-144335000D01*
X129030000Y-144335000D02*
X133860000Y-144335000D01*
X133860000Y-144335000D02*
X133860000Y-144865000D01*
X129030000Y-145865000D02*
X129030000Y-144865000D01*
X154180000Y-145865000D02*
X154180000Y-144865000D01*
X154180000Y-144865000D02*
X149100000Y-144865000D01*
X149100000Y-144865000D02*
X149100000Y-145865000D01*
X154180000Y-144865000D02*
X153930000Y-144335000D01*
X153930000Y-144335000D02*
X149100000Y-144335000D01*
X149100000Y-144335000D02*
X149100000Y-144865000D01*
X153930000Y-145865000D02*
X153930000Y-144865000D01*
X127980000Y-139845000D02*
X127980000Y-140445000D01*
X127980000Y-140445000D02*
X129580000Y-140445000D01*
X129580000Y-140445000D02*
X129580000Y-139845000D01*
X130520000Y-139845000D02*
X130520000Y-140445000D01*
X130520000Y-140445000D02*
X132120000Y-140445000D01*
X132120000Y-140445000D02*
X132120000Y-139845000D01*
X133060000Y-139845000D02*
X133060000Y-140445000D01*
X133060000Y-140445000D02*
X134660000Y-140445000D01*
X134660000Y-140445000D02*
X134660000Y-139845000D01*
X135600000Y-139845000D02*
X135600000Y-140445000D01*
X135600000Y-140445000D02*
X137200000Y-140445000D01*
X137200000Y-140445000D02*
X137200000Y-139845000D01*
X138140000Y-139845000D02*
X138140000Y-140445000D01*
X138140000Y-140445000D02*
X139740000Y-140445000D01*
X139740000Y-140445000D02*
X139740000Y-139845000D01*
X140680000Y-139845000D02*
X140680000Y-140445000D01*
X140680000Y-140445000D02*
X142280000Y-140445000D01*
X142280000Y-140445000D02*
X142280000Y-139845000D01*
X143220000Y-139845000D02*
X143220000Y-140445000D01*
X143220000Y-140445000D02*
X144820000Y-140445000D01*
X144820000Y-140445000D02*
X144820000Y-139845000D01*
X145760000Y-139845000D02*
X145760000Y-140445000D01*
X145760000Y-140445000D02*
X147360000Y-140445000D01*
X147360000Y-140445000D02*
X147360000Y-139845000D01*
X148300000Y-139845000D02*
X148300000Y-140445000D01*
X148300000Y-140445000D02*
X149900000Y-140445000D01*
X149900000Y-140445000D02*
X149900000Y-139845000D01*
X150840000Y-139845000D02*
X150840000Y-140445000D01*
X150840000Y-140445000D02*
X152440000Y-140445000D01*
X152440000Y-140445000D02*
X152440000Y-139845000D01*
X153380000Y-139845000D02*
X153380000Y-140445000D01*
X153380000Y-140445000D02*
X154980000Y-140445000D01*
X154980000Y-140445000D02*
X154980000Y-139845000D01*
%TO.C,J5*%
X156320000Y-95105000D02*
X156320000Y-89085000D01*
X156320000Y-89085000D02*
X140860000Y-89085000D01*
X140860000Y-89085000D02*
X140860000Y-95105000D01*
X140860000Y-95105000D02*
X156320000Y-95105000D01*
X156610000Y-94075000D02*
X156610000Y-90075000D01*
X154940000Y-89085000D02*
X154940000Y-90085000D01*
X154940000Y-90085000D02*
X142240000Y-90085000D01*
X142240000Y-90085000D02*
X142240000Y-89085000D01*
X154940000Y-90085000D02*
X154690000Y-90615000D01*
X154690000Y-90615000D02*
X142490000Y-90615000D01*
X142490000Y-90615000D02*
X142240000Y-90085000D01*
X154690000Y-89085000D02*
X154690000Y-90085000D01*
X142490000Y-89085000D02*
X142490000Y-90085000D01*
X155740000Y-95105000D02*
X155740000Y-94505000D01*
X155740000Y-94505000D02*
X154140000Y-94505000D01*
X154140000Y-94505000D02*
X154140000Y-95105000D01*
X153200000Y-95105000D02*
X153200000Y-94505000D01*
X153200000Y-94505000D02*
X151600000Y-94505000D01*
X151600000Y-94505000D02*
X151600000Y-95105000D01*
X150660000Y-95105000D02*
X150660000Y-94505000D01*
X150660000Y-94505000D02*
X149060000Y-94505000D01*
X149060000Y-94505000D02*
X149060000Y-95105000D01*
X148120000Y-95105000D02*
X148120000Y-94505000D01*
X148120000Y-94505000D02*
X146520000Y-94505000D01*
X146520000Y-94505000D02*
X146520000Y-95105000D01*
X145580000Y-95105000D02*
X145580000Y-94505000D01*
X145580000Y-94505000D02*
X143980000Y-94505000D01*
X143980000Y-94505000D02*
X143980000Y-95105000D01*
X143040000Y-95105000D02*
X143040000Y-94505000D01*
X143040000Y-94505000D02*
X141440000Y-94505000D01*
X141440000Y-94505000D02*
X141440000Y-95105000D01*
%TO.C,J6*%
X159220000Y-94505000D02*
X159220000Y-95105000D01*
X160820000Y-94505000D02*
X159220000Y-94505000D01*
X160820000Y-95105000D02*
X160820000Y-94505000D01*
X161760000Y-94505000D02*
X161760000Y-95105000D01*
X163360000Y-94505000D02*
X161760000Y-94505000D01*
X163360000Y-95105000D02*
X163360000Y-94505000D01*
X160270000Y-89085000D02*
X160270000Y-90085000D01*
X162310000Y-89085000D02*
X162310000Y-90085000D01*
X160270000Y-90615000D02*
X160020000Y-90085000D01*
X162310000Y-90615000D02*
X160270000Y-90615000D01*
X162560000Y-90085000D02*
X162310000Y-90615000D01*
X160020000Y-90085000D02*
X160020000Y-89085000D01*
X162560000Y-90085000D02*
X160020000Y-90085000D01*
X162560000Y-89085000D02*
X162560000Y-90085000D01*
X164230000Y-94075000D02*
X164230000Y-90075000D01*
X158640000Y-95105000D02*
X163940000Y-95105000D01*
X158640000Y-89085000D02*
X158640000Y-95105000D01*
X163940000Y-89085000D02*
X158640000Y-89085000D01*
X163940000Y-95105000D02*
X163940000Y-89085000D01*
%TO.C,J7*%
X128380000Y-95105000D02*
X128380000Y-89085000D01*
X128380000Y-89085000D02*
X123080000Y-89085000D01*
X123080000Y-89085000D02*
X123080000Y-95105000D01*
X123080000Y-95105000D02*
X128380000Y-95105000D01*
X128670000Y-94075000D02*
X128670000Y-90075000D01*
X127000000Y-89085000D02*
X127000000Y-90085000D01*
X127000000Y-90085000D02*
X124460000Y-90085000D01*
X124460000Y-90085000D02*
X124460000Y-89085000D01*
X127000000Y-90085000D02*
X126750000Y-90615000D01*
X126750000Y-90615000D02*
X124710000Y-90615000D01*
X124710000Y-90615000D02*
X124460000Y-90085000D01*
X126750000Y-89085000D02*
X126750000Y-90085000D01*
X124710000Y-89085000D02*
X124710000Y-90085000D01*
X127800000Y-95105000D02*
X127800000Y-94505000D01*
X127800000Y-94505000D02*
X126200000Y-94505000D01*
X126200000Y-94505000D02*
X126200000Y-95105000D01*
X125260000Y-95105000D02*
X125260000Y-94505000D01*
X125260000Y-94505000D02*
X123660000Y-94505000D01*
X123660000Y-94505000D02*
X123660000Y-95105000D01*
%TO.C,J8*%
X172885000Y-140445000D02*
X172885000Y-139845000D01*
X171285000Y-140445000D02*
X172885000Y-140445000D01*
X171285000Y-139845000D02*
X171285000Y-140445000D01*
X170345000Y-140445000D02*
X170345000Y-139845000D01*
X168745000Y-140445000D02*
X170345000Y-140445000D01*
X168745000Y-139845000D02*
X168745000Y-140445000D01*
X167805000Y-140445000D02*
X167805000Y-139845000D01*
X166205000Y-140445000D02*
X167805000Y-140445000D01*
X166205000Y-139845000D02*
X166205000Y-140445000D01*
X165265000Y-140445000D02*
X165265000Y-139845000D01*
X163665000Y-140445000D02*
X165265000Y-140445000D01*
X163665000Y-139845000D02*
X163665000Y-140445000D01*
X162725000Y-140445000D02*
X162725000Y-139845000D01*
X161125000Y-140445000D02*
X162725000Y-140445000D01*
X161125000Y-139845000D02*
X161125000Y-140445000D01*
X160185000Y-140445000D02*
X160185000Y-139845000D01*
X158585000Y-140445000D02*
X160185000Y-140445000D01*
X158585000Y-139845000D02*
X158585000Y-140445000D01*
X171835000Y-145865000D02*
X171835000Y-144865000D01*
X159635000Y-145865000D02*
X159635000Y-144865000D01*
X171835000Y-144335000D02*
X172085000Y-144865000D01*
X159635000Y-144335000D02*
X171835000Y-144335000D01*
X159385000Y-144865000D02*
X159635000Y-144335000D01*
X172085000Y-144865000D02*
X172085000Y-145865000D01*
X159385000Y-144865000D02*
X172085000Y-144865000D01*
X159385000Y-145865000D02*
X159385000Y-144865000D01*
X157715000Y-140875000D02*
X157715000Y-144875000D01*
X173465000Y-139845000D02*
X158005000Y-139845000D01*
X173465000Y-145865000D02*
X173465000Y-139845000D01*
X158005000Y-145865000D02*
X173465000Y-145865000D01*
X158005000Y-139845000D02*
X158005000Y-145865000D01*
%TO.C,J9*%
X177310000Y-134095000D02*
X183330000Y-134095000D01*
X183330000Y-134095000D02*
X183330000Y-123715000D01*
X183330000Y-123715000D02*
X177310000Y-123715000D01*
X177310000Y-123715000D02*
X177310000Y-134095000D01*
X178340000Y-134385000D02*
X182340000Y-134385000D01*
X183330000Y-132715000D02*
X182330000Y-132715000D01*
X182330000Y-132715000D02*
X182330000Y-125095000D01*
X182330000Y-125095000D02*
X183330000Y-125095000D01*
X182330000Y-132715000D02*
X181800000Y-132465000D01*
X181800000Y-132465000D02*
X181800000Y-125345000D01*
X181800000Y-125345000D02*
X182330000Y-125095000D01*
X183330000Y-132465000D02*
X182330000Y-132465000D01*
X183330000Y-125345000D02*
X182330000Y-125345000D01*
X177310000Y-133515000D02*
X177910000Y-133515000D01*
X177910000Y-133515000D02*
X177910000Y-131915000D01*
X177910000Y-131915000D02*
X177310000Y-131915000D01*
X177310000Y-130975000D02*
X177910000Y-130975000D01*
X177910000Y-130975000D02*
X177910000Y-129375000D01*
X177910000Y-129375000D02*
X177310000Y-129375000D01*
X177310000Y-128435000D02*
X177910000Y-128435000D01*
X177910000Y-128435000D02*
X177910000Y-126835000D01*
X177910000Y-126835000D02*
X177310000Y-126835000D01*
X177310000Y-125895000D02*
X177910000Y-125895000D01*
X177910000Y-125895000D02*
X177910000Y-124295000D01*
X177910000Y-124295000D02*
X177310000Y-124295000D01*
%TO.C,J10*%
X131280000Y-94505000D02*
X131280000Y-95105000D01*
X132880000Y-94505000D02*
X131280000Y-94505000D01*
X132880000Y-95105000D02*
X132880000Y-94505000D01*
X133820000Y-94505000D02*
X133820000Y-95105000D01*
X135420000Y-94505000D02*
X133820000Y-94505000D01*
X135420000Y-95105000D02*
X135420000Y-94505000D01*
X136360000Y-94505000D02*
X136360000Y-95105000D01*
X137960000Y-94505000D02*
X136360000Y-94505000D01*
X137960000Y-95105000D02*
X137960000Y-94505000D01*
X132330000Y-89085000D02*
X132330000Y-90085000D01*
X136910000Y-89085000D02*
X136910000Y-90085000D01*
X132330000Y-90615000D02*
X132080000Y-90085000D01*
X136910000Y-90615000D02*
X132330000Y-90615000D01*
X137160000Y-90085000D02*
X136910000Y-90615000D01*
X132080000Y-90085000D02*
X132080000Y-89085000D01*
X137160000Y-90085000D02*
X132080000Y-90085000D01*
X137160000Y-89085000D02*
X137160000Y-90085000D01*
X138830000Y-94075000D02*
X138830000Y-90075000D01*
X130700000Y-95105000D02*
X138540000Y-95105000D01*
X130700000Y-89085000D02*
X130700000Y-95105000D01*
X138540000Y-89085000D02*
X130700000Y-89085000D01*
X138540000Y-95105000D02*
X138540000Y-89085000D01*
%TO.C,C6*%
X131780000Y-103967500D02*
X131780000Y-107877500D01*
X133650000Y-103967500D02*
X131780000Y-103967500D01*
X133650000Y-107877500D02*
X133650000Y-103967500D01*
D14*
%TO.C,.1*%
G36*
X172639481Y-89633192D02*
G01*
X172687744Y-89634058D01*
X172725055Y-89635883D01*
X172753193Y-89638976D01*
X172773937Y-89643648D01*
X172789065Y-89650211D01*
X172800358Y-89658975D01*
X172809593Y-89670251D01*
X172811964Y-89673766D01*
X172814404Y-89678125D01*
X172816539Y-89683919D01*
X172818397Y-89692124D01*
X172820008Y-89703716D01*
X172821399Y-89719673D01*
X172822598Y-89740969D01*
X172823633Y-89768581D01*
X172824533Y-89803485D01*
X172825324Y-89846658D01*
X172826036Y-89899076D01*
X172826697Y-89961714D01*
X172827333Y-90035550D01*
X172827975Y-90121560D01*
X172828649Y-90220719D01*
X172828932Y-90264015D01*
X172832635Y-90834029D01*
X172852264Y-90892086D01*
X172874413Y-90947826D01*
X172900431Y-90993209D01*
X172932848Y-91032327D01*
X172947968Y-91046951D01*
X172998068Y-91083298D01*
X173058277Y-91110363D01*
X173127177Y-91127681D01*
X173203348Y-91134789D01*
X173217115Y-91134948D01*
X173296824Y-91129431D01*
X173367903Y-91112654D01*
X173431285Y-91084275D01*
X173487899Y-91043957D01*
X173502236Y-91030893D01*
X173541922Y-90987946D01*
X173572470Y-90942480D01*
X173596912Y-90889614D01*
X173606411Y-90863058D01*
X173623354Y-90812258D01*
X173627063Y-90253130D01*
X173627765Y-90149533D01*
X173628424Y-90059465D01*
X173629067Y-89981937D01*
X173629723Y-89915965D01*
X173630422Y-89860562D01*
X173631192Y-89814741D01*
X173632063Y-89777516D01*
X173633062Y-89747902D01*
X173634220Y-89724910D01*
X173635565Y-89707556D01*
X173637125Y-89694853D01*
X173638930Y-89685814D01*
X173641009Y-89679453D01*
X173643390Y-89674785D01*
X173644036Y-89673766D01*
X173652976Y-89661803D01*
X173663470Y-89652416D01*
X173677288Y-89645299D01*
X173696202Y-89640144D01*
X173721982Y-89636644D01*
X173756399Y-89634491D01*
X173801225Y-89633379D01*
X173858229Y-89633000D01*
X173879096Y-89632983D01*
X173940446Y-89633206D01*
X173989035Y-89634118D01*
X174026614Y-89636094D01*
X174054932Y-89639513D01*
X174075741Y-89644749D01*
X174090791Y-89652180D01*
X174101831Y-89662182D01*
X174110612Y-89675131D01*
X174115175Y-89683772D01*
X174117102Y-89688302D01*
X174118825Y-89694278D01*
X174120355Y-89702491D01*
X174121702Y-89713734D01*
X174122879Y-89728799D01*
X174123897Y-89748478D01*
X174124767Y-89773562D01*
X174125502Y-89804845D01*
X174126111Y-89843117D01*
X174126607Y-89889170D01*
X174127002Y-89943798D01*
X174127306Y-90007791D01*
X174127531Y-90081943D01*
X174127689Y-90167044D01*
X174127791Y-90263887D01*
X174127848Y-90373264D01*
X174127872Y-90495966D01*
X174127875Y-90562627D01*
X174127886Y-91416083D01*
X174111340Y-91440636D01*
X174102322Y-91453338D01*
X174093200Y-91463257D01*
X174082154Y-91470713D01*
X174067367Y-91476028D01*
X174047020Y-91479525D01*
X174019297Y-91481524D01*
X173982379Y-91482349D01*
X173934449Y-91482320D01*
X173878722Y-91481813D01*
X173698501Y-91479915D01*
X173677336Y-91456214D01*
X173668474Y-91445808D01*
X173662512Y-91436078D01*
X173658875Y-91423974D01*
X173656990Y-91406445D01*
X173656280Y-91380439D01*
X173656172Y-91343853D01*
X173656172Y-91255193D01*
X173623252Y-91292825D01*
X173572887Y-91342235D01*
X173511915Y-91388840D01*
X173444237Y-91430280D01*
X173373755Y-91464197D01*
X173304370Y-91488231D01*
X173296943Y-91490177D01*
X173204834Y-91508101D01*
X173106613Y-91517584D01*
X173008220Y-91518275D01*
X172930132Y-91511850D01*
X172832594Y-91492354D01*
X172741871Y-91460297D01*
X172658568Y-91416237D01*
X172583290Y-91360730D01*
X172516641Y-91294334D01*
X172459226Y-91217607D01*
X172411649Y-91131104D01*
X172374515Y-91035384D01*
X172360739Y-90986964D01*
X172354904Y-90962786D01*
X172349801Y-90938555D01*
X172345379Y-90913164D01*
X172341593Y-90885509D01*
X172338394Y-90854482D01*
X172335735Y-90818979D01*
X172333566Y-90777892D01*
X172331842Y-90730115D01*
X172330514Y-90674543D01*
X172329534Y-90610070D01*
X172328855Y-90535589D01*
X172328428Y-90449994D01*
X172328206Y-90352180D01*
X172328142Y-90241039D01*
X172328142Y-90232240D01*
X172328156Y-90131795D01*
X172328205Y-90044840D01*
X172328317Y-89970347D01*
X172328518Y-89907292D01*
X172328836Y-89854650D01*
X172329298Y-89811395D01*
X172329931Y-89776501D01*
X172330762Y-89748943D01*
X172331818Y-89727696D01*
X172333126Y-89711733D01*
X172334714Y-89700030D01*
X172336609Y-89691561D01*
X172338838Y-89685301D01*
X172341427Y-89680224D01*
X172342815Y-89677892D01*
X172351823Y-89664744D01*
X172362136Y-89654428D01*
X172375535Y-89646604D01*
X172393797Y-89640934D01*
X172418703Y-89637078D01*
X172452032Y-89634697D01*
X172495564Y-89633452D01*
X172551077Y-89633004D01*
X172578486Y-89632972D01*
X172639481Y-89633192D01*
G37*
X172639481Y-89633192D02*
X172687744Y-89634058D01*
X172725055Y-89635883D01*
X172753193Y-89638976D01*
X172773937Y-89643648D01*
X172789065Y-89650211D01*
X172800358Y-89658975D01*
X172809593Y-89670251D01*
X172811964Y-89673766D01*
X172814404Y-89678125D01*
X172816539Y-89683919D01*
X172818397Y-89692124D01*
X172820008Y-89703716D01*
X172821399Y-89719673D01*
X172822598Y-89740969D01*
X172823633Y-89768581D01*
X172824533Y-89803485D01*
X172825324Y-89846658D01*
X172826036Y-89899076D01*
X172826697Y-89961714D01*
X172827333Y-90035550D01*
X172827975Y-90121560D01*
X172828649Y-90220719D01*
X172828932Y-90264015D01*
X172832635Y-90834029D01*
X172852264Y-90892086D01*
X172874413Y-90947826D01*
X172900431Y-90993209D01*
X172932848Y-91032327D01*
X172947968Y-91046951D01*
X172998068Y-91083298D01*
X173058277Y-91110363D01*
X173127177Y-91127681D01*
X173203348Y-91134789D01*
X173217115Y-91134948D01*
X173296824Y-91129431D01*
X173367903Y-91112654D01*
X173431285Y-91084275D01*
X173487899Y-91043957D01*
X173502236Y-91030893D01*
X173541922Y-90987946D01*
X173572470Y-90942480D01*
X173596912Y-90889614D01*
X173606411Y-90863058D01*
X173623354Y-90812258D01*
X173627063Y-90253130D01*
X173627765Y-90149533D01*
X173628424Y-90059465D01*
X173629067Y-89981937D01*
X173629723Y-89915965D01*
X173630422Y-89860562D01*
X173631192Y-89814741D01*
X173632063Y-89777516D01*
X173633062Y-89747902D01*
X173634220Y-89724910D01*
X173635565Y-89707556D01*
X173637125Y-89694853D01*
X173638930Y-89685814D01*
X173641009Y-89679453D01*
X173643390Y-89674785D01*
X173644036Y-89673766D01*
X173652976Y-89661803D01*
X173663470Y-89652416D01*
X173677288Y-89645299D01*
X173696202Y-89640144D01*
X173721982Y-89636644D01*
X173756399Y-89634491D01*
X173801225Y-89633379D01*
X173858229Y-89633000D01*
X173879096Y-89632983D01*
X173940446Y-89633206D01*
X173989035Y-89634118D01*
X174026614Y-89636094D01*
X174054932Y-89639513D01*
X174075741Y-89644749D01*
X174090791Y-89652180D01*
X174101831Y-89662182D01*
X174110612Y-89675131D01*
X174115175Y-89683772D01*
X174117102Y-89688302D01*
X174118825Y-89694278D01*
X174120355Y-89702491D01*
X174121702Y-89713734D01*
X174122879Y-89728799D01*
X174123897Y-89748478D01*
X174124767Y-89773562D01*
X174125502Y-89804845D01*
X174126111Y-89843117D01*
X174126607Y-89889170D01*
X174127002Y-89943798D01*
X174127306Y-90007791D01*
X174127531Y-90081943D01*
X174127689Y-90167044D01*
X174127791Y-90263887D01*
X174127848Y-90373264D01*
X174127872Y-90495966D01*
X174127875Y-90562627D01*
X174127886Y-91416083D01*
X174111340Y-91440636D01*
X174102322Y-91453338D01*
X174093200Y-91463257D01*
X174082154Y-91470713D01*
X174067367Y-91476028D01*
X174047020Y-91479525D01*
X174019297Y-91481524D01*
X173982379Y-91482349D01*
X173934449Y-91482320D01*
X173878722Y-91481813D01*
X173698501Y-91479915D01*
X173677336Y-91456214D01*
X173668474Y-91445808D01*
X173662512Y-91436078D01*
X173658875Y-91423974D01*
X173656990Y-91406445D01*
X173656280Y-91380439D01*
X173656172Y-91343853D01*
X173656172Y-91255193D01*
X173623252Y-91292825D01*
X173572887Y-91342235D01*
X173511915Y-91388840D01*
X173444237Y-91430280D01*
X173373755Y-91464197D01*
X173304370Y-91488231D01*
X173296943Y-91490177D01*
X173204834Y-91508101D01*
X173106613Y-91517584D01*
X173008220Y-91518275D01*
X172930132Y-91511850D01*
X172832594Y-91492354D01*
X172741871Y-91460297D01*
X172658568Y-91416237D01*
X172583290Y-91360730D01*
X172516641Y-91294334D01*
X172459226Y-91217607D01*
X172411649Y-91131104D01*
X172374515Y-91035384D01*
X172360739Y-90986964D01*
X172354904Y-90962786D01*
X172349801Y-90938555D01*
X172345379Y-90913164D01*
X172341593Y-90885509D01*
X172338394Y-90854482D01*
X172335735Y-90818979D01*
X172333566Y-90777892D01*
X172331842Y-90730115D01*
X172330514Y-90674543D01*
X172329534Y-90610070D01*
X172328855Y-90535589D01*
X172328428Y-90449994D01*
X172328206Y-90352180D01*
X172328142Y-90241039D01*
X172328142Y-90232240D01*
X172328156Y-90131795D01*
X172328205Y-90044840D01*
X172328317Y-89970347D01*
X172328518Y-89907292D01*
X172328836Y-89854650D01*
X172329298Y-89811395D01*
X172329931Y-89776501D01*
X172330762Y-89748943D01*
X172331818Y-89727696D01*
X172333126Y-89711733D01*
X172334714Y-89700030D01*
X172336609Y-89691561D01*
X172338838Y-89685301D01*
X172341427Y-89680224D01*
X172342815Y-89677892D01*
X172351823Y-89664744D01*
X172362136Y-89654428D01*
X172375535Y-89646604D01*
X172393797Y-89640934D01*
X172418703Y-89637078D01*
X172452032Y-89634697D01*
X172495564Y-89633452D01*
X172551077Y-89633004D01*
X172578486Y-89632972D01*
X172639481Y-89633192D01*
G36*
X171856120Y-88959100D02*
G01*
X171895629Y-88960321D01*
X171927339Y-88962195D01*
X171948464Y-88964737D01*
X171952091Y-88965567D01*
X171975092Y-88976440D01*
X171995677Y-88993105D01*
X171997448Y-88995112D01*
X172016058Y-89017228D01*
X172016058Y-90218089D01*
X172016070Y-90374987D01*
X172016091Y-90518021D01*
X172016099Y-90647841D01*
X172016072Y-90765095D01*
X172015986Y-90870434D01*
X172015820Y-90964507D01*
X172015552Y-91047965D01*
X172015157Y-91121457D01*
X172014616Y-91185632D01*
X172013904Y-91241142D01*
X172012999Y-91288634D01*
X172011879Y-91328759D01*
X172010522Y-91362168D01*
X172008905Y-91389509D01*
X172007005Y-91411432D01*
X172004801Y-91428587D01*
X172002270Y-91441624D01*
X171999389Y-91451192D01*
X171996136Y-91457942D01*
X171992488Y-91462523D01*
X171988424Y-91465585D01*
X171983920Y-91467778D01*
X171978954Y-91469750D01*
X171973504Y-91472153D01*
X171972752Y-91472535D01*
X171963275Y-91476152D01*
X171949436Y-91478897D01*
X171929421Y-91480867D01*
X171901413Y-91482163D01*
X171863599Y-91482883D01*
X171814162Y-91483125D01*
X171778746Y-91483083D01*
X171729386Y-91482708D01*
X171684290Y-91481904D01*
X171645679Y-91480749D01*
X171615775Y-91479318D01*
X171596798Y-91477688D01*
X171591515Y-91476620D01*
X171576712Y-91467249D01*
X171560198Y-91452513D01*
X171558858Y-91451096D01*
X171540715Y-91431575D01*
X171538837Y-90228641D01*
X171536960Y-89025706D01*
X171553603Y-89000953D01*
X171572374Y-88981029D01*
X171594817Y-88967742D01*
X171595395Y-88967539D01*
X171611430Y-88964621D01*
X171639182Y-88962248D01*
X171675863Y-88960436D01*
X171718685Y-88959200D01*
X171764860Y-88958555D01*
X171811601Y-88958516D01*
X171856120Y-88959100D01*
G37*
X171856120Y-88959100D02*
X171895629Y-88960321D01*
X171927339Y-88962195D01*
X171948464Y-88964737D01*
X171952091Y-88965567D01*
X171975092Y-88976440D01*
X171995677Y-88993105D01*
X171997448Y-88995112D01*
X172016058Y-89017228D01*
X172016058Y-90218089D01*
X172016070Y-90374987D01*
X172016091Y-90518021D01*
X172016099Y-90647841D01*
X172016072Y-90765095D01*
X172015986Y-90870434D01*
X172015820Y-90964507D01*
X172015552Y-91047965D01*
X172015157Y-91121457D01*
X172014616Y-91185632D01*
X172013904Y-91241142D01*
X172012999Y-91288634D01*
X172011879Y-91328759D01*
X172010522Y-91362168D01*
X172008905Y-91389509D01*
X172007005Y-91411432D01*
X172004801Y-91428587D01*
X172002270Y-91441624D01*
X171999389Y-91451192D01*
X171996136Y-91457942D01*
X171992488Y-91462523D01*
X171988424Y-91465585D01*
X171983920Y-91467778D01*
X171978954Y-91469750D01*
X171973504Y-91472153D01*
X171972752Y-91472535D01*
X171963275Y-91476152D01*
X171949436Y-91478897D01*
X171929421Y-91480867D01*
X171901413Y-91482163D01*
X171863599Y-91482883D01*
X171814162Y-91483125D01*
X171778746Y-91483083D01*
X171729386Y-91482708D01*
X171684290Y-91481904D01*
X171645679Y-91480749D01*
X171615775Y-91479318D01*
X171596798Y-91477688D01*
X171591515Y-91476620D01*
X171576712Y-91467249D01*
X171560198Y-91452513D01*
X171558858Y-91451096D01*
X171540715Y-91431575D01*
X171538837Y-90228641D01*
X171536960Y-89025706D01*
X171553603Y-89000953D01*
X171572374Y-88981029D01*
X171594817Y-88967742D01*
X171595395Y-88967539D01*
X171611430Y-88964621D01*
X171639182Y-88962248D01*
X171675863Y-88960436D01*
X171718685Y-88959200D01*
X171764860Y-88958555D01*
X171811601Y-88958516D01*
X171856120Y-88959100D01*
G36*
X174639177Y-89634335D02*
G01*
X174823430Y-89636600D01*
X174842900Y-89654743D01*
X174851191Y-89664065D01*
X174867346Y-89683690D01*
X174890401Y-89712399D01*
X174919396Y-89748974D01*
X174953367Y-89792195D01*
X174991352Y-89840842D01*
X175032390Y-89893698D01*
X175073531Y-89946961D01*
X175115968Y-90001859D01*
X175155781Y-90053008D01*
X175192088Y-90099301D01*
X175224007Y-90139628D01*
X175250654Y-90172882D01*
X175271148Y-90197952D01*
X175284605Y-90213731D01*
X175290143Y-90219110D01*
X175290164Y-90219104D01*
X175295575Y-90213130D01*
X175308912Y-90196783D01*
X175329275Y-90171212D01*
X175355763Y-90137564D01*
X175387475Y-90096990D01*
X175423509Y-90050636D01*
X175462966Y-89999651D01*
X175499480Y-89952286D01*
X175542031Y-89897151D01*
X175582670Y-89844793D01*
X175620383Y-89796501D01*
X175654150Y-89753564D01*
X175682957Y-89717269D01*
X175705785Y-89688906D01*
X175721619Y-89669764D01*
X175728521Y-89662000D01*
X175753720Y-89636600D01*
X176130568Y-89636600D01*
X176154298Y-89660329D01*
X176169816Y-89678512D01*
X176176421Y-89696018D01*
X176177354Y-89715665D01*
X176169895Y-89752644D01*
X176159572Y-89771765D01*
X176152271Y-89781739D01*
X176136993Y-89802227D01*
X176114531Y-89832180D01*
X176085676Y-89870547D01*
X176051222Y-89916275D01*
X176011959Y-89968315D01*
X175968681Y-90025615D01*
X175922178Y-90087124D01*
X175873244Y-90151791D01*
X175860360Y-90168808D01*
X175578255Y-90541358D01*
X175618163Y-90593351D01*
X175629812Y-90608475D01*
X175649436Y-90633889D01*
X175676119Y-90668410D01*
X175708946Y-90710856D01*
X175747001Y-90760042D01*
X175789369Y-90814786D01*
X175835134Y-90873904D01*
X175883382Y-90936213D01*
X175930705Y-90997315D01*
X175979527Y-91060495D01*
X176025927Y-91120835D01*
X176069097Y-91177262D01*
X176108229Y-91228708D01*
X176142514Y-91274100D01*
X176171143Y-91312369D01*
X176193308Y-91342444D01*
X176208201Y-91363253D01*
X176215013Y-91373728D01*
X176215105Y-91373916D01*
X176222262Y-91404313D01*
X176216592Y-91434257D01*
X176199317Y-91459644D01*
X176186705Y-91469349D01*
X176178764Y-91473629D01*
X176169459Y-91476950D01*
X176156958Y-91479433D01*
X176139428Y-91481199D01*
X176115035Y-91482367D01*
X176081947Y-91483057D01*
X176038330Y-91483391D01*
X175982352Y-91483487D01*
X175971200Y-91483489D01*
X175912695Y-91483412D01*
X175866885Y-91483105D01*
X175831952Y-91482454D01*
X175806079Y-91481344D01*
X175787445Y-91479660D01*
X175774234Y-91477289D01*
X175764627Y-91474115D01*
X175756806Y-91470024D01*
X175756749Y-91469990D01*
X175747985Y-91461645D01*
X175731371Y-91442902D01*
X175707842Y-91414916D01*
X175678333Y-91378842D01*
X175643779Y-91335837D01*
X175605116Y-91287055D01*
X175563277Y-91233651D01*
X175519200Y-91176781D01*
X175514482Y-91170660D01*
X175470931Y-91114148D01*
X175429894Y-91060969D01*
X175392255Y-91012266D01*
X175358899Y-90969180D01*
X175330711Y-90932851D01*
X175308575Y-90904421D01*
X175293376Y-90885032D01*
X175285999Y-90875825D01*
X175285604Y-90875373D01*
X175282010Y-90875241D01*
X175275132Y-90880027D01*
X175264331Y-90890490D01*
X175248971Y-90907389D01*
X175228413Y-90931481D01*
X175202021Y-90963525D01*
X175169156Y-91004278D01*
X175129180Y-91054500D01*
X175081457Y-91114949D01*
X175042982Y-91163904D01*
X174991346Y-91229390D01*
X174944018Y-91288803D01*
X174901659Y-91341343D01*
X174864928Y-91386211D01*
X174834484Y-91422608D01*
X174810988Y-91449733D01*
X174795099Y-91466788D01*
X174788172Y-91472717D01*
X174779036Y-91476137D01*
X174765328Y-91478788D01*
X174745358Y-91480756D01*
X174717432Y-91482129D01*
X174679860Y-91482992D01*
X174630950Y-91483434D01*
X174577464Y-91483543D01*
X174387692Y-91483543D01*
X174363018Y-91458869D01*
X174346668Y-91439602D01*
X174339526Y-91421258D01*
X174338343Y-91404958D01*
X174339527Y-91390661D01*
X174344057Y-91376109D01*
X174353398Y-91358524D01*
X174369015Y-91335133D01*
X174391415Y-91304447D01*
X174402341Y-91289903D01*
X174420912Y-91265332D01*
X174446162Y-91232003D01*
X174477128Y-91191183D01*
X174512846Y-91144139D01*
X174552350Y-91092140D01*
X174594677Y-91036452D01*
X174638862Y-90978344D01*
X174683941Y-90919082D01*
X174728949Y-90859934D01*
X174772922Y-90802169D01*
X174814895Y-90747053D01*
X174853905Y-90695854D01*
X174888987Y-90649840D01*
X174919176Y-90610278D01*
X174943508Y-90578436D01*
X174961019Y-90555581D01*
X174970744Y-90542981D01*
X174970899Y-90542783D01*
X174967984Y-90535098D01*
X174956148Y-90516104D01*
X174935456Y-90485893D01*
X174905976Y-90444554D01*
X174867770Y-90392178D01*
X174820905Y-90328855D01*
X174765446Y-90254675D01*
X174701459Y-90169728D01*
X174692711Y-90158154D01*
X174643165Y-90092512D01*
X174595958Y-90029740D01*
X174551864Y-89970884D01*
X174511660Y-89916988D01*
X174476120Y-89869100D01*
X174446020Y-89828265D01*
X174422135Y-89795529D01*
X174405242Y-89771936D01*
X174396114Y-89758534D01*
X174394988Y-89756623D01*
X174384233Y-89730354D01*
X174383488Y-89707606D01*
X174392605Y-89681532D01*
X174393333Y-89679986D01*
X174400676Y-89666303D01*
X174409369Y-89655500D01*
X174421085Y-89647267D01*
X174437494Y-89641293D01*
X174460269Y-89637269D01*
X174491083Y-89634883D01*
X174531607Y-89633825D01*
X174583513Y-89633785D01*
X174639177Y-89634335D01*
G37*
X174639177Y-89634335D02*
X174823430Y-89636600D01*
X174842900Y-89654743D01*
X174851191Y-89664065D01*
X174867346Y-89683690D01*
X174890401Y-89712399D01*
X174919396Y-89748974D01*
X174953367Y-89792195D01*
X174991352Y-89840842D01*
X175032390Y-89893698D01*
X175073531Y-89946961D01*
X175115968Y-90001859D01*
X175155781Y-90053008D01*
X175192088Y-90099301D01*
X175224007Y-90139628D01*
X175250654Y-90172882D01*
X175271148Y-90197952D01*
X175284605Y-90213731D01*
X175290143Y-90219110D01*
X175290164Y-90219104D01*
X175295575Y-90213130D01*
X175308912Y-90196783D01*
X175329275Y-90171212D01*
X175355763Y-90137564D01*
X175387475Y-90096990D01*
X175423509Y-90050636D01*
X175462966Y-89999651D01*
X175499480Y-89952286D01*
X175542031Y-89897151D01*
X175582670Y-89844793D01*
X175620383Y-89796501D01*
X175654150Y-89753564D01*
X175682957Y-89717269D01*
X175705785Y-89688906D01*
X175721619Y-89669764D01*
X175728521Y-89662000D01*
X175753720Y-89636600D01*
X176130568Y-89636600D01*
X176154298Y-89660329D01*
X176169816Y-89678512D01*
X176176421Y-89696018D01*
X176177354Y-89715665D01*
X176169895Y-89752644D01*
X176159572Y-89771765D01*
X176152271Y-89781739D01*
X176136993Y-89802227D01*
X176114531Y-89832180D01*
X176085676Y-89870547D01*
X176051222Y-89916275D01*
X176011959Y-89968315D01*
X175968681Y-90025615D01*
X175922178Y-90087124D01*
X175873244Y-90151791D01*
X175860360Y-90168808D01*
X175578255Y-90541358D01*
X175618163Y-90593351D01*
X175629812Y-90608475D01*
X175649436Y-90633889D01*
X175676119Y-90668410D01*
X175708946Y-90710856D01*
X175747001Y-90760042D01*
X175789369Y-90814786D01*
X175835134Y-90873904D01*
X175883382Y-90936213D01*
X175930705Y-90997315D01*
X175979527Y-91060495D01*
X176025927Y-91120835D01*
X176069097Y-91177262D01*
X176108229Y-91228708D01*
X176142514Y-91274100D01*
X176171143Y-91312369D01*
X176193308Y-91342444D01*
X176208201Y-91363253D01*
X176215013Y-91373728D01*
X176215105Y-91373916D01*
X176222262Y-91404313D01*
X176216592Y-91434257D01*
X176199317Y-91459644D01*
X176186705Y-91469349D01*
X176178764Y-91473629D01*
X176169459Y-91476950D01*
X176156958Y-91479433D01*
X176139428Y-91481199D01*
X176115035Y-91482367D01*
X176081947Y-91483057D01*
X176038330Y-91483391D01*
X175982352Y-91483487D01*
X175971200Y-91483489D01*
X175912695Y-91483412D01*
X175866885Y-91483105D01*
X175831952Y-91482454D01*
X175806079Y-91481344D01*
X175787445Y-91479660D01*
X175774234Y-91477289D01*
X175764627Y-91474115D01*
X175756806Y-91470024D01*
X175756749Y-91469990D01*
X175747985Y-91461645D01*
X175731371Y-91442902D01*
X175707842Y-91414916D01*
X175678333Y-91378842D01*
X175643779Y-91335837D01*
X175605116Y-91287055D01*
X175563277Y-91233651D01*
X175519200Y-91176781D01*
X175514482Y-91170660D01*
X175470931Y-91114148D01*
X175429894Y-91060969D01*
X175392255Y-91012266D01*
X175358899Y-90969180D01*
X175330711Y-90932851D01*
X175308575Y-90904421D01*
X175293376Y-90885032D01*
X175285999Y-90875825D01*
X175285604Y-90875373D01*
X175282010Y-90875241D01*
X175275132Y-90880027D01*
X175264331Y-90890490D01*
X175248971Y-90907389D01*
X175228413Y-90931481D01*
X175202021Y-90963525D01*
X175169156Y-91004278D01*
X175129180Y-91054500D01*
X175081457Y-91114949D01*
X175042982Y-91163904D01*
X174991346Y-91229390D01*
X174944018Y-91288803D01*
X174901659Y-91341343D01*
X174864928Y-91386211D01*
X174834484Y-91422608D01*
X174810988Y-91449733D01*
X174795099Y-91466788D01*
X174788172Y-91472717D01*
X174779036Y-91476137D01*
X174765328Y-91478788D01*
X174745358Y-91480756D01*
X174717432Y-91482129D01*
X174679860Y-91482992D01*
X174630950Y-91483434D01*
X174577464Y-91483543D01*
X174387692Y-91483543D01*
X174363018Y-91458869D01*
X174346668Y-91439602D01*
X174339526Y-91421258D01*
X174338343Y-91404958D01*
X174339527Y-91390661D01*
X174344057Y-91376109D01*
X174353398Y-91358524D01*
X174369015Y-91335133D01*
X174391415Y-91304447D01*
X174402341Y-91289903D01*
X174420912Y-91265332D01*
X174446162Y-91232003D01*
X174477128Y-91191183D01*
X174512846Y-91144139D01*
X174552350Y-91092140D01*
X174594677Y-91036452D01*
X174638862Y-90978344D01*
X174683941Y-90919082D01*
X174728949Y-90859934D01*
X174772922Y-90802169D01*
X174814895Y-90747053D01*
X174853905Y-90695854D01*
X174888987Y-90649840D01*
X174919176Y-90610278D01*
X174943508Y-90578436D01*
X174961019Y-90555581D01*
X174970744Y-90542981D01*
X174970899Y-90542783D01*
X174967984Y-90535098D01*
X174956148Y-90516104D01*
X174935456Y-90485893D01*
X174905976Y-90444554D01*
X174867770Y-90392178D01*
X174820905Y-90328855D01*
X174765446Y-90254675D01*
X174701459Y-90169728D01*
X174692711Y-90158154D01*
X174643165Y-90092512D01*
X174595958Y-90029740D01*
X174551864Y-89970884D01*
X174511660Y-89916988D01*
X174476120Y-89869100D01*
X174446020Y-89828265D01*
X174422135Y-89795529D01*
X174405242Y-89771936D01*
X174396114Y-89758534D01*
X174394988Y-89756623D01*
X174384233Y-89730354D01*
X174383488Y-89707606D01*
X174392605Y-89681532D01*
X174393333Y-89679986D01*
X174400676Y-89666303D01*
X174409369Y-89655500D01*
X174421085Y-89647267D01*
X174437494Y-89641293D01*
X174460269Y-89637269D01*
X174491083Y-89634883D01*
X174531607Y-89633825D01*
X174583513Y-89633785D01*
X174639177Y-89634335D01*
G36*
X171214869Y-88859360D02*
G01*
X171239543Y-88884035D01*
X171239543Y-89162709D01*
X171214869Y-89187383D01*
X171190195Y-89212058D01*
X171038059Y-89212058D01*
X170973836Y-89212458D01*
X170921977Y-89213829D01*
X170880349Y-89216421D01*
X170846818Y-89220485D01*
X170819253Y-89226273D01*
X170795521Y-89234038D01*
X170775457Y-89243033D01*
X170742566Y-89264161D01*
X170716479Y-89291904D01*
X170696594Y-89327724D01*
X170682309Y-89373079D01*
X170673022Y-89429430D01*
X170668131Y-89498235D01*
X170667929Y-89503790D01*
X170664280Y-89610465D01*
X170906555Y-89612647D01*
X170973040Y-89613308D01*
X171026561Y-89614026D01*
X171068667Y-89614891D01*
X171100909Y-89615992D01*
X171124836Y-89617417D01*
X171141999Y-89619255D01*
X171153948Y-89621595D01*
X171162231Y-89624527D01*
X171167668Y-89627631D01*
X171179704Y-89637132D01*
X171188707Y-89648440D01*
X171195106Y-89663689D01*
X171199331Y-89685008D01*
X171201812Y-89714529D01*
X171202977Y-89754385D01*
X171203258Y-89804217D01*
X171203378Y-89851101D01*
X171202881Y-89889657D01*
X171200477Y-89920695D01*
X171194876Y-89945029D01*
X171184788Y-89963471D01*
X171168925Y-89976834D01*
X171145997Y-89985929D01*
X171114714Y-89991570D01*
X171073787Y-89994570D01*
X171021927Y-89995740D01*
X170957844Y-89995893D01*
X170899175Y-89995829D01*
X170666229Y-89995829D01*
X170666229Y-90696504D01*
X170666241Y-90815678D01*
X170666243Y-90921193D01*
X170666187Y-91013904D01*
X170666023Y-91094667D01*
X170665703Y-91164337D01*
X170665176Y-91223769D01*
X170664395Y-91273819D01*
X170663310Y-91315342D01*
X170661872Y-91349193D01*
X170660031Y-91376228D01*
X170657739Y-91397301D01*
X170654947Y-91413268D01*
X170651605Y-91424985D01*
X170647665Y-91433307D01*
X170643077Y-91439088D01*
X170637792Y-91443185D01*
X170631761Y-91446452D01*
X170624934Y-91449746D01*
X170622924Y-91450763D01*
X170608021Y-91454590D01*
X170581298Y-91457666D01*
X170545359Y-91459989D01*
X170502804Y-91461559D01*
X170456235Y-91462375D01*
X170408255Y-91462436D01*
X170361465Y-91461740D01*
X170318467Y-91460288D01*
X170281864Y-91458077D01*
X170254257Y-91455108D01*
X170238248Y-91451378D01*
X170237283Y-91450909D01*
X170230296Y-91447380D01*
X170224112Y-91444272D01*
X170218682Y-91440727D01*
X170213957Y-91435888D01*
X170209889Y-91428899D01*
X170206428Y-91418902D01*
X170203525Y-91405040D01*
X170201133Y-91386457D01*
X170199201Y-91362295D01*
X170197682Y-91331696D01*
X170196526Y-91293805D01*
X170195685Y-91247764D01*
X170195109Y-91192716D01*
X170194751Y-91127804D01*
X170194561Y-91052171D01*
X170194490Y-90964959D01*
X170194490Y-90865313D01*
X170194511Y-90752375D01*
X170194515Y-90700027D01*
X170194515Y-89995829D01*
X170040300Y-89995818D01*
X169976483Y-89995545D01*
X169925692Y-89993896D01*
X169886442Y-89989606D01*
X169857245Y-89981409D01*
X169836615Y-89968042D01*
X169823064Y-89948240D01*
X169815107Y-89920738D01*
X169811256Y-89884273D01*
X169810024Y-89837579D01*
X169809924Y-89799886D01*
X169810238Y-89747694D01*
X169812153Y-89706139D01*
X169817155Y-89674011D01*
X169826729Y-89650096D01*
X169842359Y-89633182D01*
X169865530Y-89622057D01*
X169897728Y-89615508D01*
X169940437Y-89612324D01*
X169995143Y-89611292D01*
X170041047Y-89611200D01*
X170192845Y-89611200D01*
X170196354Y-89464243D01*
X170197932Y-89409286D01*
X170199888Y-89366061D01*
X170202483Y-89331785D01*
X170205977Y-89303679D01*
X170210628Y-89278959D01*
X170215498Y-89259229D01*
X170244714Y-89173547D01*
X170283589Y-89098401D01*
X170332642Y-89033053D01*
X170392390Y-88976765D01*
X170435385Y-88945863D01*
X170481392Y-88918375D01*
X170528374Y-88895485D01*
X170578082Y-88876849D01*
X170632264Y-88862118D01*
X170692672Y-88850945D01*
X170761053Y-88842985D01*
X170839159Y-88837889D01*
X170928739Y-88835310D01*
X170995340Y-88834819D01*
X171190195Y-88834686D01*
X171214869Y-88859360D01*
G37*
X171214869Y-88859360D02*
X171239543Y-88884035D01*
X171239543Y-89162709D01*
X171214869Y-89187383D01*
X171190195Y-89212058D01*
X171038059Y-89212058D01*
X170973836Y-89212458D01*
X170921977Y-89213829D01*
X170880349Y-89216421D01*
X170846818Y-89220485D01*
X170819253Y-89226273D01*
X170795521Y-89234038D01*
X170775457Y-89243033D01*
X170742566Y-89264161D01*
X170716479Y-89291904D01*
X170696594Y-89327724D01*
X170682309Y-89373079D01*
X170673022Y-89429430D01*
X170668131Y-89498235D01*
X170667929Y-89503790D01*
X170664280Y-89610465D01*
X170906555Y-89612647D01*
X170973040Y-89613308D01*
X171026561Y-89614026D01*
X171068667Y-89614891D01*
X171100909Y-89615992D01*
X171124836Y-89617417D01*
X171141999Y-89619255D01*
X171153948Y-89621595D01*
X171162231Y-89624527D01*
X171167668Y-89627631D01*
X171179704Y-89637132D01*
X171188707Y-89648440D01*
X171195106Y-89663689D01*
X171199331Y-89685008D01*
X171201812Y-89714529D01*
X171202977Y-89754385D01*
X171203258Y-89804217D01*
X171203378Y-89851101D01*
X171202881Y-89889657D01*
X171200477Y-89920695D01*
X171194876Y-89945029D01*
X171184788Y-89963471D01*
X171168925Y-89976834D01*
X171145997Y-89985929D01*
X171114714Y-89991570D01*
X171073787Y-89994570D01*
X171021927Y-89995740D01*
X170957844Y-89995893D01*
X170899175Y-89995829D01*
X170666229Y-89995829D01*
X170666229Y-90696504D01*
X170666241Y-90815678D01*
X170666243Y-90921193D01*
X170666187Y-91013904D01*
X170666023Y-91094667D01*
X170665703Y-91164337D01*
X170665176Y-91223769D01*
X170664395Y-91273819D01*
X170663310Y-91315342D01*
X170661872Y-91349193D01*
X170660031Y-91376228D01*
X170657739Y-91397301D01*
X170654947Y-91413268D01*
X170651605Y-91424985D01*
X170647665Y-91433307D01*
X170643077Y-91439088D01*
X170637792Y-91443185D01*
X170631761Y-91446452D01*
X170624934Y-91449746D01*
X170622924Y-91450763D01*
X170608021Y-91454590D01*
X170581298Y-91457666D01*
X170545359Y-91459989D01*
X170502804Y-91461559D01*
X170456235Y-91462375D01*
X170408255Y-91462436D01*
X170361465Y-91461740D01*
X170318467Y-91460288D01*
X170281864Y-91458077D01*
X170254257Y-91455108D01*
X170238248Y-91451378D01*
X170237283Y-91450909D01*
X170230296Y-91447380D01*
X170224112Y-91444272D01*
X170218682Y-91440727D01*
X170213957Y-91435888D01*
X170209889Y-91428899D01*
X170206428Y-91418902D01*
X170203525Y-91405040D01*
X170201133Y-91386457D01*
X170199201Y-91362295D01*
X170197682Y-91331696D01*
X170196526Y-91293805D01*
X170195685Y-91247764D01*
X170195109Y-91192716D01*
X170194751Y-91127804D01*
X170194561Y-91052171D01*
X170194490Y-90964959D01*
X170194490Y-90865313D01*
X170194511Y-90752375D01*
X170194515Y-90700027D01*
X170194515Y-89995829D01*
X170040300Y-89995818D01*
X169976483Y-89995545D01*
X169925692Y-89993896D01*
X169886442Y-89989606D01*
X169857245Y-89981409D01*
X169836615Y-89968042D01*
X169823064Y-89948240D01*
X169815107Y-89920738D01*
X169811256Y-89884273D01*
X169810024Y-89837579D01*
X169809924Y-89799886D01*
X169810238Y-89747694D01*
X169812153Y-89706139D01*
X169817155Y-89674011D01*
X169826729Y-89650096D01*
X169842359Y-89633182D01*
X169865530Y-89622057D01*
X169897728Y-89615508D01*
X169940437Y-89612324D01*
X169995143Y-89611292D01*
X170041047Y-89611200D01*
X170192845Y-89611200D01*
X170196354Y-89464243D01*
X170197932Y-89409286D01*
X170199888Y-89366061D01*
X170202483Y-89331785D01*
X170205977Y-89303679D01*
X170210628Y-89278959D01*
X170215498Y-89259229D01*
X170244714Y-89173547D01*
X170283589Y-89098401D01*
X170332642Y-89033053D01*
X170392390Y-88976765D01*
X170435385Y-88945863D01*
X170481392Y-88918375D01*
X170528374Y-88895485D01*
X170578082Y-88876849D01*
X170632264Y-88862118D01*
X170692672Y-88850945D01*
X170761053Y-88842985D01*
X170839159Y-88837889D01*
X170928739Y-88835310D01*
X170995340Y-88834819D01*
X171190195Y-88834686D01*
X171214869Y-88859360D01*
G36*
X168804381Y-88859187D02*
G01*
X168828785Y-88871915D01*
X168851164Y-88885418D01*
X168872303Y-88900743D01*
X168892983Y-88918938D01*
X168913989Y-88941049D01*
X168936102Y-88968125D01*
X168960106Y-89001211D01*
X168986784Y-89041356D01*
X169016918Y-89089605D01*
X169051291Y-89147008D01*
X169090686Y-89214610D01*
X169135887Y-89293459D01*
X169157711Y-89331800D01*
X169240200Y-89476943D01*
X169240200Y-89538629D01*
X169237781Y-89587374D01*
X169230205Y-89625809D01*
X169226572Y-89636600D01*
X169219962Y-89651336D01*
X169207130Y-89677244D01*
X169188696Y-89713189D01*
X169165275Y-89758040D01*
X169137486Y-89810664D01*
X169105945Y-89869927D01*
X169071269Y-89934698D01*
X169034077Y-90003843D01*
X168994984Y-90076230D01*
X168954608Y-90150725D01*
X168913566Y-90226196D01*
X168872476Y-90301510D01*
X168831955Y-90375535D01*
X168792619Y-90447137D01*
X168755087Y-90515184D01*
X168719975Y-90578542D01*
X168687900Y-90636080D01*
X168659480Y-90686664D01*
X168635331Y-90729162D01*
X168616072Y-90762440D01*
X168602319Y-90785366D01*
X168594689Y-90796807D01*
X168594071Y-90797503D01*
X168581406Y-90809976D01*
X168569717Y-90820232D01*
X168557484Y-90828498D01*
X168543188Y-90835007D01*
X168525310Y-90839987D01*
X168502329Y-90843671D01*
X168472726Y-90846287D01*
X168434981Y-90848066D01*
X168387575Y-90849239D01*
X168328989Y-90850036D01*
X168257701Y-90850687D01*
X168242343Y-90850816D01*
X167970200Y-90853088D01*
X167899906Y-90963301D01*
X167829612Y-91073515D01*
X167943449Y-91075858D01*
X167976326Y-91076253D01*
X168021376Y-91076378D01*
X168076259Y-91076246D01*
X168138637Y-91075873D01*
X168206170Y-91075274D01*
X168276521Y-91074464D01*
X168347349Y-91073456D01*
X168362846Y-91073208D01*
X168668405Y-91068214D01*
X168728911Y-90965636D01*
X168744060Y-90939781D01*
X168765521Y-90902903D01*
X168792386Y-90856573D01*
X168823750Y-90802360D01*
X168858704Y-90741834D01*
X168896341Y-90676565D01*
X168935756Y-90608123D01*
X168976041Y-90538077D01*
X168997802Y-90500200D01*
X169036454Y-90433067D01*
X169073406Y-90369209D01*
X169107952Y-90309829D01*
X169139382Y-90256131D01*
X169166988Y-90209316D01*
X169190061Y-90170587D01*
X169207892Y-90141148D01*
X169219774Y-90122202D01*
X169224379Y-90115572D01*
X169242569Y-90093800D01*
X169383205Y-90091569D01*
X169431808Y-90090864D01*
X169468095Y-90090637D01*
X169494258Y-90091078D01*
X169512493Y-90092376D01*
X169524993Y-90094722D01*
X169533952Y-90098307D01*
X169541566Y-90103319D01*
X169544436Y-90105538D01*
X169554577Y-90114147D01*
X169560432Y-90122723D01*
X169562836Y-90135037D01*
X169562627Y-90154859D01*
X169561025Y-90180341D01*
X169560003Y-90196152D01*
X169558953Y-90210288D01*
X169557424Y-90223644D01*
X169554963Y-90237117D01*
X169551119Y-90251600D01*
X169545441Y-90267990D01*
X169537477Y-90287182D01*
X169526776Y-90310072D01*
X169512885Y-90337555D01*
X169495353Y-90370526D01*
X169473729Y-90409881D01*
X169447561Y-90456515D01*
X169416398Y-90511323D01*
X169379787Y-90575202D01*
X169337278Y-90649046D01*
X169288418Y-90733751D01*
X169236835Y-90823143D01*
X169183925Y-90914714D01*
X169137601Y-90994549D01*
X169097306Y-91063542D01*
X169062479Y-91122592D01*
X169032563Y-91172594D01*
X169006997Y-91214446D01*
X168985223Y-91249043D01*
X168966683Y-91277282D01*
X168950817Y-91300059D01*
X168937066Y-91318272D01*
X168924872Y-91332816D01*
X168913675Y-91344589D01*
X168908932Y-91349111D01*
X168867206Y-91383588D01*
X168826245Y-91407551D01*
X168781456Y-91423004D01*
X168728248Y-91431948D01*
X168716309Y-91433122D01*
X168699552Y-91433980D01*
X168670104Y-91434775D01*
X168629332Y-91435503D01*
X168578602Y-91436164D01*
X168519279Y-91436754D01*
X168452730Y-91437272D01*
X168380320Y-91437715D01*
X168303417Y-91438082D01*
X168223385Y-91438370D01*
X168141591Y-91438577D01*
X168059401Y-91438701D01*
X167978181Y-91438740D01*
X167899296Y-91438692D01*
X167824114Y-91438554D01*
X167754000Y-91438326D01*
X167690320Y-91438003D01*
X167634439Y-91437585D01*
X167587726Y-91437069D01*
X167551544Y-91436453D01*
X167527260Y-91435735D01*
X167516629Y-91434987D01*
X167457933Y-91419472D01*
X167410291Y-91394930D01*
X167374092Y-91362181D01*
X167349725Y-91322044D01*
X167337578Y-91275339D01*
X167338042Y-91222884D01*
X167351505Y-91165499D01*
X167368604Y-91123401D01*
X167377440Y-91106951D01*
X167392962Y-91080448D01*
X167414144Y-91045491D01*
X167439962Y-91003680D01*
X167469391Y-90956614D01*
X167501406Y-90905892D01*
X167534981Y-90853115D01*
X167569092Y-90799882D01*
X167602714Y-90747792D01*
X167634823Y-90698445D01*
X167664392Y-90653441D01*
X167690397Y-90614378D01*
X167711813Y-90582858D01*
X167727616Y-90560478D01*
X167736744Y-90548877D01*
X167756482Y-90532064D01*
X167782561Y-90514652D01*
X167799567Y-90505334D01*
X167839572Y-90485686D01*
X168099529Y-90482058D01*
X168359486Y-90478429D01*
X168609738Y-90016454D01*
X168859989Y-89554479D01*
X168807901Y-89461283D01*
X168783558Y-89418176D01*
X168756036Y-89370153D01*
X168728752Y-89323140D01*
X168705615Y-89283888D01*
X168655417Y-89199691D01*
X168352723Y-89195254D01*
X168276233Y-89194364D01*
X168194384Y-89193822D01*
X168110561Y-89193623D01*
X168028147Y-89193761D01*
X167950526Y-89194233D01*
X167881083Y-89195033D01*
X167829869Y-89195995D01*
X167609709Y-89201172D01*
X167593715Y-89219769D01*
X167584879Y-89232236D01*
X167570626Y-89254871D01*
X167552505Y-89285110D01*
X167532060Y-89320386D01*
X167517158Y-89346769D01*
X167460691Y-89447453D01*
X167406280Y-89543707D01*
X167355115Y-89633447D01*
X167308383Y-89714591D01*
X167267271Y-89785056D01*
X167266473Y-89786412D01*
X167243420Y-89825662D01*
X167220106Y-89865496D01*
X167198820Y-89901995D01*
X167181849Y-89931240D01*
X167177483Y-89938812D01*
X167160570Y-89968061D01*
X167139415Y-90004441D01*
X167117144Y-90042580D01*
X167102825Y-90067007D01*
X167058885Y-90141815D01*
X167092182Y-90204893D01*
X167114021Y-90245167D01*
X167130783Y-90273279D01*
X167143311Y-90290322D01*
X167152450Y-90297385D01*
X167159044Y-90295559D01*
X167160695Y-90293372D01*
X167166656Y-90284364D01*
X167179530Y-90265302D01*
X167198017Y-90238098D01*
X167220815Y-90204664D01*
X167246625Y-90166913D01*
X167256763Y-90152108D01*
X167287970Y-90106981D01*
X167312751Y-90072310D01*
X167332538Y-90046350D01*
X167348765Y-90027353D01*
X167362863Y-90013574D01*
X167376265Y-90003265D01*
X167381776Y-89999708D01*
X167417467Y-89977686D01*
X167653919Y-89973069D01*
X167713555Y-89971907D01*
X167770663Y-89970801D01*
X167823058Y-89969791D01*
X167868555Y-89968919D01*
X167904969Y-89968229D01*
X167930114Y-89967760D01*
X167937587Y-89967626D01*
X167984803Y-89966800D01*
X168044630Y-89858970D01*
X168064336Y-89823193D01*
X168081309Y-89791878D01*
X168094393Y-89767200D01*
X168102433Y-89751333D01*
X168104458Y-89746485D01*
X168097487Y-89745353D01*
X168077722Y-89744320D01*
X168046882Y-89743421D01*
X168006685Y-89742691D01*
X167958853Y-89742164D01*
X167905104Y-89741874D01*
X167872756Y-89741829D01*
X167641054Y-89741829D01*
X167626013Y-89722707D01*
X167615493Y-89705462D01*
X167610975Y-89690377D01*
X167610972Y-89690096D01*
X167614110Y-89679936D01*
X167622906Y-89658870D01*
X167636433Y-89628923D01*
X167653763Y-89592124D01*
X167673968Y-89550499D01*
X167685358Y-89527512D01*
X167759743Y-89378418D01*
X168137115Y-89380509D01*
X168514486Y-89382600D01*
X168552768Y-89403810D01*
X168588917Y-89429949D01*
X168612445Y-89461920D01*
X168623105Y-89493126D01*
X168625299Y-89506620D01*
X168625772Y-89520554D01*
X168624023Y-89536049D01*
X168619545Y-89554228D01*
X168611837Y-89576210D01*
X168600393Y-89603117D01*
X168584709Y-89636071D01*
X168564283Y-89676192D01*
X168538610Y-89724601D01*
X168507186Y-89782421D01*
X168469507Y-89850771D01*
X168432016Y-89918291D01*
X168396477Y-89981989D01*
X168362542Y-90042478D01*
X168330962Y-90098442D01*
X168302486Y-90148565D01*
X168277867Y-90191532D01*
X168257855Y-90226027D01*
X168243202Y-90250735D01*
X168234658Y-90264340D01*
X168233689Y-90265691D01*
X168216661Y-90282980D01*
X168192802Y-90301315D01*
X168176087Y-90311701D01*
X168137115Y-90333286D01*
X167854892Y-90336915D01*
X167572670Y-90340543D01*
X167441235Y-90534132D01*
X167408566Y-90582041D01*
X167377813Y-90626744D01*
X167350097Y-90666642D01*
X167326538Y-90700136D01*
X167308260Y-90725625D01*
X167296382Y-90741511D01*
X167293100Y-90745452D01*
X167277257Y-90758974D01*
X167254504Y-90774659D01*
X167238672Y-90784091D01*
X167215742Y-90795518D01*
X167194968Y-90801853D01*
X167170248Y-90804467D01*
X167146515Y-90804816D01*
X167113957Y-90803652D01*
X167089385Y-90799473D01*
X167066359Y-90790863D01*
X167053038Y-90784258D01*
X167031149Y-90771776D01*
X167011102Y-90757565D01*
X166991796Y-90740190D01*
X166972132Y-90718218D01*
X166951012Y-90690217D01*
X166927336Y-90654753D01*
X166900004Y-90610393D01*
X166867917Y-90555704D01*
X166839095Y-90505327D01*
X166800454Y-90436659D01*
X166768824Y-90378686D01*
X166743568Y-90329767D01*
X166724049Y-90288261D01*
X166709629Y-90252527D01*
X166699672Y-90220925D01*
X166693541Y-90191813D01*
X166690599Y-90163550D01*
X166690207Y-90134496D01*
X166690599Y-90122832D01*
X166692641Y-90089243D01*
X166696319Y-90063825D01*
X166703156Y-90040726D01*
X166714675Y-90014095D01*
X166723803Y-89995331D01*
X166742342Y-89959199D01*
X166764315Y-89918283D01*
X166785613Y-89880198D01*
X166790090Y-89872458D01*
X166816977Y-89826344D01*
X166837573Y-89790951D01*
X166852915Y-89764469D01*
X166864041Y-89745088D01*
X166871986Y-89730999D01*
X166877787Y-89720395D01*
X166882481Y-89711464D01*
X166883659Y-89709172D01*
X166895799Y-89687450D01*
X166907276Y-89669258D01*
X166915072Y-89656964D01*
X166928555Y-89634701D01*
X166946556Y-89604480D01*
X166967906Y-89568309D01*
X166991434Y-89528197D01*
X167015971Y-89486155D01*
X167040348Y-89444191D01*
X167063395Y-89404316D01*
X167083942Y-89368539D01*
X167100820Y-89338869D01*
X167112859Y-89317315D01*
X167118890Y-89305888D01*
X167119245Y-89305067D01*
X167126290Y-89290270D01*
X167139577Y-89265528D01*
X167157698Y-89233227D01*
X167179241Y-89195755D01*
X167202798Y-89155499D01*
X167226957Y-89114846D01*
X167250310Y-89076184D01*
X167271445Y-89041900D01*
X167288954Y-89014380D01*
X167301425Y-88996012D01*
X167303168Y-88993677D01*
X167334896Y-88956166D01*
X167370238Y-88920768D01*
X167405755Y-88890590D01*
X167438008Y-88868740D01*
X167446083Y-88864490D01*
X167458259Y-88858782D01*
X167470349Y-88853774D01*
X167483344Y-88849420D01*
X167498232Y-88845674D01*
X167516004Y-88842489D01*
X167537647Y-88839820D01*
X167564151Y-88837621D01*
X167596506Y-88835844D01*
X167635700Y-88834443D01*
X167682723Y-88833373D01*
X167738564Y-88832587D01*
X167804212Y-88832039D01*
X167880656Y-88831683D01*
X167968886Y-88831472D01*
X168069891Y-88831360D01*
X168155632Y-88831313D01*
X168747464Y-88831058D01*
X168804381Y-88859187D01*
G37*
X168804381Y-88859187D02*
X168828785Y-88871915D01*
X168851164Y-88885418D01*
X168872303Y-88900743D01*
X168892983Y-88918938D01*
X168913989Y-88941049D01*
X168936102Y-88968125D01*
X168960106Y-89001211D01*
X168986784Y-89041356D01*
X169016918Y-89089605D01*
X169051291Y-89147008D01*
X169090686Y-89214610D01*
X169135887Y-89293459D01*
X169157711Y-89331800D01*
X169240200Y-89476943D01*
X169240200Y-89538629D01*
X169237781Y-89587374D01*
X169230205Y-89625809D01*
X169226572Y-89636600D01*
X169219962Y-89651336D01*
X169207130Y-89677244D01*
X169188696Y-89713189D01*
X169165275Y-89758040D01*
X169137486Y-89810664D01*
X169105945Y-89869927D01*
X169071269Y-89934698D01*
X169034077Y-90003843D01*
X168994984Y-90076230D01*
X168954608Y-90150725D01*
X168913566Y-90226196D01*
X168872476Y-90301510D01*
X168831955Y-90375535D01*
X168792619Y-90447137D01*
X168755087Y-90515184D01*
X168719975Y-90578542D01*
X168687900Y-90636080D01*
X168659480Y-90686664D01*
X168635331Y-90729162D01*
X168616072Y-90762440D01*
X168602319Y-90785366D01*
X168594689Y-90796807D01*
X168594071Y-90797503D01*
X168581406Y-90809976D01*
X168569717Y-90820232D01*
X168557484Y-90828498D01*
X168543188Y-90835007D01*
X168525310Y-90839987D01*
X168502329Y-90843671D01*
X168472726Y-90846287D01*
X168434981Y-90848066D01*
X168387575Y-90849239D01*
X168328989Y-90850036D01*
X168257701Y-90850687D01*
X168242343Y-90850816D01*
X167970200Y-90853088D01*
X167899906Y-90963301D01*
X167829612Y-91073515D01*
X167943449Y-91075858D01*
X167976326Y-91076253D01*
X168021376Y-91076378D01*
X168076259Y-91076246D01*
X168138637Y-91075873D01*
X168206170Y-91075274D01*
X168276521Y-91074464D01*
X168347349Y-91073456D01*
X168362846Y-91073208D01*
X168668405Y-91068214D01*
X168728911Y-90965636D01*
X168744060Y-90939781D01*
X168765521Y-90902903D01*
X168792386Y-90856573D01*
X168823750Y-90802360D01*
X168858704Y-90741834D01*
X168896341Y-90676565D01*
X168935756Y-90608123D01*
X168976041Y-90538077D01*
X168997802Y-90500200D01*
X169036454Y-90433067D01*
X169073406Y-90369209D01*
X169107952Y-90309829D01*
X169139382Y-90256131D01*
X169166988Y-90209316D01*
X169190061Y-90170587D01*
X169207892Y-90141148D01*
X169219774Y-90122202D01*
X169224379Y-90115572D01*
X169242569Y-90093800D01*
X169383205Y-90091569D01*
X169431808Y-90090864D01*
X169468095Y-90090637D01*
X169494258Y-90091078D01*
X169512493Y-90092376D01*
X169524993Y-90094722D01*
X169533952Y-90098307D01*
X169541566Y-90103319D01*
X169544436Y-90105538D01*
X169554577Y-90114147D01*
X169560432Y-90122723D01*
X169562836Y-90135037D01*
X169562627Y-90154859D01*
X169561025Y-90180341D01*
X169560003Y-90196152D01*
X169558953Y-90210288D01*
X169557424Y-90223644D01*
X169554963Y-90237117D01*
X169551119Y-90251600D01*
X169545441Y-90267990D01*
X169537477Y-90287182D01*
X169526776Y-90310072D01*
X169512885Y-90337555D01*
X169495353Y-90370526D01*
X169473729Y-90409881D01*
X169447561Y-90456515D01*
X169416398Y-90511323D01*
X169379787Y-90575202D01*
X169337278Y-90649046D01*
X169288418Y-90733751D01*
X169236835Y-90823143D01*
X169183925Y-90914714D01*
X169137601Y-90994549D01*
X169097306Y-91063542D01*
X169062479Y-91122592D01*
X169032563Y-91172594D01*
X169006997Y-91214446D01*
X168985223Y-91249043D01*
X168966683Y-91277282D01*
X168950817Y-91300059D01*
X168937066Y-91318272D01*
X168924872Y-91332816D01*
X168913675Y-91344589D01*
X168908932Y-91349111D01*
X168867206Y-91383588D01*
X168826245Y-91407551D01*
X168781456Y-91423004D01*
X168728248Y-91431948D01*
X168716309Y-91433122D01*
X168699552Y-91433980D01*
X168670104Y-91434775D01*
X168629332Y-91435503D01*
X168578602Y-91436164D01*
X168519279Y-91436754D01*
X168452730Y-91437272D01*
X168380320Y-91437715D01*
X168303417Y-91438082D01*
X168223385Y-91438370D01*
X168141591Y-91438577D01*
X168059401Y-91438701D01*
X167978181Y-91438740D01*
X167899296Y-91438692D01*
X167824114Y-91438554D01*
X167754000Y-91438326D01*
X167690320Y-91438003D01*
X167634439Y-91437585D01*
X167587726Y-91437069D01*
X167551544Y-91436453D01*
X167527260Y-91435735D01*
X167516629Y-91434987D01*
X167457933Y-91419472D01*
X167410291Y-91394930D01*
X167374092Y-91362181D01*
X167349725Y-91322044D01*
X167337578Y-91275339D01*
X167338042Y-91222884D01*
X167351505Y-91165499D01*
X167368604Y-91123401D01*
X167377440Y-91106951D01*
X167392962Y-91080448D01*
X167414144Y-91045491D01*
X167439962Y-91003680D01*
X167469391Y-90956614D01*
X167501406Y-90905892D01*
X167534981Y-90853115D01*
X167569092Y-90799882D01*
X167602714Y-90747792D01*
X167634823Y-90698445D01*
X167664392Y-90653441D01*
X167690397Y-90614378D01*
X167711813Y-90582858D01*
X167727616Y-90560478D01*
X167736744Y-90548877D01*
X167756482Y-90532064D01*
X167782561Y-90514652D01*
X167799567Y-90505334D01*
X167839572Y-90485686D01*
X168099529Y-90482058D01*
X168359486Y-90478429D01*
X168609738Y-90016454D01*
X168859989Y-89554479D01*
X168807901Y-89461283D01*
X168783558Y-89418176D01*
X168756036Y-89370153D01*
X168728752Y-89323140D01*
X168705615Y-89283888D01*
X168655417Y-89199691D01*
X168352723Y-89195254D01*
X168276233Y-89194364D01*
X168194384Y-89193822D01*
X168110561Y-89193623D01*
X168028147Y-89193761D01*
X167950526Y-89194233D01*
X167881083Y-89195033D01*
X167829869Y-89195995D01*
X167609709Y-89201172D01*
X167593715Y-89219769D01*
X167584879Y-89232236D01*
X167570626Y-89254871D01*
X167552505Y-89285110D01*
X167532060Y-89320386D01*
X167517158Y-89346769D01*
X167460691Y-89447453D01*
X167406280Y-89543707D01*
X167355115Y-89633447D01*
X167308383Y-89714591D01*
X167267271Y-89785056D01*
X167266473Y-89786412D01*
X167243420Y-89825662D01*
X167220106Y-89865496D01*
X167198820Y-89901995D01*
X167181849Y-89931240D01*
X167177483Y-89938812D01*
X167160570Y-89968061D01*
X167139415Y-90004441D01*
X167117144Y-90042580D01*
X167102825Y-90067007D01*
X167058885Y-90141815D01*
X167092182Y-90204893D01*
X167114021Y-90245167D01*
X167130783Y-90273279D01*
X167143311Y-90290322D01*
X167152450Y-90297385D01*
X167159044Y-90295559D01*
X167160695Y-90293372D01*
X167166656Y-90284364D01*
X167179530Y-90265302D01*
X167198017Y-90238098D01*
X167220815Y-90204664D01*
X167246625Y-90166913D01*
X167256763Y-90152108D01*
X167287970Y-90106981D01*
X167312751Y-90072310D01*
X167332538Y-90046350D01*
X167348765Y-90027353D01*
X167362863Y-90013574D01*
X167376265Y-90003265D01*
X167381776Y-89999708D01*
X167417467Y-89977686D01*
X167653919Y-89973069D01*
X167713555Y-89971907D01*
X167770663Y-89970801D01*
X167823058Y-89969791D01*
X167868555Y-89968919D01*
X167904969Y-89968229D01*
X167930114Y-89967760D01*
X167937587Y-89967626D01*
X167984803Y-89966800D01*
X168044630Y-89858970D01*
X168064336Y-89823193D01*
X168081309Y-89791878D01*
X168094393Y-89767200D01*
X168102433Y-89751333D01*
X168104458Y-89746485D01*
X168097487Y-89745353D01*
X168077722Y-89744320D01*
X168046882Y-89743421D01*
X168006685Y-89742691D01*
X167958853Y-89742164D01*
X167905104Y-89741874D01*
X167872756Y-89741829D01*
X167641054Y-89741829D01*
X167626013Y-89722707D01*
X167615493Y-89705462D01*
X167610975Y-89690377D01*
X167610972Y-89690096D01*
X167614110Y-89679936D01*
X167622906Y-89658870D01*
X167636433Y-89628923D01*
X167653763Y-89592124D01*
X167673968Y-89550499D01*
X167685358Y-89527512D01*
X167759743Y-89378418D01*
X168137115Y-89380509D01*
X168514486Y-89382600D01*
X168552768Y-89403810D01*
X168588917Y-89429949D01*
X168612445Y-89461920D01*
X168623105Y-89493126D01*
X168625299Y-89506620D01*
X168625772Y-89520554D01*
X168624023Y-89536049D01*
X168619545Y-89554228D01*
X168611837Y-89576210D01*
X168600393Y-89603117D01*
X168584709Y-89636071D01*
X168564283Y-89676192D01*
X168538610Y-89724601D01*
X168507186Y-89782421D01*
X168469507Y-89850771D01*
X168432016Y-89918291D01*
X168396477Y-89981989D01*
X168362542Y-90042478D01*
X168330962Y-90098442D01*
X168302486Y-90148565D01*
X168277867Y-90191532D01*
X168257855Y-90226027D01*
X168243202Y-90250735D01*
X168234658Y-90264340D01*
X168233689Y-90265691D01*
X168216661Y-90282980D01*
X168192802Y-90301315D01*
X168176087Y-90311701D01*
X168137115Y-90333286D01*
X167854892Y-90336915D01*
X167572670Y-90340543D01*
X167441235Y-90534132D01*
X167408566Y-90582041D01*
X167377813Y-90626744D01*
X167350097Y-90666642D01*
X167326538Y-90700136D01*
X167308260Y-90725625D01*
X167296382Y-90741511D01*
X167293100Y-90745452D01*
X167277257Y-90758974D01*
X167254504Y-90774659D01*
X167238672Y-90784091D01*
X167215742Y-90795518D01*
X167194968Y-90801853D01*
X167170248Y-90804467D01*
X167146515Y-90804816D01*
X167113957Y-90803652D01*
X167089385Y-90799473D01*
X167066359Y-90790863D01*
X167053038Y-90784258D01*
X167031149Y-90771776D01*
X167011102Y-90757565D01*
X166991796Y-90740190D01*
X166972132Y-90718218D01*
X166951012Y-90690217D01*
X166927336Y-90654753D01*
X166900004Y-90610393D01*
X166867917Y-90555704D01*
X166839095Y-90505327D01*
X166800454Y-90436659D01*
X166768824Y-90378686D01*
X166743568Y-90329767D01*
X166724049Y-90288261D01*
X166709629Y-90252527D01*
X166699672Y-90220925D01*
X166693541Y-90191813D01*
X166690599Y-90163550D01*
X166690207Y-90134496D01*
X166690599Y-90122832D01*
X166692641Y-90089243D01*
X166696319Y-90063825D01*
X166703156Y-90040726D01*
X166714675Y-90014095D01*
X166723803Y-89995331D01*
X166742342Y-89959199D01*
X166764315Y-89918283D01*
X166785613Y-89880198D01*
X166790090Y-89872458D01*
X166816977Y-89826344D01*
X166837573Y-89790951D01*
X166852915Y-89764469D01*
X166864041Y-89745088D01*
X166871986Y-89730999D01*
X166877787Y-89720395D01*
X166882481Y-89711464D01*
X166883659Y-89709172D01*
X166895799Y-89687450D01*
X166907276Y-89669258D01*
X166915072Y-89656964D01*
X166928555Y-89634701D01*
X166946556Y-89604480D01*
X166967906Y-89568309D01*
X166991434Y-89528197D01*
X167015971Y-89486155D01*
X167040348Y-89444191D01*
X167063395Y-89404316D01*
X167083942Y-89368539D01*
X167100820Y-89338869D01*
X167112859Y-89317315D01*
X167118890Y-89305888D01*
X167119245Y-89305067D01*
X167126290Y-89290270D01*
X167139577Y-89265528D01*
X167157698Y-89233227D01*
X167179241Y-89195755D01*
X167202798Y-89155499D01*
X167226957Y-89114846D01*
X167250310Y-89076184D01*
X167271445Y-89041900D01*
X167288954Y-89014380D01*
X167301425Y-88996012D01*
X167303168Y-88993677D01*
X167334896Y-88956166D01*
X167370238Y-88920768D01*
X167405755Y-88890590D01*
X167438008Y-88868740D01*
X167446083Y-88864490D01*
X167458259Y-88858782D01*
X167470349Y-88853774D01*
X167483344Y-88849420D01*
X167498232Y-88845674D01*
X167516004Y-88842489D01*
X167537647Y-88839820D01*
X167564151Y-88837621D01*
X167596506Y-88835844D01*
X167635700Y-88834443D01*
X167682723Y-88833373D01*
X167738564Y-88832587D01*
X167804212Y-88832039D01*
X167880656Y-88831683D01*
X167968886Y-88831472D01*
X168069891Y-88831360D01*
X168155632Y-88831313D01*
X168747464Y-88831058D01*
X168804381Y-88859187D01*
%TO.C,U3*%
D13*
X116292380Y-116331904D02*
X117101904Y-116331904D01*
X117197142Y-116284285D01*
X117244761Y-116236666D01*
X117292380Y-116141428D01*
X117292380Y-115950952D01*
X117244761Y-115855714D01*
X117197142Y-115808095D01*
X117101904Y-115760476D01*
X116292380Y-115760476D01*
X116292380Y-115379523D02*
X116292380Y-114760476D01*
X116673333Y-115093809D01*
X116673333Y-114950952D01*
X116720952Y-114855714D01*
X116768571Y-114808095D01*
X116863809Y-114760476D01*
X117101904Y-114760476D01*
X117197142Y-114808095D01*
X117244761Y-114855714D01*
X117292380Y-114950952D01*
X117292380Y-115236666D01*
X117244761Y-115331904D01*
X117197142Y-115379523D01*
%TO.C,C4*%
X143978333Y-109577142D02*
X143930714Y-109624761D01*
X143787857Y-109672380D01*
X143692619Y-109672380D01*
X143549761Y-109624761D01*
X143454523Y-109529523D01*
X143406904Y-109434285D01*
X143359285Y-109243809D01*
X143359285Y-109100952D01*
X143406904Y-108910476D01*
X143454523Y-108815238D01*
X143549761Y-108720000D01*
X143692619Y-108672380D01*
X143787857Y-108672380D01*
X143930714Y-108720000D01*
X143978333Y-108767619D01*
X144835476Y-109005714D02*
X144835476Y-109672380D01*
X144597380Y-108624761D02*
X144359285Y-109339047D01*
X144978333Y-109339047D01*
%TO.C,U1*%
X137668095Y-98512380D02*
X137668095Y-99321904D01*
X137715714Y-99417142D01*
X137763333Y-99464761D01*
X137858571Y-99512380D01*
X138049047Y-99512380D01*
X138144285Y-99464761D01*
X138191904Y-99417142D01*
X138239523Y-99321904D01*
X138239523Y-98512380D01*
X139239523Y-99512380D02*
X138668095Y-99512380D01*
X138953809Y-99512380D02*
X138953809Y-98512380D01*
X138858571Y-98655238D01*
X138763333Y-98750476D01*
X138668095Y-98798095D01*
%TO.C,R1*%
X150312380Y-126531666D02*
X149836190Y-126865000D01*
X150312380Y-127103095D02*
X149312380Y-127103095D01*
X149312380Y-126722142D01*
X149360000Y-126626904D01*
X149407619Y-126579285D01*
X149502857Y-126531666D01*
X149645714Y-126531666D01*
X149740952Y-126579285D01*
X149788571Y-126626904D01*
X149836190Y-126722142D01*
X149836190Y-127103095D01*
X150312380Y-125579285D02*
X150312380Y-126150714D01*
X150312380Y-125865000D02*
X149312380Y-125865000D01*
X149455238Y-125960238D01*
X149550476Y-126055476D01*
X149598095Y-126150714D01*
%TO.C,U4*%
X165822380Y-130301904D02*
X166631904Y-130301904D01*
X166727142Y-130254285D01*
X166774761Y-130206666D01*
X166822380Y-130111428D01*
X166822380Y-129920952D01*
X166774761Y-129825714D01*
X166727142Y-129778095D01*
X166631904Y-129730476D01*
X165822380Y-129730476D01*
X166155714Y-128825714D02*
X166822380Y-128825714D01*
X165774761Y-129063809D02*
X166489047Y-129301904D01*
X166489047Y-128682857D01*
%TO.C,C2*%
X133072142Y-138596666D02*
X133119761Y-138644285D01*
X133167380Y-138787142D01*
X133167380Y-138882380D01*
X133119761Y-139025238D01*
X133024523Y-139120476D01*
X132929285Y-139168095D01*
X132738809Y-139215714D01*
X132595952Y-139215714D01*
X132405476Y-139168095D01*
X132310238Y-139120476D01*
X132215000Y-139025238D01*
X132167380Y-138882380D01*
X132167380Y-138787142D01*
X132215000Y-138644285D01*
X132262619Y-138596666D01*
X132262619Y-138215714D02*
X132215000Y-138168095D01*
X132167380Y-138072857D01*
X132167380Y-137834761D01*
X132215000Y-137739523D01*
X132262619Y-137691904D01*
X132357857Y-137644285D01*
X132453095Y-137644285D01*
X132595952Y-137691904D01*
X133167380Y-138263333D01*
X133167380Y-137644285D01*
%TO.C,C1*%
X150217142Y-123991666D02*
X150264761Y-124039285D01*
X150312380Y-124182142D01*
X150312380Y-124277380D01*
X150264761Y-124420238D01*
X150169523Y-124515476D01*
X150074285Y-124563095D01*
X149883809Y-124610714D01*
X149740952Y-124610714D01*
X149550476Y-124563095D01*
X149455238Y-124515476D01*
X149360000Y-124420238D01*
X149312380Y-124277380D01*
X149312380Y-124182142D01*
X149360000Y-124039285D01*
X149407619Y-123991666D01*
X150312380Y-123039285D02*
X150312380Y-123610714D01*
X150312380Y-123325000D02*
X149312380Y-123325000D01*
X149455238Y-123420238D01*
X149550476Y-123515476D01*
X149598095Y-123610714D01*
%TO.C,C3*%
X132437142Y-122086666D02*
X132484761Y-122134285D01*
X132532380Y-122277142D01*
X132532380Y-122372380D01*
X132484761Y-122515238D01*
X132389523Y-122610476D01*
X132294285Y-122658095D01*
X132103809Y-122705714D01*
X131960952Y-122705714D01*
X131770476Y-122658095D01*
X131675238Y-122610476D01*
X131580000Y-122515238D01*
X131532380Y-122372380D01*
X131532380Y-122277142D01*
X131580000Y-122134285D01*
X131627619Y-122086666D01*
X131532380Y-121753333D02*
X131532380Y-121134285D01*
X131913333Y-121467619D01*
X131913333Y-121324761D01*
X131960952Y-121229523D01*
X132008571Y-121181904D01*
X132103809Y-121134285D01*
X132341904Y-121134285D01*
X132437142Y-121181904D01*
X132484761Y-121229523D01*
X132532380Y-121324761D01*
X132532380Y-121610476D01*
X132484761Y-121705714D01*
X132437142Y-121753333D01*
%TO.C,C5*%
X150217142Y-129706666D02*
X150264761Y-129754285D01*
X150312380Y-129897142D01*
X150312380Y-129992380D01*
X150264761Y-130135238D01*
X150169523Y-130230476D01*
X150074285Y-130278095D01*
X149883809Y-130325714D01*
X149740952Y-130325714D01*
X149550476Y-130278095D01*
X149455238Y-130230476D01*
X149360000Y-130135238D01*
X149312380Y-129992380D01*
X149312380Y-129897142D01*
X149360000Y-129754285D01*
X149407619Y-129706666D01*
X149312380Y-128801904D02*
X149312380Y-129278095D01*
X149788571Y-129325714D01*
X149740952Y-129278095D01*
X149693333Y-129182857D01*
X149693333Y-128944761D01*
X149740952Y-128849523D01*
X149788571Y-128801904D01*
X149883809Y-128754285D01*
X150121904Y-128754285D01*
X150217142Y-128801904D01*
X150264761Y-128849523D01*
X150312380Y-128944761D01*
X150312380Y-129182857D01*
X150264761Y-129278095D01*
X150217142Y-129325714D01*
%TO.C,U2*%
X137668095Y-122942380D02*
X137668095Y-123751904D01*
X137715714Y-123847142D01*
X137763333Y-123894761D01*
X137858571Y-123942380D01*
X138049047Y-123942380D01*
X138144285Y-123894761D01*
X138191904Y-123847142D01*
X138239523Y-123751904D01*
X138239523Y-122942380D01*
X138668095Y-123037619D02*
X138715714Y-122990000D01*
X138810952Y-122942380D01*
X139049047Y-122942380D01*
X139144285Y-122990000D01*
X139191904Y-123037619D01*
X139239523Y-123132857D01*
X139239523Y-123228095D01*
X139191904Y-123370952D01*
X138620476Y-123942380D01*
X139239523Y-123942380D01*
%TO.C,SW1*%
X154709761Y-131363333D02*
X154757380Y-131220476D01*
X154757380Y-130982380D01*
X154709761Y-130887142D01*
X154662142Y-130839523D01*
X154566904Y-130791904D01*
X154471666Y-130791904D01*
X154376428Y-130839523D01*
X154328809Y-130887142D01*
X154281190Y-130982380D01*
X154233571Y-131172857D01*
X154185952Y-131268095D01*
X154138333Y-131315714D01*
X154043095Y-131363333D01*
X153947857Y-131363333D01*
X153852619Y-131315714D01*
X153805000Y-131268095D01*
X153757380Y-131172857D01*
X153757380Y-130934761D01*
X153805000Y-130791904D01*
X153757380Y-130458571D02*
X154757380Y-130220476D01*
X154043095Y-130030000D01*
X154757380Y-129839523D01*
X153757380Y-129601428D01*
X154757380Y-128696666D02*
X154757380Y-129268095D01*
X154757380Y-128982380D02*
X153757380Y-128982380D01*
X153900238Y-129077619D01*
X153995476Y-129172857D01*
X154043095Y-129268095D01*
%TO.C,SW2*%
X114726666Y-142644761D02*
X114869523Y-142692380D01*
X115107619Y-142692380D01*
X115202857Y-142644761D01*
X115250476Y-142597142D01*
X115298095Y-142501904D01*
X115298095Y-142406666D01*
X115250476Y-142311428D01*
X115202857Y-142263809D01*
X115107619Y-142216190D01*
X114917142Y-142168571D01*
X114821904Y-142120952D01*
X114774285Y-142073333D01*
X114726666Y-141978095D01*
X114726666Y-141882857D01*
X114774285Y-141787619D01*
X114821904Y-141740000D01*
X114917142Y-141692380D01*
X115155238Y-141692380D01*
X115298095Y-141740000D01*
X115631428Y-141692380D02*
X115869523Y-142692380D01*
X116060000Y-141978095D01*
X116250476Y-142692380D01*
X116488571Y-141692380D01*
X116821904Y-141787619D02*
X116869523Y-141740000D01*
X116964761Y-141692380D01*
X117202857Y-141692380D01*
X117298095Y-141740000D01*
X117345714Y-141787619D01*
X117393333Y-141882857D01*
X117393333Y-141978095D01*
X117345714Y-142120952D01*
X116774285Y-142692380D01*
X117393333Y-142692380D01*
%TO.C,AE1*%
X188698333Y-128866666D02*
X189174523Y-128866666D01*
X188603095Y-129152380D02*
X188936428Y-128152380D01*
X189269761Y-129152380D01*
X189603095Y-128628571D02*
X189936428Y-128628571D01*
X190079285Y-129152380D02*
X189603095Y-129152380D01*
X189603095Y-128152380D01*
X190079285Y-128152380D01*
X191031666Y-129152380D02*
X190460238Y-129152380D01*
X190745952Y-129152380D02*
X190745952Y-128152380D01*
X190650714Y-128295238D01*
X190555476Y-128390476D01*
X190460238Y-128438095D01*
%TO.C,C7*%
X150217142Y-136056666D02*
X150264761Y-136104285D01*
X150312380Y-136247142D01*
X150312380Y-136342380D01*
X150264761Y-136485238D01*
X150169523Y-136580476D01*
X150074285Y-136628095D01*
X149883809Y-136675714D01*
X149740952Y-136675714D01*
X149550476Y-136628095D01*
X149455238Y-136580476D01*
X149360000Y-136485238D01*
X149312380Y-136342380D01*
X149312380Y-136247142D01*
X149360000Y-136104285D01*
X149407619Y-136056666D01*
X149312380Y-135723333D02*
X149312380Y-135056666D01*
X150312380Y-135485238D01*
%TO.C,C8*%
X150217142Y-133516666D02*
X150264761Y-133564285D01*
X150312380Y-133707142D01*
X150312380Y-133802380D01*
X150264761Y-133945238D01*
X150169523Y-134040476D01*
X150074285Y-134088095D01*
X149883809Y-134135714D01*
X149740952Y-134135714D01*
X149550476Y-134088095D01*
X149455238Y-134040476D01*
X149360000Y-133945238D01*
X149312380Y-133802380D01*
X149312380Y-133707142D01*
X149360000Y-133564285D01*
X149407619Y-133516666D01*
X149740952Y-132945238D02*
X149693333Y-133040476D01*
X149645714Y-133088095D01*
X149550476Y-133135714D01*
X149502857Y-133135714D01*
X149407619Y-133088095D01*
X149360000Y-133040476D01*
X149312380Y-132945238D01*
X149312380Y-132754761D01*
X149360000Y-132659523D01*
X149407619Y-132611904D01*
X149502857Y-132564285D01*
X149550476Y-132564285D01*
X149645714Y-132611904D01*
X149693333Y-132659523D01*
X149740952Y-132754761D01*
X149740952Y-132945238D01*
X149788571Y-133040476D01*
X149836190Y-133088095D01*
X149931428Y-133135714D01*
X150121904Y-133135714D01*
X150217142Y-133088095D01*
X150264761Y-133040476D01*
X150312380Y-132945238D01*
X150312380Y-132754761D01*
X150264761Y-132659523D01*
X150217142Y-132611904D01*
X150121904Y-132564285D01*
X149931428Y-132564285D01*
X149836190Y-132611904D01*
X149788571Y-132659523D01*
X149740952Y-132754761D01*
%TO.C,Y1*%
X128881190Y-130456190D02*
X129357380Y-130456190D01*
X128357380Y-130789523D02*
X128881190Y-130456190D01*
X128357380Y-130122857D01*
X129357380Y-129265714D02*
X129357380Y-129837142D01*
X129357380Y-129551428D02*
X128357380Y-129551428D01*
X128500238Y-129646666D01*
X128595476Y-129741904D01*
X128643095Y-129837142D01*
%TO.C,U5*%
X168103095Y-108092380D02*
X168103095Y-108901904D01*
X168150714Y-108997142D01*
X168198333Y-109044761D01*
X168293571Y-109092380D01*
X168484047Y-109092380D01*
X168579285Y-109044761D01*
X168626904Y-108997142D01*
X168674523Y-108901904D01*
X168674523Y-108092380D01*
X169626904Y-108092380D02*
X169150714Y-108092380D01*
X169103095Y-108568571D01*
X169150714Y-108520952D01*
X169245952Y-108473333D01*
X169484047Y-108473333D01*
X169579285Y-108520952D01*
X169626904Y-108568571D01*
X169674523Y-108663809D01*
X169674523Y-108901904D01*
X169626904Y-108997142D01*
X169579285Y-109044761D01*
X169484047Y-109092380D01*
X169245952Y-109092380D01*
X169150714Y-109044761D01*
X169103095Y-108997142D01*
%TO.C,J1*%
X106767380Y-131143333D02*
X107481666Y-131143333D01*
X107624523Y-131190952D01*
X107719761Y-131286190D01*
X107767380Y-131429047D01*
X107767380Y-131524285D01*
X107767380Y-130143333D02*
X107767380Y-130714761D01*
X107767380Y-130429047D02*
X106767380Y-130429047D01*
X106910238Y-130524285D01*
X107005476Y-130619523D01*
X107053095Y-130714761D01*
%TO.C,J3*%
X125817380Y-117808333D02*
X126531666Y-117808333D01*
X126674523Y-117855952D01*
X126769761Y-117951190D01*
X126817380Y-118094047D01*
X126817380Y-118189285D01*
X125817380Y-117427380D02*
X125817380Y-116808333D01*
X126198333Y-117141666D01*
X126198333Y-116998809D01*
X126245952Y-116903571D01*
X126293571Y-116855952D01*
X126388809Y-116808333D01*
X126626904Y-116808333D01*
X126722142Y-116855952D01*
X126769761Y-116903571D01*
X126817380Y-116998809D01*
X126817380Y-117284523D01*
X126769761Y-117379761D01*
X126722142Y-117427380D01*
%TO.C,J2*%
X106767380Y-103203333D02*
X107481666Y-103203333D01*
X107624523Y-103250952D01*
X107719761Y-103346190D01*
X107767380Y-103489047D01*
X107767380Y-103584285D01*
X106862619Y-102774761D02*
X106815000Y-102727142D01*
X106767380Y-102631904D01*
X106767380Y-102393809D01*
X106815000Y-102298571D01*
X106862619Y-102250952D01*
X106957857Y-102203333D01*
X107053095Y-102203333D01*
X107195952Y-102250952D01*
X107767380Y-102822380D01*
X107767380Y-102203333D01*
%TO.C,J4*%
X125817380Y-143208333D02*
X126531666Y-143208333D01*
X126674523Y-143255952D01*
X126769761Y-143351190D01*
X126817380Y-143494047D01*
X126817380Y-143589285D01*
X126150714Y-142303571D02*
X126817380Y-142303571D01*
X125769761Y-142541666D02*
X126484047Y-142779761D01*
X126484047Y-142160714D01*
%TO.C,J5*%
X148891666Y-95972380D02*
X148891666Y-96686666D01*
X148844047Y-96829523D01*
X148748809Y-96924761D01*
X148605952Y-96972380D01*
X148510714Y-96972380D01*
X149844047Y-95972380D02*
X149367857Y-95972380D01*
X149320238Y-96448571D01*
X149367857Y-96400952D01*
X149463095Y-96353333D01*
X149701190Y-96353333D01*
X149796428Y-96400952D01*
X149844047Y-96448571D01*
X149891666Y-96543809D01*
X149891666Y-96781904D01*
X149844047Y-96877142D01*
X149796428Y-96924761D01*
X149701190Y-96972380D01*
X149463095Y-96972380D01*
X149367857Y-96924761D01*
X149320238Y-96877142D01*
%TO.C,J6*%
X160956666Y-95972380D02*
X160956666Y-96686666D01*
X160909047Y-96829523D01*
X160813809Y-96924761D01*
X160670952Y-96972380D01*
X160575714Y-96972380D01*
X161861428Y-95972380D02*
X161670952Y-95972380D01*
X161575714Y-96020000D01*
X161528095Y-96067619D01*
X161432857Y-96210476D01*
X161385238Y-96400952D01*
X161385238Y-96781904D01*
X161432857Y-96877142D01*
X161480476Y-96924761D01*
X161575714Y-96972380D01*
X161766190Y-96972380D01*
X161861428Y-96924761D01*
X161909047Y-96877142D01*
X161956666Y-96781904D01*
X161956666Y-96543809D01*
X161909047Y-96448571D01*
X161861428Y-96400952D01*
X161766190Y-96353333D01*
X161575714Y-96353333D01*
X161480476Y-96400952D01*
X161432857Y-96448571D01*
X161385238Y-96543809D01*
%TO.C,J7*%
X125396666Y-95972380D02*
X125396666Y-96686666D01*
X125349047Y-96829523D01*
X125253809Y-96924761D01*
X125110952Y-96972380D01*
X125015714Y-96972380D01*
X125777619Y-95972380D02*
X126444285Y-95972380D01*
X126015714Y-96972380D01*
%TO.C,J8*%
X156297380Y-143208333D02*
X157011666Y-143208333D01*
X157154523Y-143255952D01*
X157249761Y-143351190D01*
X157297380Y-143494047D01*
X157297380Y-143589285D01*
X156725952Y-142589285D02*
X156678333Y-142684523D01*
X156630714Y-142732142D01*
X156535476Y-142779761D01*
X156487857Y-142779761D01*
X156392619Y-142732142D01*
X156345000Y-142684523D01*
X156297380Y-142589285D01*
X156297380Y-142398809D01*
X156345000Y-142303571D01*
X156392619Y-142255952D01*
X156487857Y-142208333D01*
X156535476Y-142208333D01*
X156630714Y-142255952D01*
X156678333Y-142303571D01*
X156725952Y-142398809D01*
X156725952Y-142589285D01*
X156773571Y-142684523D01*
X156821190Y-142732142D01*
X156916428Y-142779761D01*
X157106904Y-142779761D01*
X157202142Y-142732142D01*
X157249761Y-142684523D01*
X157297380Y-142589285D01*
X157297380Y-142398809D01*
X157249761Y-142303571D01*
X157202142Y-142255952D01*
X157106904Y-142208333D01*
X156916428Y-142208333D01*
X156821190Y-142255952D01*
X156773571Y-142303571D01*
X156725952Y-142398809D01*
%TO.C,J9*%
X180006666Y-122007380D02*
X180006666Y-122721666D01*
X179959047Y-122864523D01*
X179863809Y-122959761D01*
X179720952Y-123007380D01*
X179625714Y-123007380D01*
X180530476Y-123007380D02*
X180720952Y-123007380D01*
X180816190Y-122959761D01*
X180863809Y-122912142D01*
X180959047Y-122769285D01*
X181006666Y-122578809D01*
X181006666Y-122197857D01*
X180959047Y-122102619D01*
X180911428Y-122055000D01*
X180816190Y-122007380D01*
X180625714Y-122007380D01*
X180530476Y-122055000D01*
X180482857Y-122102619D01*
X180435238Y-122197857D01*
X180435238Y-122435952D01*
X180482857Y-122531190D01*
X180530476Y-122578809D01*
X180625714Y-122626428D01*
X180816190Y-122626428D01*
X180911428Y-122578809D01*
X180959047Y-122531190D01*
X181006666Y-122435952D01*
%TO.C,J10*%
X133810476Y-95972380D02*
X133810476Y-96686666D01*
X133762857Y-96829523D01*
X133667619Y-96924761D01*
X133524761Y-96972380D01*
X133429523Y-96972380D01*
X134810476Y-96972380D02*
X134239047Y-96972380D01*
X134524761Y-96972380D02*
X134524761Y-95972380D01*
X134429523Y-96115238D01*
X134334285Y-96210476D01*
X134239047Y-96258095D01*
X135429523Y-95972380D02*
X135524761Y-95972380D01*
X135620000Y-96020000D01*
X135667619Y-96067619D01*
X135715238Y-96162857D01*
X135762857Y-96353333D01*
X135762857Y-96591428D01*
X135715238Y-96781904D01*
X135667619Y-96877142D01*
X135620000Y-96924761D01*
X135524761Y-96972380D01*
X135429523Y-96972380D01*
X135334285Y-96924761D01*
X135286666Y-96877142D01*
X135239047Y-96781904D01*
X135191428Y-96591428D01*
X135191428Y-96353333D01*
X135239047Y-96162857D01*
X135286666Y-96067619D01*
X135334285Y-96020000D01*
X135429523Y-95972380D01*
%TO.C,C6*%
X132548333Y-109577142D02*
X132500714Y-109624761D01*
X132357857Y-109672380D01*
X132262619Y-109672380D01*
X132119761Y-109624761D01*
X132024523Y-109529523D01*
X131976904Y-109434285D01*
X131929285Y-109243809D01*
X131929285Y-109100952D01*
X131976904Y-108910476D01*
X132024523Y-108815238D01*
X132119761Y-108720000D01*
X132262619Y-108672380D01*
X132357857Y-108672380D01*
X132500714Y-108720000D01*
X132548333Y-108767619D01*
X133405476Y-108672380D02*
X133215000Y-108672380D01*
X133119761Y-108720000D01*
X133072142Y-108767619D01*
X132976904Y-108910476D01*
X132929285Y-109100952D01*
X132929285Y-109481904D01*
X132976904Y-109577142D01*
X133024523Y-109624761D01*
X133119761Y-109672380D01*
X133310238Y-109672380D01*
X133405476Y-109624761D01*
X133453095Y-109577142D01*
X133500714Y-109481904D01*
X133500714Y-109243809D01*
X133453095Y-109148571D01*
X133405476Y-109100952D01*
X133310238Y-109053333D01*
X133119761Y-109053333D01*
X133024523Y-109100952D01*
X132976904Y-109148571D01*
X132929285Y-109243809D01*
%TO.C,H1*%
X184023095Y-117927380D02*
X184023095Y-116927380D01*
X184023095Y-117403571D02*
X184594523Y-117403571D01*
X184594523Y-117927380D02*
X184594523Y-116927380D01*
X185594523Y-117927380D02*
X185023095Y-117927380D01*
X185308809Y-117927380D02*
X185308809Y-116927380D01*
X185213571Y-117070238D01*
X185118333Y-117165476D01*
X185023095Y-117213095D01*
%TO.C,H2*%
X103938095Y-118152380D02*
X103938095Y-117152380D01*
X103938095Y-117628571D02*
X104509523Y-117628571D01*
X104509523Y-118152380D02*
X104509523Y-117152380D01*
X104938095Y-117247619D02*
X104985714Y-117200000D01*
X105080952Y-117152380D01*
X105319047Y-117152380D01*
X105414285Y-117200000D01*
X105461904Y-117247619D01*
X105509523Y-117342857D01*
X105509523Y-117438095D01*
X105461904Y-117580952D01*
X104890476Y-118152380D01*
X105509523Y-118152380D01*
%TO.C,.1*%
D10*
X167621428Y-92584285D02*
X167697619Y-92850952D01*
X167773809Y-92660476D01*
X167850000Y-92850952D01*
X167926190Y-92584285D01*
X168040476Y-92584285D02*
X168116666Y-92850952D01*
X168192857Y-92660476D01*
X168269047Y-92850952D01*
X168345238Y-92584285D01*
X168459523Y-92584285D02*
X168535714Y-92850952D01*
X168611904Y-92660476D01*
X168688095Y-92850952D01*
X168764285Y-92584285D01*
X168916666Y-92812857D02*
X168935714Y-92831904D01*
X168916666Y-92850952D01*
X168897619Y-92831904D01*
X168916666Y-92812857D01*
X168916666Y-92850952D01*
X169050000Y-92584285D02*
X169202380Y-92584285D01*
X169107142Y-92850952D02*
X169107142Y-92508095D01*
X169126190Y-92470000D01*
X169164285Y-92450952D01*
X169202380Y-92450952D01*
X169392857Y-92850952D02*
X169354761Y-92831904D01*
X169335714Y-92793809D01*
X169335714Y-92450952D01*
X169716666Y-92584285D02*
X169716666Y-92850952D01*
X169545238Y-92584285D02*
X169545238Y-92793809D01*
X169564285Y-92831904D01*
X169602380Y-92850952D01*
X169659523Y-92850952D01*
X169697619Y-92831904D01*
X169716666Y-92812857D01*
X169869047Y-92850952D02*
X170078571Y-92584285D01*
X169869047Y-92584285D02*
X170078571Y-92850952D01*
X170230952Y-92812857D02*
X170250000Y-92831904D01*
X170230952Y-92850952D01*
X170211904Y-92831904D01*
X170230952Y-92812857D01*
X170230952Y-92850952D01*
X170592857Y-92850952D02*
X170592857Y-92641428D01*
X170573809Y-92603333D01*
X170535714Y-92584285D01*
X170459523Y-92584285D01*
X170421428Y-92603333D01*
X170592857Y-92831904D02*
X170554761Y-92850952D01*
X170459523Y-92850952D01*
X170421428Y-92831904D01*
X170402380Y-92793809D01*
X170402380Y-92755714D01*
X170421428Y-92717619D01*
X170459523Y-92698571D01*
X170554761Y-92698571D01*
X170592857Y-92679523D01*
X170954761Y-92831904D02*
X170916666Y-92850952D01*
X170840476Y-92850952D01*
X170802380Y-92831904D01*
X170783333Y-92812857D01*
X170764285Y-92774761D01*
X170764285Y-92660476D01*
X170783333Y-92622380D01*
X170802380Y-92603333D01*
X170840476Y-92584285D01*
X170916666Y-92584285D01*
X170954761Y-92603333D01*
X171526190Y-92984285D02*
X171526190Y-92412857D01*
X172078571Y-92584285D02*
X172154761Y-92850952D01*
X172230952Y-92660476D01*
X172307142Y-92850952D01*
X172383333Y-92584285D01*
X172497619Y-92584285D02*
X172573809Y-92850952D01*
X172650000Y-92660476D01*
X172726190Y-92850952D01*
X172802380Y-92584285D01*
X172916666Y-92584285D02*
X172992857Y-92850952D01*
X173069047Y-92660476D01*
X173145238Y-92850952D01*
X173221428Y-92584285D01*
X173373809Y-92812857D02*
X173392857Y-92831904D01*
X173373809Y-92850952D01*
X173354761Y-92831904D01*
X173373809Y-92812857D01*
X173373809Y-92850952D01*
X173507142Y-92584285D02*
X173659523Y-92584285D01*
X173564285Y-92850952D02*
X173564285Y-92508095D01*
X173583333Y-92470000D01*
X173621428Y-92450952D01*
X173659523Y-92450952D01*
X173850000Y-92850952D02*
X173811904Y-92831904D01*
X173792857Y-92793809D01*
X173792857Y-92450952D01*
X174173809Y-92584285D02*
X174173809Y-92850952D01*
X174002380Y-92584285D02*
X174002380Y-92793809D01*
X174021428Y-92831904D01*
X174059523Y-92850952D01*
X174116666Y-92850952D01*
X174154761Y-92831904D01*
X174173809Y-92812857D01*
X174326190Y-92850952D02*
X174535714Y-92584285D01*
X174326190Y-92584285D02*
X174535714Y-92850952D01*
X174688095Y-92812857D02*
X174707142Y-92831904D01*
X174688095Y-92850952D01*
X174669047Y-92831904D01*
X174688095Y-92812857D01*
X174688095Y-92850952D01*
X174878571Y-92850952D02*
X174878571Y-92584285D01*
X174878571Y-92450952D02*
X174859523Y-92470000D01*
X174878571Y-92489047D01*
X174897619Y-92470000D01*
X174878571Y-92450952D01*
X174878571Y-92489047D01*
X175240476Y-92850952D02*
X175240476Y-92450952D01*
X175240476Y-92831904D02*
X175202380Y-92850952D01*
X175126190Y-92850952D01*
X175088095Y-92831904D01*
X175069047Y-92812857D01*
X175050000Y-92774761D01*
X175050000Y-92660476D01*
X175069047Y-92622380D01*
X175088095Y-92603333D01*
X175126190Y-92584285D01*
X175202380Y-92584285D01*
X175240476Y-92603333D01*
D15*
X166854761Y-92036666D02*
X167045238Y-92036666D01*
X166816666Y-92150952D02*
X166950000Y-91750952D01*
X167083333Y-92150952D01*
X167521428Y-91884285D02*
X167521428Y-92150952D01*
X167521428Y-91922380D02*
X167540476Y-91903333D01*
X167578571Y-91884285D01*
X167635714Y-91884285D01*
X167673809Y-91903333D01*
X167692857Y-91941428D01*
X167692857Y-92150952D01*
X168035714Y-92131904D02*
X167997619Y-92150952D01*
X167921428Y-92150952D01*
X167883333Y-92131904D01*
X167864285Y-92093809D01*
X167864285Y-91941428D01*
X167883333Y-91903333D01*
X167921428Y-91884285D01*
X167997619Y-91884285D01*
X168035714Y-91903333D01*
X168054761Y-91941428D01*
X168054761Y-91979523D01*
X167864285Y-92017619D01*
X168188095Y-91884285D02*
X168264285Y-92150952D01*
X168340476Y-91960476D01*
X168416666Y-92150952D01*
X168492857Y-91884285D01*
X168911904Y-91884285D02*
X168988095Y-92150952D01*
X169064285Y-91960476D01*
X169140476Y-92150952D01*
X169216666Y-91884285D01*
X169540476Y-92150952D02*
X169540476Y-91941428D01*
X169521428Y-91903333D01*
X169483333Y-91884285D01*
X169407142Y-91884285D01*
X169369047Y-91903333D01*
X169540476Y-92131904D02*
X169502380Y-92150952D01*
X169407142Y-92150952D01*
X169369047Y-92131904D01*
X169350000Y-92093809D01*
X169350000Y-92055714D01*
X169369047Y-92017619D01*
X169407142Y-91998571D01*
X169502380Y-91998571D01*
X169540476Y-91979523D01*
X169692857Y-91884285D02*
X169788095Y-92150952D01*
X169883333Y-91884285D02*
X169788095Y-92150952D01*
X169750000Y-92246190D01*
X169730952Y-92265238D01*
X169692857Y-92284285D01*
X170283333Y-91884285D02*
X170435714Y-91884285D01*
X170340476Y-91750952D02*
X170340476Y-92093809D01*
X170359523Y-92131904D01*
X170397619Y-92150952D01*
X170435714Y-92150952D01*
X170569047Y-92150952D02*
X170569047Y-91750952D01*
X170740476Y-92150952D02*
X170740476Y-91941428D01*
X170721428Y-91903333D01*
X170683333Y-91884285D01*
X170626190Y-91884285D01*
X170588095Y-91903333D01*
X170569047Y-91922380D01*
X170930952Y-92150952D02*
X170930952Y-91884285D01*
X170930952Y-91750952D02*
X170911904Y-91770000D01*
X170930952Y-91789047D01*
X170950000Y-91770000D01*
X170930952Y-91750952D01*
X170930952Y-91789047D01*
X171121428Y-91884285D02*
X171121428Y-92150952D01*
X171121428Y-91922380D02*
X171140476Y-91903333D01*
X171178571Y-91884285D01*
X171235714Y-91884285D01*
X171273809Y-91903333D01*
X171292857Y-91941428D01*
X171292857Y-92150952D01*
X171654761Y-91884285D02*
X171654761Y-92208095D01*
X171635714Y-92246190D01*
X171616666Y-92265238D01*
X171578571Y-92284285D01*
X171521428Y-92284285D01*
X171483333Y-92265238D01*
X171654761Y-92131904D02*
X171616666Y-92150952D01*
X171540476Y-92150952D01*
X171502380Y-92131904D01*
X171483333Y-92112857D01*
X171464285Y-92074761D01*
X171464285Y-91960476D01*
X171483333Y-91922380D01*
X171502380Y-91903333D01*
X171540476Y-91884285D01*
X171616666Y-91884285D01*
X171654761Y-91903333D01*
X171826190Y-92131904D02*
X171864285Y-92150952D01*
X171940476Y-92150952D01*
X171978571Y-92131904D01*
X171997619Y-92093809D01*
X171997619Y-92074761D01*
X171978571Y-92036666D01*
X171940476Y-92017619D01*
X171883333Y-92017619D01*
X171845238Y-91998571D01*
X171826190Y-91960476D01*
X171826190Y-91941428D01*
X171845238Y-91903333D01*
X171883333Y-91884285D01*
X171940476Y-91884285D01*
X171978571Y-91903333D01*
X172416666Y-91884285D02*
X172569047Y-91884285D01*
X172473809Y-91750952D02*
X172473809Y-92093809D01*
X172492857Y-92131904D01*
X172530952Y-92150952D01*
X172569047Y-92150952D01*
X172759523Y-92150952D02*
X172721428Y-92131904D01*
X172702380Y-92112857D01*
X172683333Y-92074761D01*
X172683333Y-91960476D01*
X172702380Y-91922380D01*
X172721428Y-91903333D01*
X172759523Y-91884285D01*
X172816666Y-91884285D01*
X172854761Y-91903333D01*
X172873809Y-91922380D01*
X172892857Y-91960476D01*
X172892857Y-92074761D01*
X172873809Y-92112857D01*
X172854761Y-92131904D01*
X172816666Y-92150952D01*
X172759523Y-92150952D01*
X173540476Y-92131904D02*
X173502380Y-92150952D01*
X173426190Y-92150952D01*
X173388095Y-92131904D01*
X173369047Y-92112857D01*
X173350000Y-92074761D01*
X173350000Y-91960476D01*
X173369047Y-91922380D01*
X173388095Y-91903333D01*
X173426190Y-91884285D01*
X173502380Y-91884285D01*
X173540476Y-91903333D01*
X173769047Y-92150952D02*
X173730952Y-92131904D01*
X173711904Y-92112857D01*
X173692857Y-92074761D01*
X173692857Y-91960476D01*
X173711904Y-91922380D01*
X173730952Y-91903333D01*
X173769047Y-91884285D01*
X173826190Y-91884285D01*
X173864285Y-91903333D01*
X173883333Y-91922380D01*
X173902380Y-91960476D01*
X173902380Y-92074761D01*
X173883333Y-92112857D01*
X173864285Y-92131904D01*
X173826190Y-92150952D01*
X173769047Y-92150952D01*
X174073809Y-91884285D02*
X174073809Y-92150952D01*
X174073809Y-91922380D02*
X174092857Y-91903333D01*
X174130952Y-91884285D01*
X174188095Y-91884285D01*
X174226190Y-91903333D01*
X174245238Y-91941428D01*
X174245238Y-92150952D01*
X174435714Y-91884285D02*
X174435714Y-92150952D01*
X174435714Y-91922380D02*
X174454761Y-91903333D01*
X174492857Y-91884285D01*
X174550000Y-91884285D01*
X174588095Y-91903333D01*
X174607142Y-91941428D01*
X174607142Y-92150952D01*
X174950000Y-92131904D02*
X174911904Y-92150952D01*
X174835714Y-92150952D01*
X174797619Y-92131904D01*
X174778571Y-92093809D01*
X174778571Y-91941428D01*
X174797619Y-91903333D01*
X174835714Y-91884285D01*
X174911904Y-91884285D01*
X174950000Y-91903333D01*
X174969047Y-91941428D01*
X174969047Y-91979523D01*
X174778571Y-92017619D01*
X175311904Y-92131904D02*
X175273809Y-92150952D01*
X175197619Y-92150952D01*
X175159523Y-92131904D01*
X175140476Y-92112857D01*
X175121428Y-92074761D01*
X175121428Y-91960476D01*
X175140476Y-91922380D01*
X175159523Y-91903333D01*
X175197619Y-91884285D01*
X175273809Y-91884285D01*
X175311904Y-91903333D01*
X175426190Y-91884285D02*
X175578571Y-91884285D01*
X175483333Y-91750952D02*
X175483333Y-92093809D01*
X175502380Y-92131904D01*
X175540476Y-92150952D01*
X175578571Y-92150952D01*
X175864285Y-92131904D02*
X175826190Y-92150952D01*
X175750000Y-92150952D01*
X175711904Y-92131904D01*
X175692857Y-92093809D01*
X175692857Y-91941428D01*
X175711904Y-91903333D01*
X175750000Y-91884285D01*
X175826190Y-91884285D01*
X175864285Y-91903333D01*
X175883333Y-91941428D01*
X175883333Y-91979523D01*
X175692857Y-92017619D01*
X176226190Y-92150952D02*
X176226190Y-91750952D01*
X176226190Y-92131904D02*
X176188095Y-92150952D01*
X176111904Y-92150952D01*
X176073809Y-92131904D01*
X176054761Y-92112857D01*
X176035714Y-92074761D01*
X176035714Y-91960476D01*
X176054761Y-91922380D01*
X176073809Y-91903333D01*
X176111904Y-91884285D01*
X176188095Y-91884285D01*
X176226190Y-91903333D01*
%TD*%
M02*
